<?xml version="1.0" encoding="UTF-8"?>
<svg id="Layer_1" xmlns="http://www.w3.org/2000/svg" version="1.1" xmlns:xlink="http://www.w3.org/1999/xlink" viewBox="0 0 3514.2 757">
  <!-- Generator: Adobe Illustrator 29.8.2, SVG Export Plug-In . SVG Version: 2.1.1 Build 3)  -->
  <defs>
    <style>
      .st0 {
        fill: #fff;
      }

      .st1 {
        mask: url(#mask);
      }

      .st2 {
        fill: none;
      }
    </style>
    <mask id="mask" x="15.9" y="19" width="3483.6" height="724.6" maskUnits="userSpaceOnUse">
      <g id="mask0_124_2">
        <path class="st0" d="M3499.5,19.6H15.9v723.8h3483.6V19.6Z"/>
      </g>
    </mask>
  </defs>
  <rect class="st2" x="15.9" y="19.6" width="3483.6" height="723.8"/>
  <g class="st1">
    <g>
      <path d="M2868.3,19.9s-2.6,0-2.6,2.4v65.4c0,.3,0,.7.2,1,.1.3.3.6.6.8.3.2.5.4.9.5.3.1.6.1,1,.1h467.5c1.6,0,3.2-.7,4.4-1.7l74-66.8s1.9-1.7-.8-1.7h-545.2Z"/>
      <path d="M2868.3,160.5s-2.6,0-2.6,2.4v65.4c0,.3,0,.7.2,1,.1.3.3.6.6.8.3.2.5.4.9.5.3.1.6.1,1,.1h312.5c1.6,0,3.2-.7,4.4-1.7l74-66.8s1.8-1.7-.8-1.7h-390.1Z"/>
      <path d="M2868.3,301s-2.6,0-2.6,2.4v65.4c0,.3,0,.7.2,1,.1.3.3.6.6.8.3.2.5.4.9.5.3.1.6.1,1,.1h156.8c1.6,0,3.2-.6,4.4-1.7l74-66.8s1.8-1.7-.8-1.7h-234.4Z"/>
      <path d="M2865.7,655.9c0,.3,0,.7.2,1,.1.3.3.6.6.8.3.2.5.4.9.5.3.1.6.1,1,.1h628.5s2.6,0,2.6-2.4v-65.4c0-.3,0-.7-.2-1-.1-.3-.3-.6-.6-.8-.3-.2-.5-.4-.9-.5-.3-.1-.6-.1-1-.1h-628.5s-2.6,0-2.6,2.4v65.4Z"/>
      <path d="M2868.3,441.5s-2.6,0-2.6,2.4v71.4s0,2.4,2.3.7l80.6-72.8s1.9-1.7-.7-1.7h-79.5Z"/>
      <path d="M2977.4,515.5s-1.8,1.7.8,1.7h104.6c1.6,0,3.2-.6,4.4-1.7l410.3-370.6c1.1-1.1,1.8-2.5,1.8-4V46.4s0-2.4-1.8-.7l-520.2,469.8Z"/>
      <path d="M3197.2,515.9s-1.8,1.7.8,1.7h104.6c1.6,0,3.2-.6,4.4-1.7l190.5-172.1c1.1-1.1,1.8-2.5,1.9-4.1v-94.5s0-2.4-1.9-.7l-300.3,271.3Z"/>
      <path d="M3416.9,516s-1.9,1.7.8,1.7h79.1s2.7,0,2.7-2.4v-71.5s0-2.4-1.9-.7l-80.7,72.8Z"/>
      <path d="M15.9,658.3h42.3l26.7-71.4h107.9l26.7,71.4h44.3l-101.5-254.6h-44.7L15.9,658.3ZM97.1,553.8l41.3-111.2,41.7,111.2h-83ZM354,658.3h38.3v-92.5c-.7-12.5,3.1-24.9,10.5-35,3.4-4.2,7.8-7.6,12.7-9.8,4.9-2.2,10.3-3.3,15.7-3.1,4.9-.4,9.7.4,14.2,2.3,4.5,1.9,8.5,4.9,11.6,8.6,6.2,10.2,9.1,22.1,8.2,34v95.4h38.3v-92.1c-.8-12.7,2.8-25.2,10.1-35.5,3.4-4.2,7.8-7.6,12.7-9.8,4.9-2.2,10.3-3.2,15.7-3,4.9-.4,9.8.5,14.2,2.4,4.5,1.9,8.5,4.9,11.6,8.7,6.4,10,9.4,21.9,8.5,33.8v95.4h38.3v-102.4c1-19.3-5-38.3-17-53.4-5.9-6.4-13.2-11.4-21.3-14.6-8.1-3.2-16.8-4.6-25.5-4-11.6-.2-23.1,2.7-33.3,8.2-9.6,5.1-17.5,13-22.6,22.6-4.4-9.5-11.6-17.5-20.5-22.9-9.3-5.3-19.9-8-30.6-7.9-11.2-.3-22.2,2.1-32.3,7.1-8.8,4.4-16,11.4-20.7,20.1l-.4-21.8h-36.6v169.1ZM781.1,635.2l.7,23.1h37v-169.1h-36.9l-.7,23.4c-5.8-9.2-14-16.5-23.7-21.3-12-5.7-25.3-8.2-38.5-7.3-13.3.9-26.1,5.1-37.2,12.4-12.4,8.2-22.5,19.6-29.1,33-6.9,13.8-10.5,29.1-10.4,44.6-.3,16.4,3.3,32.6,10.5,47.2,6.4,13,16.3,23.9,28.6,31.4,12.3,7.5,26.5,11.4,40.9,11.1,11.5.9,22.9-1.2,33.3-6.2,10.4-5,19.2-12.7,25.7-22.3M695,613.6c-9.7-11-14.7-25.3-14.2-40-.6-14.7,4.5-29,14.3-39.9,4.8-4.9,10.5-8.8,16.8-11.4,6.3-2.6,13-4,19.9-4s13.6,1.4,19.9,4c6.3,2.6,12,6.5,16.8,11.4,9.7,10.9,14.9,25.2,14.3,39.9.6,14.7-4.5,29-14.1,40-4.8,4.9-10.5,8.8-16.8,11.5-6.3,2.7-13.1,4.1-20,4.1s-13.6-1.4-20-4.1c-6.3-2.7-12-6.6-16.8-11.5ZM850.3,658.3h38.4v-92.1c-.8-12.7,3-25.3,10.7-35.5,3.7-4.3,8.3-7.6,13.5-9.8,5.2-2.2,10.8-3.2,16.4-2.9,4.9-.4,9.9.4,14.4,2.3,4.5,1.9,8.6,4.9,11.7,8.7,6.4,10,9.4,21.9,8.5,33.8v95.4h38.3v-102.5c1-19.3-5-38.3-17-53.4-5.9-6.4-13.1-11.3-21.1-14.6-8-3.2-16.7-4.6-25.3-4-11-.2-21.8,2.2-31.6,7.1-8.8,4.4-16,11.4-20.6,20.1l-.3-21.8h-35.8v169.2ZM1117,658.3h41.6v-106.9h100v-35.2h-99.9v-77.4h115.9v-35.2h-157.5v254.6ZM1289,658.3h38.5v-79.7c-.8-14.7,3.1-29.2,11.3-41.4,3.7-4.9,8.5-8.8,14-11.4,5.5-2.6,11.6-3.8,17.6-3.5,6.9,0,13.7,1.3,20,4l3.7-36.2c-3.1-1.2-6.3-2.1-9.6-2.7-3.3-.6-6.6-1-10-1-10.2-.2-20.2,2.6-28.8,8-8.6,5.7-15.3,13.7-19.5,23.1l-.3-28.5h-36.7v169.2ZM1532.9,659.8c10.2-2.2,20-5.7,29.3-10.6l-4-30.1c-17.6,8.7-37,13.1-56.6,13.1-14.8.7-29.3-3.5-41.5-11.9-5.3-4-9.7-9.1-13.1-14.9-3.3-5.8-5.5-12.2-6.4-18.8h124.1c1.1-6.3,1.6-12.7,1.4-19.1.3-15.5-3.1-30.8-10-44.6-6.2-12.3-15.9-22.4-27.8-29.1-12.5-6.8-26.5-10.3-40.8-10.1-15.7-.3-31.2,3.8-44.6,11.9-12.7,7.8-23.1,19-29.8,32.3-7.2,14.3-10.8,30.2-10.5,46.2-.4,16.8,3.8,33.4,12,47.9,7.8,13.5,19.5,24.3,33.6,31,15.8,7.3,33,10.9,50.3,10.6,11.7,0,23.3-1.3,34.7-3.9M1440.4,557.5c1-12.1,6.2-23.5,14.7-32.1,8.4-7.8,19.5-11.9,30.9-11.4,5.6-.3,11.1.6,16.4,2.5,5.2,2,10,5,14,8.9,7.8,8.9,12.2,20.3,12.3,32.1h-88.2ZM1717.3,659.9c10.2-2.1,20.1-5.7,29.3-10.6l-4-30.1c-17.6,8.7-37,13.1-56.6,13.1-14.7.7-29.3-3.5-41.4-11.9-5.3-4-9.8-9.1-13.1-14.9-3.4-5.8-5.5-12.2-6.4-18.8h124c1-6.3,1.4-12.7,1.3-19.1.4-15.5-3.1-30.8-10-44.6-6.2-12.3-15.9-22.4-27.8-29.1-12.5-6.9-26.5-10.3-40.8-10.1-15.7-.3-31.2,3.8-44.6,11.9-12.7,7.8-23.1,19-29.8,32.3-7.2,14.3-10.8,30.2-10.5,46.2-.4,16.8,3.7,33.3,12,47.9,7.9,13.5,19.6,24.3,33.7,31,15.7,7.3,32.9,10.9,50.2,10.6,11.7,0,23.3-1.3,34.6-3.9M1624.7,557.5c1-12.1,6.2-23.5,14.7-32.1,8.4-7.8,19.5-11.9,31-11.4,5.6-.3,11.1.6,16.3,2.5,5.2,2,10,5,14,8.9,7.9,8.9,12.2,20.3,12.3,32.1h-88.3ZM1843.5,658.4h200.5v-35.2h-149.6l147.2-187.6v-31.8h-190.2v35.2h138.9l-146.9,187.6v31.8ZM2194.5,651.3c13.4-7.9,24.4-19.2,32-32.8,7.6-14.1,11.5-29.9,11.3-45.9-.1-16-4.3-31.7-12.2-45.7-7.7-13.4-19-24.4-32.5-31.8-13.8-7.6-29.3-11.4-45-11.2-16.3-.2-32.3,4.1-46.3,12.4-13.4,7.9-24.4,19.2-32,32.8-7.6,13.6-11.5,29-11.3,44.6-.2,16.4,3.9,32.6,12.1,46.9,7.7,13.5,18.9,24.5,32.5,32,13.8,7.6,29.3,11.4,45,11.2,16.3.2,32.3-4.1,46.3-12.4M2111.3,613.6c-9.7-11-14.7-25.3-14.1-40-.6-14.7,4.5-29,14.3-39.9,4.8-4.9,10.5-8.8,16.8-11.4,6.3-2.6,13-4,19.9-4s13.6,1.4,19.9,4c6.3,2.6,12,6.5,16.8,11.4,9.8,10.9,14.9,25.2,14.3,39.9.6,14.7-4.5,29-14.2,40-4.8,4.9-10.5,8.8-16.8,11.5-6.3,2.7-13.1,4.1-20,4.1s-13.6-1.4-20-4.1c-6.3-2.7-12-6.6-16.8-11.5ZM2265.6,658.3h38.3v-92.1c-.8-12.7,3-25.3,10.6-35.5,3.7-4.3,8.3-7.6,13.5-9.9,5.2-2.2,10.8-3.2,16.5-2.9,4.9-.4,9.9.4,14.4,2.3,4.5,1.9,8.6,4.9,11.7,8.7,6.4,10,9.4,21.9,8.5,33.8v95.4h38.3v-102.4c1-19.3-5.1-38.3-17.1-53.4-5.9-6.4-13.1-11.3-21.1-14.6-8-3.2-16.7-4.6-25.3-4-11-.2-21.8,2.2-31.6,7.1-8.8,4.4-16,11.4-20.7,20.1l-.3-21.8h-35.8v169.1ZM2574.9,659.8c10.2-2.1,20-5.7,29.3-10.6l-4-30.1c-17.6,8.7-37,13.1-56.6,13.1-14.8.7-29.3-3.5-41.5-11.9-5.3-4-9.7-9.1-13.1-14.9-3.4-5.8-5.5-12.2-6.4-18.8h123.9c1-6.3,1.5-12.7,1.3-19.1.3-15.4-3.1-30.7-10-44.6-6.2-12.3-15.9-22.4-27.8-29.1-12.5-6.9-26.6-10.3-40.8-10.1-15.7-.3-31.2,3.8-44.6,11.9-12.7,7.8-23.1,18.9-29.8,32.3-7.2,14.3-10.8,30.2-10.5,46.2-.4,16.8,3.8,33.4,12,47.9,7.8,13.5,19.6,24.3,33.6,31,15.7,7.3,32.9,10.9,50.3,10.6,11.7,0,23.3-1.3,34.7-3.9M2482.3,557.5c1-12.1,6.2-23.5,14.7-32.1,8.4-7.8,19.6-11.9,31-11.4,5.6-.3,11.1.6,16.3,2.5,5.2,2,10,5,13.9,8.9,7.8,8.9,12.2,20.3,12.4,32.1h-88.3Z"/>
      <path d="M1034.4,242h-33.6c-4,.3-8-.3-11.7-1.7-3.7-1.5-7-3.8-9.7-6.7-5.1-7.9-7.5-17.2-6.8-26.6V19.9h-36.4v188c0,44.3,20.1,66.5,60.4,66.5h6.7l31.1-32.5Z"/>
      <path d="M102.1,279.6c-14.9.2-29.6-3.5-42.7-10.7-12.9-7.1-23.5-17.6-30.8-30.4-7.4-13.2-11.4-28.1-11.5-43.3-.1-15.2,3.6-30.2,10.7-43.5,7.2-12.9,17.7-23.7,30.4-31.2,13.3-7.9,28.5-12,44-11.8,14.9-.2,29.6,3.5,42.7,10.6,12.8,7.1,23.5,17.5,30.8,30.2,7.8,13.5,11.8,28.8,11.5,44.4.1,14.9-3.6,29.6-10.7,42.7-7.2,12.9-17.7,23.7-30.4,31.2-13.3,7.9-28.5,12-44,11.8ZM102.1,246.8c6.5.2,13.1-1,19.1-3.5,6-2.6,11.5-6.4,15.9-11.2,9.2-10.5,14-24.1,13.4-38,.6-13.9-4.3-27.5-13.6-37.9-4.4-4.8-9.8-8.6-15.8-11.1-6-2.5-12.5-3.7-19-3.5-6.5-.2-13,1-19,3.5-6,2.5-11.4,6.3-15.8,11.1-9.3,10.3-14.2,23.9-13.6,37.9-.6,13.9,4.3,27.6,13.4,38,4.4,4.9,9.8,8.7,15.9,11.2,6,2.6,12.6,3.8,19.1,3.5Z"/>
      <path d="M549.1,19.6h-36.4v254.8h36.4V19.6Z"/>
      <path d="M612.8,19.6h-36.4v254.8h36.4V19.6Z"/>
      <path d="M802.4,355.3c-13.9.9-27.9-1.2-41-6-13.1-4.8-25.1-12.2-35.2-21.9-9.5-10.5-16.8-22.9-21.4-36.3-4.7-13.4-6.6-27.6-5.8-41.8v-55.2h39.6v52c-1.5,19.7,4.3,39.3,16.3,55,6.2,6.4,13.8,11.4,22.1,14.6,8.3,3.2,17.3,4.5,26.2,3.9,8.9.6,17.9-.7,26.2-3.9,8.4-3.2,15.9-8.2,22.2-14.6,12.3-15.6,18.4-35.2,17.1-55V113.8h39.5v135.6c.9,14.2-1.1,28.5-5.8,41.9-4.7,13.4-12.1,25.8-21.7,36.2-10.4,9.7-22.6,17.1-35.9,21.9-13.3,4.8-27.5,6.8-41.6,5.9"/>
      <path d="M1112.4,279.6c-14.9.2-29.6-3.5-42.7-10.7-12.9-7.1-23.5-17.6-30.8-30.4-7.4-13.2-11.4-28.1-11.5-43.3-.1-15.2,3.6-30.2,10.7-43.5,7.2-12.9,17.7-23.7,30.4-31.2,13.3-7.9,28.5-12,44-11.8,14.9-.2,29.6,3.5,42.7,10.6,12.8,7.1,23.5,17.5,30.8,30.2,7.8,13.5,11.8,28.8,11.5,44.4.1,14.9-3.6,29.6-10.8,42.7-7.2,12.9-17.7,23.7-30.4,31.2-13.3,7.9-28.5,12-44,11.8ZM1112.4,246.8c6.5.2,13.1-1,19.1-3.5,6-2.6,11.5-6.4,15.9-11.2,9.2-10.5,14-24.1,13.4-38,.6-13.9-4.3-27.5-13.6-37.9-4.5-4.6-10-8.3-15.9-10.9-6-2.5-12.4-3.8-18.9-3.8s-12.9,1.3-18.9,3.8c-6,2.5-11.4,6.2-15.9,10.9-9.3,10.3-14.2,23.9-13.6,37.9-.6,13.9,4.3,27.6,13.4,38,4.4,4.9,9.8,8.7,15.9,11.2,6,2.6,12.6,3.8,19.1,3.5Z"/>
      <path d="M2449.7,242h-33.6c-4,.3-7.9-.3-11.7-1.7-3.7-1.5-7-3.8-9.7-6.7-5.2-7.9-7.5-17.2-6.8-26.6v-93.3h-36.4v94.2c0,44.3,20.1,66.5,60.4,66.5h5.1l32.6-32.5Z"/>
      <path d="M1588.2,242.2h-362.2c-4,.3-7.9-.3-11.7-1.7-3.7-1.5-7-3.7-9.7-6.7-5.2-7.9-7.5-17.2-6.8-26.6v-12.9h-36.4v13.8c0,44.3,20.2,66.5,60.5,66.5h366.3v-32.5Z"/>
      <path d="M1964.2,274.5h363c40.3,0,60.5-22.2,60.4-66.5v-94.2h-36.4v93.3c.8,9.4-1.6,18.7-6.8,26.6-2.7,3-6,5.3-9.7,6.7-3.7,1.5-7.7,2.1-11.7,1.7h-379.4l20.4,32.4Z"/>
      <path d="M2394.9,268.8l22.2,5.9c40.3,0,60.5-22.2,60.4-66.5v-14.1h-36.5v13.1c.8,9.4-1.6,18.7-6.8,26.6-2.7,3-6,5.3-9.7,6.7-3.7,1.5-7.7,2-11.7,1.7h-33.6l15.6,26.6Z"/>
      <path d="M978.7,263.6l24.5,11.1c40.3,0,60.4-22.2,60.4-66.5v-14.1h-36.4v13.1c.7,9.4-1.7,18.7-6.8,26.6-2.7,3-6,5.3-9.7,6.7-3.7,1.5-7.7,2-11.7,1.7h-33.6l13.2,21.4Z"/>
      <path d="M2526.4,279.6c-14.9.2-29.6-3.5-42.7-10.7-12.9-7.1-23.5-17.6-30.8-30.4-7.4-13.2-11.4-28.1-11.5-43.3-.1-15.2,3.6-30.2,10.7-43.5,7.2-12.9,17.7-23.7,30.4-31.2,13.3-7.9,28.5-12,44-11.8,14.9-.2,29.6,3.5,42.7,10.6,12.8,7.1,23.5,17.5,30.8,30.2,7.8,13.5,11.8,28.8,11.5,44.4.1,14.9-3.6,29.6-10.7,42.7-7.2,12.9-17.7,23.7-30.4,31.2-13.3,7.9-28.5,12-44,11.8ZM2526.4,246.8c6.5.2,13.1-1,19.1-3.5,6-2.6,11.4-6.4,15.9-11.2,9.2-10.5,14-24.1,13.4-38,.6-13.9-4.3-27.5-13.6-37.8-4.6-4.6-10-8.3-15.9-10.9-6-2.5-12.4-3.8-18.9-3.8s-12.9,1.3-18.9,3.8c-6,2.5-11.4,6.2-15.9,10.9-9.3,10.3-14.2,23.9-13.6,37.9-.5,13.9,4.3,27.6,13.4,38,4.4,4.9,9.8,8.7,15.9,11.2,6,2.6,12.6,3.8,19.1,3.5"/>
      <path d="M1946.8,242h-68.5c-4.4.6-8.9.1-13-1.3-4.2-1.5-8-3.9-11-7.1-5.2-7.8-7.6-17.2-6.8-26.6v-120.6h-36.4v121.6c0,44.3,20.2,66.5,60.5,66.5h104.5l-29.1-32.5Z"/>
      <path d="M1490.8,268.6c-12.9-6.4-23.6-16.5-30.9-29-7.6-13.6-11.5-29.1-11.1-44.7-.2-15.3,3.5-30.3,10.8-43.7,7.2-12.8,17.7-23.3,30.5-30.4,14.1-7.6,30-11.5,46-11.1,8.9,0,17.8,1.1,26.4,3.2,8.1,1.9,15.9,4.7,23.3,8.6l-4.7,31.2c-6.5-3.5-13.4-6.1-20.6-7.8-7.3-1.8-14.7-2.7-22.2-2.7-7-.3-14,.7-20.6,3.2-6.6,2.4-12.6,6.2-17.8,11-9.3,10.5-14.4,24-14.4,38.1,0,14,5.2,27.6,14.5,38,11,9.7,25.3,14.7,39.9,13.9,13.5,0-36,29.1-49.2,22.4"/>
      <path d="M1935.8,268.9c-12.9-7.1-23.5-17.6-30.8-30.4-7.4-13.2-11.4-28.1-11.5-43.3-.1-15.2,3.6-30.2,10.7-43.5,7.2-12.9,17.6-23.7,30.3-31.2,13.3-7.9,28.5-12,44-11.8,14.9-.2,29.6,3.5,42.7,10.7,12.8,7.1,23.5,17.5,30.8,30.2,7.8,13.5,11.8,28.8,11.5,44.4v65l-36.7-6.4v-58.6c.6-13.9-4.3-27.6-13.6-37.9-4.6-4.6-10-8.3-15.9-10.8s-12.4-3.8-18.9-3.8-12.9,1.3-18.8,3.8-11.4,6.2-15.9,10.8c-9.3,10.3-14.2,24-13.6,37.9-.6,13.9,4.3,27.6,13.4,38,4.7,4.2,10.3,7.3,16.3,9.1,6.1,1.8,12.4,2.2,18.6,1.2"/>
      <path d="M1847.3,109.6c0,16.1.3,68.8,1.2,85.3.1,14.9-3.6,29.6-10.8,42.7-7.1,12.9-17.6,23.7-30.3,31.2-13.3,7.9-28.5,12-44,11.8-14.9.2-29.6-3.5-42.7-10.7-12.9-7.1-23.5-17.6-30.8-30.4-7.4-13.2-11.4-28.1-11.5-43.3-.1-15.2,3.5-30.2,10.7-43.5,7.2-13,17.7-23.7,30.4-31.2,13.3-7.9,28.5-12,44-11.8h84.8-.9ZM1815.3,142.4h-52.9c-6.5-.2-13,1-19,3.5-6,2.5-11.4,6.3-15.8,11.1-9.3,10.3-14.2,23.9-13.6,37.9-.6,13.9,4.3,27.6,13.4,38,4.6,4.7,10,8.4,16,11,6,2.5,12.5,3.9,19,3.9s13-1.3,19-3.9c6-2.5,11.5-6.3,16-11,9.1-10.5,13.9-24.1,13.3-38"/>
      <path d="M549.1,243.9h-278.3v30.9h278.3v-30.9Z"/>
      <path d="M522,243.9H239.1v30.9h282.9v-30.9Z"/>
      <path d="M89.5,58.9c2.1-2.1,3.8-4.7,4.9-7.5,1.1-2.8,1.6-5.8,1.5-8.9.2-3.2-.2-6.3-1.3-9.3-1.1-3-2.9-5.6-5.1-7.9-2.2-2.1-4.7-3.7-7.5-4.8-2.8-1.1-5.8-1.6-8.8-1.5-3,0-6,.4-8.8,1.5-2.8,1.1-5.4,2.7-7.5,4.8-2.3,2.2-4,4.9-5.1,7.9-1.1,3-1.6,6.1-1.3,9.3,0,3,.4,6.1,1.6,8.9,1.1,2.8,2.8,5.4,4.9,7.5,2.1,2.1,4.7,3.8,7.5,4.9,2.8,1.1,5.8,1.7,8.8,1.6,3,0,6-.4,8.8-1.6,2.8-1.1,5.4-2.8,7.5-5"/>
      <path d="M147.8,58.9c2.1-2.1,3.8-4.7,4.9-7.5,1.1-2.8,1.6-5.8,1.5-8.9.2-3.2-.2-6.3-1.3-9.3-1.1-3-2.9-5.6-5.1-7.9-4.5-4.1-10.3-6.3-16.3-6.3s-11.8,2.3-16.3,6.3c-2.3,2.2-4,4.9-5.1,7.9-1.1,3-1.6,6.1-1.3,9.3,0,4.5,1.4,8.9,3.9,12.7,2.5,3.8,6.1,6.7,10.2,8.4,4.2,1.7,8.7,2.2,13.1,1.4,4.4-.8,8.5-3,11.7-6.1"/>
      <path d="M1749.6,58.9c2.1-2.1,3.8-4.7,4.9-7.5,1.1-2.8,1.6-5.8,1.5-8.9.2-3.2-.2-6.3-1.3-9.3-1.1-3-2.9-5.6-5.1-7.9-4.5-4.1-10.3-6.3-16.3-6.3s-11.8,2.3-16.3,6.3c-2.3,2.2-4,4.9-5.1,7.9-1.1,3-1.6,6.1-1.3,9.3,0,4.5,1.4,8.9,3.9,12.7,2.5,3.8,6.1,6.7,10.2,8.4,4.1,1.7,8.7,2.2,13.1,1.4,4.4-.8,8.5-3,11.7-6.1"/>
      <path d="M1807.9,58.9c2.1-2.1,3.8-4.7,4.9-7.5,1.1-2.8,1.6-5.8,1.5-8.9.2-3.2-.2-6.3-1.3-9.3-1.1-3-2.9-5.6-5.1-7.9-4.5-4.1-10.3-6.3-16.3-6.3s-11.8,2.3-16.3,6.3c-2.3,2.2-4,4.9-5.1,7.9-1.1,3-1.6,6.1-1.3,9.3,0,4.5,1.4,8.9,3.9,12.7,2.5,3.8,6.1,6.7,10.2,8.4,4.2,1.7,8.7,2.2,13.1,1.4,4.4-.8,8.5-3,11.7-6.1"/>
      <path d="M1966.5,58.9c2.1-2.1,3.8-4.7,4.9-7.5,1.1-2.8,1.6-5.8,1.5-8.9.2-3.2-.2-6.3-1.3-9.3-1.1-3-2.9-5.6-5.1-7.9-4.5-4.1-10.3-6.3-16.3-6.3s-11.8,2.3-16.3,6.3c-2.3,2.2-4,4.9-5.1,7.9-1.1,3-1.6,6.1-1.3,9.3,0,4.5,1.4,8.9,3.9,12.7,2.5,3.8,6.1,6.7,10.2,8.4,4.2,1.7,8.7,2.2,13.2,1.4,4.4-.8,8.5-3,11.7-6.1"/>
      <path d="M2024.9,58.9c2.1-2.1,3.8-4.7,4.9-7.5,1.1-2.8,1.6-5.8,1.5-8.9.2-3.2-.2-6.3-1.3-9.3-1.1-3-2.9-5.6-5.1-7.9-4.5-4.1-10.3-6.3-16.3-6.3s-11.8,2.3-16.3,6.3c-2.3,2.2-4,4.9-5.1,7.9-1.1,3-1.6,6.1-1.3,9.3,0,4.5,1.4,8.9,3.9,12.7,2.5,3.8,6.1,6.7,10.2,8.4,4.2,1.7,8.7,2.2,13.2,1.4,4.4-.8,8.5-3,11.7-6.1"/>
      <path d="M815.2,144.4c2.1-2.1,3.8-4.7,4.9-7.5,1.1-2.8,1.6-5.8,1.6-8.9.2-3.2-.2-6.3-1.3-9.3-1.1-3-2.9-5.6-5.1-7.9-4.5-4.1-10.3-6.3-16.3-6.3s-11.8,2.3-16.3,6.3c-2.3,2.2-4,4.9-5.1,7.9-1.1,3-1.6,6.1-1.3,9.3,0,4.5,1.4,8.9,3.9,12.7s6.1,6.7,10.2,8.4c4.2,1.7,8.7,2.2,13.1,1.4,4.4-.8,8.5-3,11.7-6.1"/>
      <path d="M1317.6,349.2c2.1-2.1,3.8-4.7,4.9-7.5,1.1-2.8,1.7-5.8,1.6-8.9.2-3.2-.2-6.3-1.3-9.3-1.1-3-2.9-5.6-5.1-7.9-4.5-4.1-10.3-6.3-16.3-6.3s-11.8,2.3-16.3,6.3c-2.3,2.2-4,4.9-5.1,7.9-1.1,3-1.6,6.1-1.3,9.3,0,4.5,1.4,8.9,3.9,12.7,2.5,3.8,6.1,6.7,10.2,8.4,4.2,1.7,8.7,2.2,13.1,1.4,4.4-.8,8.5-3,11.7-6.1"/>
      <path d="M1414.6,249c1.5-8.1,2.3-16.4,2.2-24.7.3-20.5-4.7-40.7-14.6-58.7-9.7-17.3-24.1-31.5-41.5-41-19-10.6-40.4-16.1-62.1-16-12.2,0-24.3,1.7-36.1,4.9-11.1,2.8-21.7,7.2-31.6,13.1l6.1,31.3c10.5-5.2,21.4-9.5,32.7-12.7,9.7-2.7,19.8-4,29.9-4,14.3-.3,28.4,3.1,41,9.8,12,6.5,21.8,16.3,28.4,28.3,7.1,13.2,10.7,27.9,10.4,42.9,0,7.8-.8,15.7-2.6,23.3l37.8,3.4Z"/>
      <path d="M474.6,249c1.5-8.1,2.3-16.4,2.2-24.7.3-20.5-4.7-40.7-14.6-58.7-9.7-17.3-24.1-31.5-41.5-41-19-10.6-40.4-16.1-62.1-16-12.2,0-24.4,1.7-36.1,4.9-11.1,2.8-21.7,7.2-31.6,13.1l6,31.3c10.5-5.2,21.4-9.5,32.7-12.7,9.7-2.7,19.8-4,29.9-4,14.3-.3,28.4,3.1,41,9.8,12,6.5,21.8,16.3,28.4,28.3,7.1,13.2,10.7,27.9,10.4,42.9,0,7.8-.8,15.7-2.6,23.3l37.8,3.4Z"/>
      <path d="M2369.5,65.5c-3,0-6-.4-8.8-1.6-2.8-1.1-5.3-2.8-7.5-4.9-2.1-2.1-3.8-4.7-4.9-7.5-1.1-2.8-1.7-5.8-1.6-8.9-.2-3.2.2-6.3,1.3-9.3,1.1-3,2.9-5.6,5.1-7.9,4.5-4.1,10.3-6.4,16.3-6.4s11.9,2.3,16.3,6.4c2.3,2.2,4,4.9,5.2,7.8,1.1,3,1.6,6.1,1.4,9.3,0,3-.5,6-1.6,8.9-1.1,2.8-2.8,5.4-4.9,7.5-2.1,2.1-4.7,3.8-7.5,4.9-2.8,1.1-5.8,1.7-8.8,1.6"/>
      <path d="M2306.1,246.7v-54.9c1.2-22.1-5.8-43.8-19.7-60.9-7-7.5-15.5-13.3-24.9-17.2-9.5-3.8-19.6-5.5-29.8-5-20.3-.4-40.2,5.3-57.2,16.4-15.7,10.8-29.1,24.8-39.3,40.9l.8,76.1c.2-16.6,4.6-32.9,12.8-47.3,5.6-9.5,12.3-18.2,20-26.1,7.5-7.7,16.2-14.3,25.6-19.4,9.4-5.1,19.9-7.7,30.6-7.6,7.9-.2,15.8,1.3,23,4.5,6.2,2.6,11.6,6.7,15.9,11.9,6.3,12.5,8.7,26.6,6.8,40.4v45.2"/>
      <path d="M2135.9,19.9h-36.4v230.2h36.4V19.9Z"/>
      <path d="M326.4,425.9c.1-3.2-.4-6.4-1.6-9.3-1.2-3-3-5.7-5.2-7.9-4.7-4.3-10.8-6.7-17.2-6.7s-12.5,2.4-17.2,6.7c-2.3,2.2-4.1,4.9-5.2,7.9-1.2,3-1.7,6.1-1.6,9.3,0,3.2.5,6.4,1.7,9.4,1.2,3,2.9,5.7,5.2,8,2.2,2.3,4.9,4.1,7.9,5.4,2.9,1.2,6.1,1.9,9.3,1.9s6.4-.6,9.3-1.9c2.9-1.3,5.6-3.1,7.9-5.4,2.2-2.3,4-5,5.2-8,1.2-3,1.7-6.2,1.7-9.4ZM283.4,672.4c.8,9.9-1.7,19.7-7.1,27.9-2.8,3.1-6.3,5.6-10.2,7.1-3.9,1.6-8.1,2.2-12.3,1.8-5.8,0-11.5-.6-17.1-2l13.3,35.8c2.4,1,4.7.4,7.2.4,42.4,0,63.6-23.3,63.6-70v-184.3h-37.4v183.3Z"/>
      <path d="M216.8,284.4c.8,9.9-1.7,19.7-7.1,27.9-2.8,3.1-6.3,5.6-10.2,7.1-3.9,1.6-8.1,2.2-12.3,1.8-5.8,0-11.5-.7-17.1-2.1l13.3,35.8c2.4,1.1,4.7.4,7.2.4,42.4,0,63.6-23.3,63.6-70V113.8h-37.4v170.5Z"/>
    </g>
  </g>
</svg>