<?xml version="1.0" encoding="UTF-8"?>
<svg id="Layer_2" data-name="Layer 2" xmlns="http://www.w3.org/2000/svg" viewBox="0 0 224.66 80.78">
  <defs>
    <style>
      .cls-1 {
        fill: #040304;
      }
    </style>
  </defs>
  <g id="Layer_1-2" data-name="Layer 1">
    <g>
      <path class="cls-1" d="m37.89,55.33v-.13c2.66-.25,11.91-1.2,11.91-9.81,0-5.76-5.01-9.81-11.78-9.81-3.94,0-7.94,1.61-9.47,5.05h.15c.58,0,1.14-.26,1.47-.74.92-1.36,3.58-3.29,7.22-3.29,5.38,0,7.09,4.12,7.09,8.87,0,7.47-4.5,9.31-11.34,9.31h-5.32v1.01h5.38c3.48,0,12.72,0,12.72,11.59,0,7.03-2.53,12.42-10.26,12.42-3.97,0-6.69-1.41-8.06-2.89-.39-.42-.92-.68-1.49-.68h-.19c1.79,2.76,5.35,4.58,9.87,4.58,7.41,0,15.83-4.37,15.83-13.17,0-3.42-1.39-11.27-13.74-12.29"/>
      <path class="cls-1" d="m6.14,41.35c0-12.72,7.6-12.79,12.85-12.79v7.84c2.44,0,4.42-1.98,4.42-4.42V0c-2.44,0-4.42,1.98-4.42,4.42v23.12h-4.47C0,27.67,0,40.64,0,41.73c0,5.75,2.82,14.19,15.21,14.19h8.18v-1.02h-4.41c-6.52,0-12.85,0-12.85-13.55"/>
      <path class="cls-1" d="m65.91,41.56c-.05-2.27-1.53-4.55-4.73-4.55h-3.22v9.32h3.22c1.4,0,2.59-.46,3.44-1.32.82-.84,1.29-2.05,1.29-3.33,0-.04,0-.08,0-.12m-4.73,3.7h-2.13v-7.2h2.13c2.46,0,3.59,1.76,3.63,3.51.02,1.04-.34,2.01-1,2.68-.65.66-1.55,1.01-2.63,1.01"/>
      <path class="cls-1" d="m74.69,37v5.74c0,2.43-1.82,3.71-3.62,3.71-.94,0-1.83-.33-2.48-.93-.74-.68-1.13-1.64-1.13-2.78v-5.74h1.08v5.74c0,.83.27,1.52.79,2,.46.43,1.08.66,1.74.66,1.22,0,2.54-.83,2.54-2.67v-5.74h1.08Z"/>
      <path class="cls-1" d="m82.81,41.53c.7-.39,1.11-1.08,1.11-1.9,0-1.95-1.69-2.64-3.13-2.64h-3.86v9.32h3.86c2.18,0,3.44-.92,3.44-2.53,0-.99-.54-1.83-1.42-2.26m-2.02-3.54c.96,0,2.08.43,2.08,1.64s-1.08,1.4-1.99,1.4h-2.85v-3.04h2.77Zm0,7.26h-2.77v-3.16h2.85c.53,0,2.25.12,2.27,1.68,0,.98-.79,1.48-2.36,1.48"/>
      <path class="cls-1" d="m90.19,37h-1.02l-4.18,9.33h1.19l.97-2.19h5.06l.98,2.19h1.19l-4.18-9.33Zm-2.6,6.09l2.08-4.72,2.08,4.72h-4.16Z"/>
      <rect class="cls-1" x="95.92" y="37" width="1.08" height="9.33"/>
      <path class="cls-1" d="m112.65,41.61c-.05-2.27-1.53-4.55-4.73-4.55h-3.22v9.32h3.22c1.4,0,2.59-.46,3.44-1.32.82-.84,1.29-2.05,1.29-3.33,0-.04,0-.08,0-.12m-4.73,3.7h-2.13v-7.2h2.13c2.46,0,3.59,1.76,3.63,3.51.02,1.04-.34,2.01-1,2.68-.65.66-1.55,1.01-2.63,1.01"/>
      <polygon class="cls-1" points="121.68 45.31 121.68 46.38 114.96 46.38 114.96 37.06 121.52 37.06 121.52 38.11 116.05 38.11 116.05 41.17 121.27 41.17 121.27 42.2 116.05 42.2 116.05 45.31 121.68 45.31"/>
      <path class="cls-1" d="m130.81,43.82c-.02,2.51-2.86,2.7-3.73,2.7-1.35,0-3.08-.54-3.84-2.05l-.09-.18.98-.49.09.18c.5.99,1.82,1.51,2.86,1.51.79,0,2.64-.16,2.64-1.68.01-1.1-1.09-1.39-2.77-1.71-1.62-.32-3.46-.68-3.46-2.49-.01-.66.2-1.22.64-1.66.62-.63,1.72-1.01,2.96-1.01,1.41,0,2.54.27,3.43,1.6l.12.18-.92.54-.11-.17c-.6-.96-1.57-1.1-2.53-1.11-.25,0-2.49.05-2.49,1.6,0,.93,1.01,1.19,2.56,1.48l.1.02c1.68.32,3.57.69,3.57,2.74"/>
      <rect class="cls-1" x="133.12" y="37.06" width="1.08" height="9.33"/>
      <path class="cls-1" d="m144.88,41.31v3.63l-.06.06c-.99,1-2.18,1.5-3.51,1.5-3.32,0-4.8-2.39-4.8-4.75,0-1.4.45-2.6,1.32-3.48.87-.88,2.08-1.34,3.49-1.34,1.28,0,2.49.49,3.4,1.4l.14.14-.67.74-.15-.15c-.69-.68-1.71-1.09-2.72-1.09-1.09,0-2.02.35-2.68,1.02-.68.69-1.06,1.66-1.05,2.75,0,1.71.98,3.71,3.73,3.71.94,0,1.83-.33,2.51-.92v-2.2h-3.11v-1.01h4.17Z"/>
      <polygon class="cls-1" points="154.56 37.06 154.56 46.38 153.99 46.38 148.28 39.39 148.28 46.38 147.18 46.38 147.18 37.06 147.78 37.06 153.48 44.06 153.48 37.06 154.56 37.06"/>
      <path class="cls-1" d="m170.22,41.61c-.05-2.27-1.53-4.56-4.73-4.56h-3.22v9.32h3.22c1.4,0,2.59-.46,3.44-1.32.82-.84,1.29-2.05,1.29-3.33,0-.04,0-.08,0-.12m-4.73,3.7h-2.13v-7.2h2.13c2.46,0,3.59,1.76,3.63,3.51.02,1.03-.34,2.01-1,2.68-.64.66-1.55,1.01-2.63,1.01"/>
      <rect class="cls-1" x="172.49" y="37.06" width="1.08" height="9.33"/>
      <path class="cls-1" d="m183.51,43.82c-.02,2.51-2.86,2.7-3.73,2.7-1.35,0-3.07-.54-3.84-2.05l-.09-.18.98-.49.09.18c.5.99,1.82,1.51,2.86,1.51.79,0,2.64-.16,2.64-1.68,0-1.1-1.09-1.39-2.77-1.71-1.62-.32-3.47-.68-3.47-2.49-.01-.66.2-1.22.64-1.66.62-.63,1.73-1.01,2.96-1.01,1.41,0,2.54.27,3.43,1.6l.12.18-.92.54-.11-.17c-.6-.96-1.57-1.1-2.53-1.11-.25,0-2.49.05-2.49,1.6,0,.93,1.01,1.19,2.56,1.48l.1.02c1.68.32,3.57.68,3.57,2.74"/>
      <polygon class="cls-1" points="191.93 37.07 191.93 38.09 188.7 38.09 188.7 46.38 187.61 46.38 187.61 38.09 184.38 38.09 184.38 37.07 191.93 37.07"/>
      <path class="cls-1" d="m198.21,42.95c.76-.08,1.39-.36,1.86-.83.52-.52.8-1.26.79-2.08-.01-1.43-1-2.98-3.13-2.98h-4.13v9.33h1.1v-3.38h2.14l3.08,3.38h1.46l-3.17-3.44Zm-3.51-4.84h3.03c.59,0,1.09.19,1.44.55.35.35.54.85.53,1.37,0,.88-.37,1.93-2.05,1.93h-2.96v-3.85Z"/>
      <rect class="cls-1" x="203.69" y="37.06" width="1.08" height="9.33"/>
      <path class="cls-1" d="m214.7,44.23l.75.71-.15.15c-.9.9-2.11,1.4-3.39,1.4-3.29,0-4.78-2.37-4.79-4.71-.02-1.37.46-2.6,1.33-3.49.86-.87,2.06-1.33,3.46-1.33,1.29,0,2.49.5,3.39,1.4l.16.15-.78.68-.14-.13c-.69-.69-1.63-1.07-2.63-1.07-1.1,0-2.03.35-2.69,1.01-.67.68-1.04,1.65-1.03,2.76.02,1.7,1.01,3.7,3.72,3.7.99,0,1.95-.39,2.65-1.08l.14-.14Z"/>
      <polygon class="cls-1" points="224.66 37.07 224.66 38.09 221.44 38.09 221.44 46.38 220.35 46.38 220.35 38.09 217.12 38.09 217.12 37.07 224.66 37.07"/>
      <path class="cls-1" d="m37.89,55.33v-.13c2.66-.25,11.91-1.2,11.91-9.81,0-5.76-5.01-9.81-11.78-9.81-3.94,0-7.94,1.61-9.47,5.05h.15c.58,0,1.14-.26,1.47-.74.92-1.36,3.58-3.29,7.22-3.29,5.38,0,7.09,4.12,7.09,8.87,0,7.47-4.5,9.31-11.34,9.31h-5.32v1.01h5.38c3.48,0,12.72,0,12.72,11.59,0,7.03-2.53,12.42-10.26,12.42-3.97,0-6.69-1.41-8.06-2.89-.39-.42-.92-.68-1.49-.68h-.19c1.79,2.76,5.35,4.58,9.87,4.58,7.41,0,15.83-4.37,15.83-13.17,0-3.42-1.39-11.27-13.74-12.29"/>
      <path class="cls-1" d="m6.14,41.35c0-12.72,7.6-12.79,12.85-12.79v7.84c2.44,0,4.42-1.98,4.42-4.42V0c-2.44,0-4.42,1.98-4.42,4.42v23.12h-4.47C0,27.67,0,40.64,0,41.73c0,5.75,2.82,14.19,15.21,14.19h8.18v-1.02h-4.41c-6.52,0-12.85,0-12.85-13.55"/>
      <path class="cls-1" d="m65.91,41.56c-.05-2.27-1.53-4.55-4.73-4.55h-3.22v9.32h3.22c1.4,0,2.59-.46,3.44-1.32.82-.84,1.29-2.05,1.29-3.33,0-.04,0-.08,0-.12m-4.73,3.7h-2.13v-7.2h2.13c2.46,0,3.59,1.76,3.63,3.51.02,1.04-.34,2.01-1,2.68-.65.66-1.55,1.01-2.63,1.01"/>
      <path class="cls-1" d="m74.69,37v5.74c0,2.43-1.82,3.71-3.62,3.71-.94,0-1.83-.33-2.48-.93-.74-.68-1.13-1.64-1.13-2.78v-5.74h1.08v5.74c0,.83.27,1.52.79,2,.46.43,1.08.66,1.74.66,1.22,0,2.54-.83,2.54-2.67v-5.74h1.08Z"/>
      <path class="cls-1" d="m82.81,41.53c.7-.39,1.11-1.08,1.11-1.9,0-1.95-1.69-2.64-3.13-2.64h-3.86v9.32h3.86c2.18,0,3.44-.92,3.44-2.53,0-.99-.54-1.83-1.42-2.26m-2.02-3.54c.96,0,2.08.43,2.08,1.64s-1.08,1.4-1.99,1.4h-2.85v-3.04h2.77Zm0,7.26h-2.77v-3.16h2.85c.53,0,2.25.12,2.27,1.68,0,.98-.79,1.48-2.36,1.48"/>
      <path class="cls-1" d="m90.19,37h-1.02l-4.18,9.33h1.19l.97-2.19h5.06l.98,2.19h1.19l-4.18-9.33Zm-2.6,6.09l2.08-4.72,2.08,4.72h-4.16Z"/>
      <rect class="cls-1" x="95.92" y="37" width="1.08" height="9.33"/>
      <path class="cls-1" d="m112.65,41.61c-.05-2.27-1.53-4.55-4.73-4.55h-3.22v9.32h3.22c1.4,0,2.59-.46,3.44-1.32.82-.84,1.29-2.05,1.29-3.33,0-.04,0-.08,0-.12m-4.73,3.7h-2.13v-7.2h2.13c2.46,0,3.59,1.76,3.63,3.51.02,1.04-.34,2.01-1,2.68-.65.66-1.55,1.01-2.63,1.01"/>
      <polygon class="cls-1" points="121.68 45.31 121.68 46.38 114.96 46.38 114.96 37.06 121.52 37.06 121.52 38.11 116.05 38.11 116.05 41.17 121.27 41.17 121.27 42.2 116.05 42.2 116.05 45.31 121.68 45.31"/>
      <path class="cls-1" d="m130.81,43.82c-.02,2.51-2.86,2.7-3.73,2.7-1.35,0-3.08-.54-3.84-2.05l-.09-.18.98-.49.09.18c.5.99,1.82,1.51,2.86,1.51.79,0,2.64-.16,2.64-1.68.01-1.1-1.09-1.39-2.77-1.71-1.62-.32-3.46-.68-3.46-2.49-.01-.66.2-1.22.64-1.66.62-.63,1.72-1.01,2.96-1.01,1.41,0,2.54.27,3.43,1.6l.12.18-.92.54-.11-.17c-.6-.96-1.57-1.1-2.53-1.11-.25,0-2.49.05-2.49,1.6,0,.93,1.01,1.19,2.56,1.48l.1.02c1.68.32,3.57.69,3.57,2.74"/>
      <rect class="cls-1" x="133.12" y="37.06" width="1.08" height="9.33"/>
      <path class="cls-1" d="m144.88,41.31v3.63l-.06.06c-.99,1-2.18,1.5-3.51,1.5-3.32,0-4.8-2.39-4.8-4.75,0-1.4.45-2.6,1.32-3.48.87-.88,2.08-1.34,3.49-1.34,1.28,0,2.49.49,3.4,1.4l.14.14-.67.74-.15-.15c-.69-.68-1.71-1.09-2.72-1.09-1.09,0-2.02.35-2.68,1.02-.68.69-1.06,1.66-1.05,2.75,0,1.71.98,3.71,3.73,3.71.94,0,1.83-.33,2.51-.92v-2.2h-3.11v-1.01h4.17Z"/>
      <polygon class="cls-1" points="154.56 37.06 154.56 46.38 153.99 46.38 148.28 39.39 148.28 46.38 147.18 46.38 147.18 37.06 147.78 37.06 153.48 44.06 153.48 37.06 154.56 37.06"/>
      <path class="cls-1" d="m170.22,41.61c-.05-2.27-1.53-4.56-4.73-4.56h-3.22v9.32h3.22c1.4,0,2.59-.46,3.44-1.32.82-.84,1.29-2.05,1.29-3.33,0-.04,0-.08,0-.12m-4.73,3.7h-2.13v-7.2h2.13c2.46,0,3.59,1.76,3.63,3.51.02,1.03-.34,2.01-1,2.68-.64.66-1.55,1.01-2.63,1.01"/>
      <rect class="cls-1" x="172.49" y="37.06" width="1.08" height="9.33"/>
      <path class="cls-1" d="m183.51,43.82c-.02,2.51-2.86,2.7-3.73,2.7-1.35,0-3.07-.54-3.84-2.05l-.09-.18.98-.49.09.18c.5.99,1.82,1.51,2.86,1.51.79,0,2.64-.16,2.64-1.68,0-1.1-1.09-1.39-2.77-1.71-1.62-.32-3.47-.68-3.47-2.49-.01-.66.2-1.22.64-1.66.62-.63,1.73-1.01,2.96-1.01,1.41,0,2.54.27,3.43,1.6l.12.18-.92.54-.11-.17c-.6-.96-1.57-1.1-2.53-1.11-.25,0-2.49.05-2.49,1.6,0,.93,1.01,1.19,2.56,1.48l.1.02c1.68.32,3.57.68,3.57,2.74"/>
      <polygon class="cls-1" points="191.93 37.07 191.93 38.09 188.7 38.09 188.7 46.38 187.61 46.38 187.61 38.09 184.38 38.09 184.38 37.07 191.93 37.07"/>
      <path class="cls-1" d="m198.21,42.95c.76-.08,1.39-.36,1.86-.83.52-.52.8-1.26.79-2.08-.01-1.43-1-2.98-3.13-2.98h-4.13v9.33h1.1v-3.38h2.14l3.08,3.38h1.46l-3.17-3.44Zm-3.51-4.84h3.03c.59,0,1.09.19,1.44.55.35.35.54.85.53,1.37,0,.88-.37,1.93-2.05,1.93h-2.96v-3.85Z"/>
      <rect class="cls-1" x="203.69" y="37.06" width="1.08" height="9.33"/>
      <path class="cls-1" d="m214.7,44.23l.75.71-.15.15c-.9.9-2.11,1.4-3.39,1.4-3.29,0-4.78-2.37-4.79-4.71-.02-1.37.46-2.6,1.33-3.49.86-.87,2.06-1.33,3.46-1.33,1.29,0,2.49.5,3.39,1.4l.16.15-.78.68-.14-.13c-.69-.69-1.63-1.07-2.63-1.07-1.1,0-2.03.35-2.69,1.01-.67.68-1.04,1.65-1.03,2.76.02,1.7,1.01,3.7,3.72,3.7.99,0,1.95-.39,2.65-1.08l.14-.14Z"/>
      <polygon class="cls-1" points="224.66 37.07 224.66 38.09 221.44 38.09 221.44 46.38 220.35 46.38 220.35 38.09 217.12 38.09 217.12 37.07 224.66 37.07"/>
    </g>
  </g>
</svg>