<svg version="1.1" xmlns="http://www.w3.org/2000/svg" xmlns:xlink="http://www.w3.org/1999/xlink" width="188.328" height="169.495" viewBox="0,0,256,230.3875"><g transform="translate(38.4,34.55812) scale(0.7,0.7)"><g fill="none" fill-rule="nonzero" stroke="none" stroke-width="1" stroke-linecap="butt" stroke-linejoin="miter" stroke-miterlimit="10" stroke-dasharray="" stroke-dashoffset="0" font-family="none" font-weight="none" font-size="none" text-anchor="none" style="mix-blend-mode: normal"><g transform="translate(-0.00136,-0.00476) scale(1.35933,1.35933)"><g transform="translate(-132,0)"><path transform="translate(65.101,-35.313)" d="M66.9,35.312v131.828l94.164,37.667l94.164,-37.667v-131.828z" fill="#008b95"></path><path transform="translate(96.375,-29.789)" d="M183.723,50.386c0,1.744 0.015,3.439 0,5.134c-0.012,0.965 -0.4,1.344 -1.351,1.389c-0.125,0 -0.251,0 -0.379,0h-8.476v-6.97c-1.533,0 -3,-0.08 -4.451,0.022c-1.3654,0.10748 -2.4786,1.13795 -2.691,2.491c-0.10397,0.5832 -0.15484,1.17462 -0.152,1.767c-0.022,0.881 -0.007,1.763 -0.007,2.591c-0.984,0 -1.934,0.026 -2.868,0.019c-0.314,0 -0.624,-0.008 -0.932,-0.015c-0.154,-0.008 -8.218,-0.011 -8.374,-0.023c-0.86978,-0.02777 -1.58547,-0.6935 -1.676,-1.559c-0.08068,-0.47895 -0.12481,-0.96335 -0.132,-1.449c-0.019,-0.436 0,-0.87 0,-1.3h-2.638c-0.0483,1.02661 -0.04195,2.05506 0.019,3.081c0.00611,2.26168 1.80722,4.10973 4.068,4.174c0.236,0.03 8.379,0.05 8.618,0.068c0.367,0.023 0.737,0.034 1.108,0.039c0.345,0 0.692,0 1.037,0.007c0.507,0.008 1.014,0.008 1.526,0.008c0.957,0 1.926,0 2.925,0v-5.391c0,-1.518 0.152,-1.661 1.687,-1.609c0.10143,0.01251 0.20174,0.0329 0.3,0.061v6.929c0.8,0 1.585,0.015 2.357,0.018c0.265,0 0.527,0 0.787,0c0.356,0 8.616,-0.012 8.972,-0.028c1.55811,0.04424 2.90676,-1.07536 3.15,-2.615c0.17392,-0.95501 0.25729,-1.92431 0.249,-2.895c0.037,-1.309 0.011,-2.619 0.011,-3.942z" fill="#ffffff"></path><path transform="translate(107.125,-29.797)" d="M194.328,53.038c-0.03187,-1.13584 -0.71113,-2.15318 -1.748,-2.618c-2.20674,-0.93653 -4.74818,-0.59902 -6.634,0.881c0.481,0.75 0.947,1.476 1.416,2.214c0.806,-0.59842 1.80604,-0.87508 2.805,-0.776c0.73891,-0.051 1.38368,0.49658 1.453,1.234c0.079,0.962 0.018,1.934 0.018,2.957h-13.675v2.895h16.389c0,-2.294 0.052,-4.542 -0.023,-6.786" fill="#ffffff"></path><path transform="translate(70.271,-29.268)" d="M102.049,55.132c-0.008,0.983 -0.334,1.308 -1.294,1.312c-1.314,0.008 -12.911,0.015 -14.225,0c-0.2,0 -0.39,0 -0.583,-0.008c-1.921,-0.026 -2.689,-0.809 -2.709,-2.72c-0.008,-0.568 0,-1.132 0,-1.7h-2.638c-0.0486,1.02159 -0.04259,2.04505 0.018,3.066c0.273,2.55 1.548,3.95 4.052,4.17c0.444,0.039 0.882,0.069 1.325,0.1c0.284,0.01533 0.568,0.02667 0.852,0.034c1.238,0.041 12.764,0.033 14,0l0.718,-0.03c0.79081,0.02777 1.55949,-0.26409 2.13259,-0.80972c0.5731,-0.54563 0.90233,-1.29906 0.91341,-2.09028c0.16,-1.468 0.088,-2.962 0.114,-4.447c0,-0.241 0,-0.484 0,-0.711h-2.671c0,1.305 0.007,2.578 0,3.846" fill="#ffffff"></path><rect x="236.83" y="15.101" width="2.585" height="14.989" fill="#ffffff"></rect><rect x="198.781" y="18.711" width="2.153" height="1.934" fill="#ffffff"></rect><path transform="translate(70.271,-23.385)" d="M90.507,92.9v-18.567h3.213c5.305,0 8.007,3.417 8.007,9.128c0,7.042 -3.622,9.436 -9.18,9.436zM111.52,83.516c0,-9.128 -5.866,-16.677 -18.054,-16.677h-12.9v33.61h13.718c11.628,0 17.237,-8.007 17.237,-16.933" fill="#ffffff"></path><path transform="translate(80.092,-23.385)" d="M121.769,101.057c10.3,0 15.2,-6.221 15.2,-14.587v-19.635h-9.995v20.35c0,2.8 -1.582,5.763 -5.154,5.763c-3.621,0 -5.253,-3.061 -5.253,-6.069v-20.044h-10.048v19.942c0,8.263 4.542,14.28 15.25,14.28" fill="#ffffff"></path><path transform="translate(90.165,-23.399)" d="M148.24,92.963h-5.355v-6.63h5.1c2.5,0 4.079,1.275 4.079,3.261c0,1.378 -0.666,3.369 -3.825,3.369M142.83,74.092h4.132c2.09,0 3.263,1.221 3.263,2.906c0,2.3 -2.09,2.91 -3.365,2.91h-4.03zM161.6,90.514c0.03643,-3.5994 -2.15649,-6.84639 -5.509,-8.157v-0.205c2.16724,-1.58304 3.45514,-4.10022 3.471,-6.784c0,-4.742 -3.724,-8.568 -9.793,-8.568h-16.628v33.66h17.751c6.528,0 10.709,-4.742 10.709,-9.945" fill="#ffffff"></path><path transform="translate(98.435,-23.609)" d="M172.086,83.788h0.2l2.857,6.682h-6.017zM166.269,96.9h11.678l1.635,3.773h9.789l-16.419,-34.429h-1.173l-16.779,34.425h9.588z" fill="#ffffff"></path><rect x="291.499" y="43.451" width="9.998" height="33.611" fill="#ffffff"></rect><path transform="translate(70.27,-11.733)" d="M89.851,106.458c0,-1.563 1.609,-2.116 3.633,-2.116c2.91823,0.14912 5.75733,1.00057 8.276,2.482v-7.224c-3.09509,-1.26923 -6.40297,-1.93943 -9.748,-1.975c-7.5,0 -11.175,4.185 -11.175,8.829c0,9.2 13.842,9.013 13.842,13.707c0,1.7 -1.748,2.387 -4,2.387c-3.62858,-0.18379 -7.13366,-1.37766 -10.12,-3.447v7.773c3.176,1.793 7.773,2.482 11.27,2.482c8.642,0 11.864,-4.919 11.864,-9.2c0,-10.3 -13.843,-10.21 -13.843,-13.707" fill="#ffffff"></path><path transform="translate(77.455,-11.696)" d="M116.333,122.1c-4.688,0 -7.773,-3.683 -7.773,-8.6c0,-4.688 3.085,-8.415 7.773,-8.415c4.828,0 7.682,3.773 7.682,8.415c0,4.828 -2.944,8.6 -7.682,8.6M116.288,97.726c-9.842,0 -16.736,6.988 -16.736,15.771c0,8.924 6.481,15.727 16.645,15.727c9.839,0 16.692,-6.8 16.692,-15.727c0,-8.783 -6.622,-15.771 -16.6,-15.771" fill="#ffffff"></path><path transform="translate(87.608,-11.519)" d="M144.824,116.545c0,2.528 -1.427,5.2 -4.642,5.2c-3.265,0 -4.737,-2.758 -4.737,-5.472v-18.078h-9.06v17.982c0,7.447 4.1,12.874 13.748,12.874c9.29,0 13.707,-5.609 13.707,-13.15v-17.706h-9.015z" fill="#ffffff"></path><path transform="translate(96.153,-11.532)" d="M148.967,104.969h8.23v23.545h9.014v-23.545h8.28v-6.808h-25.524z" fill="#ffffff"></path><path transform="translate(104.168,-11.519)" d="M188.267,109.416h-9.1v-11.216h-9.014v30.3h9.014v-12.23h9.1v12.23h9.059v-30.3h-9.059z" fill="#ffffff"></path><rect x="258.967" y="31.652" width="2.043" height="2.043" fill="#ffffff"></rect><rect x="261.514" y="31.652" width="2.047" height="2.043" fill="#ffffff"></rect><rect x="279.973" y="31.652" width="2.043" height="2.043" fill="#ffffff"></rect><path transform="translate(77.531,-31.16)" d="M106.229,58.345c-0.744,0 -1.422,0.03 -2.1,-0.007c-0.77238,0.00852 -1.44279,-0.53075 -1.6,-1.287c-0.27644,-0.84718 -0.01096,-1.77736 0.671,-2.351c0.60595,-0.49818 1.45124,-0.58523 2.146,-0.221c0.54985,0.30645 0.88535,0.89166 0.872,1.521c0.05,0.753 0.011,1.513 0.011,2.342M156.937,46.283h-2.63v0.8c0,3.311 0,6.619 -0.019,9.93c0.09033,0.58433 -0.29157,1.13744 -0.87,1.26c-0.09574,0.02493 -0.19342,0.04166 -0.292,0.05c-0.079,0.011 -9.649,0.011 -9.72,0.007c-0.5,-0.03 -0.852,-0.36 -1,-1.021c-0.13214,-0.66432 -0.22828,-1.3353 -0.288,-2.01c0.00449,-1.49696 -0.81793,-2.87407 -2.138,-3.58c-2.061,-0.76894 -4.37393,-0.4057 -6.1,0.958c0.182,0.367 0.367,0.744 0.555,1.119c0.188,0.375 0.375,0.742 0.557,1.1c0.412,-0.167 0.761,-0.325 1.121,-0.438c0.36447,-0.1108 0.73597,-0.19699 1.112,-0.258c0.49655,-0.15014 1.03472,-0.06011 1.45538,0.24346c0.42065,0.30358 0.67566,0.78597 0.68962,1.30454c0.149,0.855 0.3,1.711 0.444,2.584h-4.9c-0.363,0 -0.726,0.007 -1.086,0.007c-0.36,0 -8.627,-0.007 -8.983,-0.037c-1,-0.083 -1.283,-0.416 -1.314,-1.422c-0.022,-0.637 -0.007,-1.276 -0.011,-1.912v-1.8h-2.671v3.334c0,1.18 -0.171,1.631 -0.935,1.771c-0.125,0.026 -9.756,0.037 -9.915,0.048c-0.159,0.011 -0.323,0.008 -0.507,0.008c-0.167,0 -0.329,-0.015 -0.507,-0.026c-0.057,-1.068 -0.065,-2.1 -0.178,-3.13c0.00833,-1.55326 -0.93635,-2.95281 -2.38,-3.526c-1.6762,-0.73011 -3.61979,-0.46309 -5.037,0.692c-1.593,1.344 -1.819,3.194 -1.529,5.117c0.15934,2.06611 1.87777,3.66403 3.95,3.673c0.753,0.058 1.518,0.012 2.278,0.012c0.06315,0.50278 -0.08511,1.00923 -0.40944,1.39857c-0.32433,0.38934 -0.79565,0.62669 -1.30156,0.65543c-0.583,0.073 -1.181,0.076 -1.775,0.091c-0.646,0.012 -1.294,0 -1.945,0v2.838c1.487,0 2.952,0.11 4.394,-0.026c1.73302,-0.11728 3.18819,-1.34837 3.591,-3.038c0.14466,-0.58626 0.25617,-1.1802 0.334,-1.779h0.291c0.2,0 0.408,0.008 0.613,0c0.174,0 9.839,0 10.013,-0.019c0.96774,0.00756 1.88111,-0.44671 2.459,-1.223c0.5139,0.81804 1.43626,1.2869 2.4,1.22c0.367,0 8.642,0 9.009,0.007c3.25133,0.022 6.50067,0.022 9.748,0c0.163,0 9.809,0 9.971,-0.007c0.061,0 0.125,0 0.19,0c1.50641,-0.01449 2.78688,-1.10428 3.042,-2.589c0.16491,-0.67724 0.24718,-1.37197 0.245,-2.069c0.026,-3.267 0.015,-6.536 0.015,-9.806c0,-0.178 -0.03,-0.36 -0.041,-0.514" fill="#ffffff"></path><rect x="214.432" y="31.652" width="2.043" height="2.043" fill="#ffffff"></rect><rect x="157.186" y="31.652" width="2.043" height="2.043" fill="#ffffff"></rect></g></g></g></g></svg>