<?xml version="1.0" encoding="UTF-8"?>
<svg id="Layer_1" xmlns="http://www.w3.org/2000/svg" version="1.1" viewBox="0 0 162.4 29.1">
  <!-- Generator: Adobe Illustrator 29.8.2, SVG Export Plug-In . SVG Version: 2.1.1 Build 3)  -->
  <defs>
    <style>
      .st0 {
        fill: #222519;
      }
    </style>
  </defs>
  <g>
    <path class="st0" d="M51.1,12.7c-.6,0-1.2.4-1.4,1l-4.1,12-3.9-12c-.2-.6-.8-1-1.4-1h-2.4l-5.1,15.9h2.6l4.3-13,4.2,13h3.5l4.4-13,4.3,13h2.6l-5.1-15.9h-2.5Z"/>
    <path class="st0" d="M78.8,28.5h-2.6l-4.3-13-4.3,13h-3.5l-4.2-13-2.1,6.2-1.3-4.2,1.6-4.9h2.4c.6,0,1.2.4,1.4,1l3.9,12,4-12c.2-.6.8-1,1.4-1h2.4l5.2,15.9Z"/>
    <path class="st0" d="M24.1,12.1c-4.4,0-8.6,1.4-8.6,8.6s5,8.4,8.6,8.4,8.7-1.2,8.7-8.4-4.3-8.6-8.7-8.6M24.1,26.7c-4.2,0-6-2.3-6-6s1.2-6.3,6-6.3,6.1,2.5,6.1,6.3c0,3.8-1.9,6-6.1,6"/>
    <path class="st0" d="M84.8,26.4c-1.7,0-2.8-.8-2.8-3v-1.9h8.3v-2.1h-8.2v-4.6h10l-.3-2.2h-12.2v11.2c0,1.8.6,4.7,4.8,4.7h7.6l.3-2.2h-7.5Z"/>
    <path class="st0" d="M104.6,22.9c3.7-1.2,4.8-6.2,1.9-8.8-1.1-1-2.5-1.5-3.9-1.5h-8v15.9h2.4v-13.6h5.4c2.3,0,3.1,1.7,3.2,2.9.1,1.5-.4,3.3-4.1,3.3h-1.5s0,1.4.4,1.8c1.5,1.8,4.8,5.6,4.8,5.6h3.1s-3.2-3.6-4.7-5.3c.4,0,.7-.2,1-.3"/>
    <path class="st0" d="M2.6,20.6c.1-3.5,1.4-6,6-6h5.2s-.2-1.4-.3-1.7c0-.4,0-.6-.7-.6h-4.2C4.3,12.3.2,13.7,0,20.4h0v.5h0c.2,6.9,5.1,8,8.6,8h4.9l.4-2.4h-5.2c-4.2,0-6-2.3-6.1-5.9"/>
  </g>
  <g>
    <path class="st0" d="M14.8,3.2c0-.2,0-.3-.3-.3h-.6v4c0,.5,0,1-.2,1.4-.2.6-.6.9-1.2,1.1-.5.2-1.1.2-1.6,0-.7,0-1.2-.6-1.4-1.2-.2-.4-.2-.9-.2-1.4v-3.7c0-.2,0-.3-.3-.3h-.6v4.3c0,.5.1,1,.3,1.5.3.8,1,1.4,1.9,1.6.8.2,1.6.2,2.4,0,.8-.2,1.3-.7,1.6-1.5.2-.6.3-1.2.3-1.8,0-.3,0-3.3,0-3.7"/>
    <path class="st0" d="M33.2,3.2c0-.2,0-.3-.3-.3h-.6v7.4h.9c0,0,0-6.6,0-7.1"/>
    <path class="st0" d="M25.2,7.3s.7-1.9.9-2.5c0-.3.2-.5.4-.8s.5-.4.7-.4c.3,0,.6,0,.7.4,0,.2.3.5.4.8.2.7.9,2.5.9,2.5h-4ZM29.3,5c-.2-.4-.3-.8-.5-1.2-.2-.4-.7-1-1.6-1h0c-1,0-1.4.6-1.6,1-.2.4-.3.8-.5,1.2-.5,1.4-1.9,5.2-1.9,5.2h1l.8-2.2h4.6l.8,2.2h1c-.2,0-1.6-3.8-2.1-5.2"/>
    <path class="st0" d="M20.8,6.3c.3,0,.6.2.8.3.5.3.8.7.9,1.3,0,.4,0,.8-.2,1.2-.2.5-.6.7-1.1.9-.4,0-.8.2-1.2.2h-3.8V2.8h3.4c2.1,0,2.4,1.3,2.4,2,0,.7-.4,1.1-1.1,1.4,0,0-.1,0-.1,0h0M17.1,3.6v5.8h2.8c.2,0,.4,0,.7,0,.6,0,1-.5,1.1-1.1,0-.5-.2-1-.7-1.2-.3-.2-.7-.2-1-.2h-1.9v-.7h1.4c1,0,1.5-.6,1.6-1.1s0-1.3-1.4-1.3c-.9-.1-2.6-.1-2.6-.1"/>
    <path class="st0" d="M.7,2.8h3.3c1.2,0,3.5.5,3.5,3.7s-2,3.7-3.5,3.7H.7V2.8ZM1.6,9.4h2.3c.6,0,2.6-.2,2.6-2.9s-2-2.9-2.6-2.9H1.6v5.8Z"/>
  </g>
  <g>
    <rect class="st0" x="125.7" y="16.4" width="2.4" height="12.1"/>
    <path class="st0" d="M160,12.7c-.4,0-.5,0-.7.4-.9,1.9-1.8,3.7-2.8,5.5-.2.5-.5.9-.9,1.3s-.9.6-1.4.6-1-.2-1.4-.6-.6-.8-.9-1.3c-.9-1.8-1.9-3.7-2.8-5.5-.2-.3-.3-.5-.7-.4h-2.3s2.8,5.5,3.7,7.2c.7,1.3,1.6,2.5,3.2,2.9v5.8h2.5v-5.8c1.6-.5,2.5-1.6,3.2-2.9.9-1.6,3.7-7.2,3.7-7.2h-2.4Z"/>
    <path class="st0" d="M145.8,14.8c-.3-.6-.6-1.2-.8-1.7-.2-.3-.3-.5-.7-.4h-26c-4.3,0-8.6,1.5-8.6,8.1s5.1,7.8,8.6,7.8h4.9l.4-2.4h-5.2c-4,0-6-2.3-6-5.6s1.5-5.7,6-5.7h18.6v13.7h2.5v-13.8h6.3Z"/>
  </g>
  <g>
    <path class="st0" d="M153.1,7.1h-.6v.4c.1,0,.3.2.4.2h.6v-.4c-.2,0-.3-.2-.4-.2"/>
    <path class="st0" d="M153.2,5c0,.5-.6.8-1.6.8h-7v.4c.1,0,.3.2.4.2h3.2c.5,0,.8,0,1,0s.3.3.3.6c0,.7-.6.9-1.4.9h-7.1c-1.4,0-1.4-.9-1.4-1.6s.1-.8.5-1,.7-.2,1.1-.2c-.1-.2-.1-.4-.1-.4,0,0-.2-.2-.3-.2h0c-.6,0-1,.2-1.3.5s-.5.8-.5,1.4.1,1.4.4,1.7c.3.3.8.5,1.6.5h7.3c2.2,0,2.1-1.4,2.1-1.5,0-.3-.1-.5-.2-.6h1.8c1.3,0,2.1-.5,2.1-1.3v-2.6h-.7v2.3h-.2Z"/>
    <path class="st0" d="M161.8,2.8c-.3-.3-.8-.4-1.6-.4h-4.5v.4c.1,0,.3.2.4.2h4.1c.5,0,.9,0,1.1.3.2.2.3.5.3,1s-.1,1-.3,1.2-.6.3-1.1.3h-5.6v.4c.1,0,.3.2.4.2h5.2c.8,0,1.4-.2,1.7-.5s.4-.9.4-1.8-.2-1.1-.5-1.3"/>
    <path class="st0" d="M145.3,9.2h-1.9v.4c.1,0,.3.2.4.2h1.9v-.4c-.2,0-.3-.2-.4-.2"/>
    <path class="st0" d="M93.5,1.5h1.9v-.4c0,0-.3-.2-.4-.2h-1.9v.4c.2,0,.3.2.4.2"/>
    <path class="st0" d="M98.7,7.2h-1.9v.4c0,0,.3.2.4.2h1.9v-.4c-.2,0-.3-.2-.4-.2"/>
    <path class="st0" d="M85.9,9.2h-1.9v.4c0,0,.3.2.4.2h1.9v-.4c-.2,0-.3-.2-.4-.2"/>
    <path class="st0" d="M122.6,4.7c0,.4-.1.7-.4.8-.2.2-.6.3-1.2.3s-1,0-1.3-.3c-.3-.2-.4-.5-.4-.8v-.6c0-.4.1-.7.4-.9.2-.2.7-.3,1.2-.3s1,0,1.3.3c.2.2.4.5.4.9v.6ZM122.8,2.7c-.4-.3-1-.4-1.8-.4s-1.4,0-1.8.4c-.4.3-.5.7-.5,1.3v.9c0,.3.1.6.3.8-.2,0-.6,0-1,0h-.6c-1,0-1.6-.3-1.6-.8v-2.6h-.8v2.6c0,.5-.5.7-1.4.8-.6,0-1.1,0-1.3-.4v-3h-.7v4.5c0,.4-.1.6-.4.8-.2,0-.4.2-.7.3h-.7v.3c.1,0,.3.2.4.2h.2c.6,0,1.1,0,1.4-.3.4-.2.6-.7.6-1.2v-.8s.4.2,1.2.2h.1c.8,0,1.4-.2,1.7-.5.2.2.6.5,1.7.5h.8c1,0,1.4-.2,1.6-.3.4.2.8.3,1.3.3h.4c.7,0,1.3-.2,1.6-.4.4-.3.6-.7.6-1.3v-.7c0-.6-.2-1-.6-1.3"/>
    <path class="st0" d="M109.3,2.5v2.3c0,.5-.2.9-.6,1.2-.3.2-.8.4-1.4.4s-1.1,0-1.5-.2c-.3,0-.5-.3-.7-.5-.2.2-.4.4-.7.5-.4,0-.9.2-1.5.2s-1,0-1.4-.3c0,0-.4.3-1.7.3s-1.7-.4-1.9-.5c-.3.3-.9.5-1.8.5h0c-1.2,0-1.7-.4-1.9-.5-.3.3-.9.5-1.8.5h-1.8c0,.2.2.4.2.6s0,1.5-2.1,1.5h-7.3c-.7,0-1.2-.2-1.6-.5-.3-.3-.4-.9-.4-1.7s.2-1.1.5-1.4.8-.5,1.3-.5h0c0,0,.3,0,.3.2,0,0,0,.2,0,.4-.4,0-.8,0-1.1.2-.4.2-.5.9-.5,1,0,.7,0,1.6,1.4,1.6h7.1c.8,0,1.4-.2,1.4-.9s0-.5-.3-.6c0,0-.5,0-1,0h-3.2c0,0-.3,0-.3-.2v-.4c0,0,6.9,0,6.9,0h.2c1,0,1.4-.3,1.4-.8v-2.6h.7v2.6c0,.2,0,.4.4.6.3,0,.6.2,1.1.2,1,0,1.4-.3,1.4-.8v-2.6h.7v2.6c0,.5.5.8,1.6.8s.9,0,1.2-.2c0-.2-.2-.5-.2-.8v-2.3l.8-.2v2.4c0,.4,0,.7.4.8.4.3,1,.4,1.6.3.7,0,1.1-.4,1.1-.9v-1.9h.7v2.2c0,.5.4.8,1.1.9.7,0,1.2,0,1.6-.3.3-.2.4-.5.4-.8v-2.4h1.1Z"/>
    <path class="st0" d="M134.4,3l-1.4-.4c-.6-.2-.9-.3-1.1-.4-.2-.2-.2-.4-.2-.7h0c0-.4.1-.6.3-.7s.5-.2,1-.2h2.4l-.2-.6h-2.2c-.7,0-1.3,0-1.6.3-.3.2-.5.5-.5.9v.4c0,.3.1.6.2.8.1.2.4.3.7.4l2.4.7c.5.2.9.3.9,1.1s-.1.6-.3.8c-.2,0-.7.2-1.4.2h-4.8v-3.5h-2.3c-.8,0-1.4.6-1.7,1.4-.1.4-.2.7-.1,1.1.1.4.3.7.5,1,.3.3.6.5,1,.6.2,0,.4,0,.6,0h.5v-.5h-.5c-.1,0-.3,0-.4,0-.2,0-.5-.2-.6-.4-.2-.2-.3-.4-.3-.7s0-.5.1-.7c.2-.5.6-.8,1.1-.9h1.5v3.9c0,.4-.1.6-.4.8-.2,0-.4.2-.7.3h-.7v.3c.1,0,.3.2.4.2h.2c.6,0,1.1,0,1.4-.3.4-.2.6-.7.6-1.2v-.6h5c.9,0,1.6,0,1.9-.3.3-.2.5-.4.5-.7v-.8c0-.4-.1-.8-.3-1-.4-.2-.8-.4-1.5-.6"/>
    <path class="st0" d="M116.2,7.2h-1.9v.4c.1,0,.3.2.4.2h1.9v-.4c-.2,0-.3-.2-.4-.2"/>
  </g>
</svg>