<svg xmlns="http://www.w3.org/2000/svg" xmlns:xlink="http://www.w3.org/1999/xlink" id="layer" x="0px" y="0px" style="enable-background:new 0 0 652 652;" xml:space="preserve" viewBox="20.83 241.36 599.97 160.65"><style type="text/css">	.st0{fill:#A39161;}	.st1{fill:#FFFFFF;}	.st2{fill:#002D62;}	.st3{fill:#003E7E;}</style><g>			<rect x="44.4" y="264.9" transform="matrix(0.7071 -0.7071 0.7071 0.7071 -197.877 165.7685)" class="st0" width="113.6" height="113.6"></rect>			<rect x="47.1" y="267.7" transform="matrix(0.7071 -0.7071 0.7071 0.7071 -197.8902 165.7703)" class="st1" width="108.1" height="108.1"></rect>	<polygon class="st2" points="175,321.8 101.2,247.9 27.3,321.8 73,367.4 73,367.1 77.8,363.3 127.6,363.3 77.6,369.4 77.6,371.5    77.2,371.7 82.2,376.6 120.1,376.6  "></polygon>			<rect x="48.9" y="269.5" transform="matrix(0.7071 -0.7071 0.7071 0.7071 -197.8832 165.7711)" class="st2" width="104.4" height="104.4"></rect>	<path class="st3" d="M159.2,321.7L146,334.9l-11.3-11.3l-4.7,4.8l16.1,16.1l22.7-22.7l-8.2-8.2l-4.9,4.8L159.2,321.7z M126.1,328.5   l-4.7-4.8l-18.2,18.2l4.8,4.8L126.1,328.5z M101.2,352.7l1-0.4l3.7-3.7l-4.8-4.8l-4.8,4.7l3.8,3.8L101.2,352.7z M119.1,349l9.1-9.1   l6.4,6.4l-7.4,7.4l4.8,4.8l12-12l-16-16l-18.2,18.2l11.2,11.2l-2,1.9l-11.2-11.2l-12.7,12.6l15,15h1.9l3.8-3.8l-11.2-11.2l3.1-3.1   l11.2,11.2l11.1-11.1L119.1,349z M101.2,379.8L88,366.6l11.3-11.3l-4.8-4.7l-16.1,16.1l22.7,22.7l8.2-8.2l-3.7-3.7h-2L101.2,379.8z    M76.3,328.5l18.1,18.1l4.8-4.7L81,323.7L76.3,328.5z M69.5,321.8l4.8,4.8l4.8-4.8l-4.8-4.8L69.5,321.8z M74.3,330.5L63,341.7l-2-2   l11.2-11.2l-12.6-12.7l-16,16l4.8,4.8l11.2-11.2l3.1,3.1l-11.2,11.2l11.1,11.1l11.2-11.2l9.1,9.1l-6.4,6.4l-7-7l-4.8,4.8l11.7,11.7   l16-16L74.3,330.5z M43.1,321.8l13.2-13.2l11.3,11.3l4.8-4.8L56.3,299l-22.7,22.8l8.2,8.2l4.8-4.8L43.1,321.8z M76.3,315l4.8,4.8   l18.1-18.2l-4.8-4.8L76.3,315z M105.9,294.9l-4.8-4.8l-4.8,4.8l4.8,4.8L105.9,294.9z M74.3,313l18.2-18.2l-11.2-11.3l2-2l11.2,11.3   l12.6-12.6l-16-16l-4.8,4.8l11.2,11.2l-3.1,3.1l-11.2-11.2L72,283.3l11.2,11.2l-9,9.1l-6.5-6.4l7.1-7.1l-4.8-4.8L58.3,297L74.3,313   z M97.8,267.1l3.5-3.5l13.1,13.2L103,288.2l4.8,4.8l16.1-16.1l-22.8-22.7l-8.2,8.2L97.8,267.1z M126.1,315l-18.1-18.1l-4.8,4.8   l18.1,18.1L126.1,315z M132.8,321.7l-4.8-4.8l-4.8,4.8l4.8,4.8L132.8,321.7z M139.3,301.8l2,2L130,315l12.6,12.6l16-16l-4.8-4.8   L142.7,318l-3.1-3.1l11.2-11.2l-11.1-11.1l-11.2,11.2l-9.1-9l6.4-6.4l7.2,7.2l4.8-4.8l-11.8-11.9l-16,15.9L128,313L139.3,301.8z"></path>	<polygon class="st0" points="77.6,302.7 127.6,296.6 77.8,296.6 73,300.4 73,307.1 77.6,304.8  "></polygon>	<polygon class="st0" points="102.2,251.9 100.3,251.5 99.1,279.7 103.2,280.2  "></polygon>	<polygon class="st0" points="91.2,288.7 113.7,284.8 91.4,284.8 87.6,287.6 87.6,294.3 91.2,292  "></polygon>	<polygon class="st0" points="77.6,369.4 127.6,363.3 77.8,363.3 73,367.1 73,367.4 77.2,371.7 77.6,371.5  "></polygon>	<polygon class="st0" points="77.6,329.4 127.6,323.3 77.8,323.3 73,327.1 73,333.8 77.6,331.5  "></polygon>	<polygon class="st0" points="77.6,316 127.6,309.9 77.8,309.9 73,313.8 73,320.4 77.6,318.1  "></polygon>	<polygon class="st0" points="77.6,342.7 127.6,336.6 77.8,336.6 73,340.5 73,347.1 77.6,344.8  "></polygon>	<polygon class="st0" points="77.8,349.9 73,353.8 73,360.5 77.6,358.1 77.6,356 127.6,349.9  "></polygon>	<polygon class="st2" points="311.1,326.1 314.7,326.1 318.4,341.6 318.4,341.6 322.5,326.1 326.1,326.1 330.1,341.6 330.1,341.6    333.9,326.1 337.5,326.1 331.9,346.4 328.3,346.4 324.3,330.9 324.2,330.9 320.1,346.4 316.4,346.4  "></polygon>	<path class="st2" d="M341,336.2c0,3.9,1.8,7.7,6.2,7.7c4.4,0,6.2-3.8,6.2-7.7c0-3.9-1.8-7.7-6.2-7.7   C342.8,328.5,341,332.4,341,336.2 M356.8,336.2c0,5.8-3.6,10.6-9.7,10.6c-6.1,0-9.7-4.8-9.7-10.6c0-5.8,3.6-10.6,9.7-10.6   C353.2,325.7,356.8,330.5,356.8,336.2"></path>	<polygon class="st2" points="377.1,326.1 380.6,326.1 380.6,343.3 390.9,343.3 390.9,346.4 377.1,346.4  "></polygon>	<path class="st2" d="M396.2,343.5h3.5c5.5,0,6.7-3.2,6.7-7.2s-1.2-7.2-6.7-7.2h-3.5V343.5z M392.7,326.1h8.4   c6.2,0,8.9,4.5,8.9,10.1s-2.7,10.1-8.9,10.1h-8.4V326.1z"></path>	<polygon class="st2" points="415.7,326.1 432,326.1 432,329.2 425.6,329.2 425.6,346.4 422.1,346.4 422.1,329.2 415.7,329.2  "></polygon>	<path class="st2" d="M458.2,338.3h6.2l-3-8.7h-0.1L458.2,338.3z M459.5,326.1h3.7l7.8,20.2h-3.8l-1.9-5.4h-8.1l-1.9,5.4h-3.6   L459.5,326.1z"></path>	<path class="st2" d="M476.1,343.4h3.5c5.5,0,6.7-3.2,6.7-7.2s-1.2-7.2-6.7-7.2h-3.5V343.4z M472.6,326.1h8.4   c6.2,0,8.9,4.5,8.9,10.1s-2.7,10.1-8.9,10.1h-8.4V326.1z"></path>	<polygon class="st2" points="492.1,326.1 506.7,326.1 506.7,329.2 495.7,329.2 495.7,334.5 505.9,334.5 505.9,337.4 495.7,337.4    495.7,343.3 506.9,343.3 506.9,346.4 492.1,346.4  "></polygon>	<path class="st2" d="M528.4,332.6c-0.4-2.4-2.6-4.2-5-4c-4.3,0-6.2,3.8-6.2,7.7c0,3.9,1.8,7.7,6.2,7.7c3.1,0,4.9-2.3,5.1-5.3h3.5   c0,4.6-3.8,8.2-8.4,8.2c-0.1,0-0.2,0-0.3,0c-6.1,0-9.7-4.8-9.7-10.6s3.6-10.6,9.7-10.6c4.6,0,8.2,2.6,8.6,6.9L528.4,332.6z"></path>	<polygon class="st2" points="534.1,326.1 548.7,326.1 548.7,329.2 537.7,329.2 537.7,334.5 547.9,334.5 547.9,337.4 537.7,337.4    537.7,343.3 548.9,343.3 548.9,346.4 534.1,346.4  "></polygon>	<polygon class="st2" points="550.7,326.1 554.4,326.1 563.6,341 563.7,341 563.7,326.1 567.1,326.1 567.1,346.4 563.3,346.4    554.1,331.5 554,331.5 554,346.4 550.7,346.4  "></polygon>	<polygon class="st2" points="568.8,326.1 585.2,326.1 585.2,329.2 578.8,329.2 578.8,346.4 575.2,346.4 575.2,329.2 568.8,329.2     "></polygon>	<polygon class="st2" points="605,326.1 619.6,326.1 619.6,329.2 608.5,329.2 608.5,334.5 618.7,334.5 618.7,337.4 608.5,337.4    608.5,343.3 619.8,343.3 619.8,346.4 605,346.4  "></polygon>	<path class="st2" d="M445.9,338.1c2.4-0.9,3.9-3.2,3.7-5.7c0-2.5-1.1-6.2-6.9-6.2h-8.9v20.1h3.5V329h5.2c1.9,0,3.5,0.7,3.5,3.3   c0.1,1.8-1.3,3.3-3.1,3.4c-0.2,0-0.3,0-0.5,0h-2.5l-1.7,2.9h3.9l3.9,7.8h4.1L445.9,338.1z"></path>	<path class="st2" d="M599.1,338.1c2.4-0.9,3.9-3.2,3.7-5.7c0-2.5-1.1-6.2-6.9-6.2H587v20.2h3.5V329h5.2c1.9,0,3.5,0.7,3.5,3.3   c0.1,1.8-1.3,3.3-3.1,3.4c-0.2,0-0.3,0-0.5,0h-2.5l-1.7,2.9h3.9l3.9,7.8h4.1L599.1,338.1z"></path>	<path class="st2" d="M371.1,338.1c2.4-0.9,3.9-3.2,3.7-5.7c0-2.5-1.1-6.2-6.9-6.2h-8.9v20.2h3.5V329h5.2c1.9,0,3.5,0.7,3.5,3.3   c0.1,1.8-1.3,3.3-3.1,3.4c-0.2,0-0.3,0-0.5,0h-2.5l-1.7,2.9h3.9l3.9,7.8h4L371.1,338.1z"></path>	<path class="st2" d="M227.2,343.4h3.5c5.6,0,6.7-3.2,6.7-7.2s-1.2-7.2-6.7-7.2h-3.5V343.4z M223.7,326.1h8.4   c6.2,0,8.9,4.5,8.9,10.1s-2.7,10.1-8.9,10.1h-8.4V326.1z"></path>	<path class="st2" d="M243.2,326.1h3.5v11.8c0,2.7,0.2,5.9,4.8,5.9s4.8-3.1,4.8-5.9v-11.8h3.5v12.9c0,5.2-3.3,7.8-8.2,7.8   s-8.3-2.6-8.3-7.8L243.2,326.1z"></path>	<path class="st2" d="M285.5,338.3h6.2l-3-8.7h-0.1L285.5,338.3z M286.7,326.1h3.7l7.8,20.2h-3.8l-1.9-5.3h-8.1l-1.9,5.4h-3.7   L286.7,326.1z"></path>	<rect x="299.8" y="326.1" class="st2" width="3.5" height="20.2"></rect>	<path class="st2" d="M271.8,343.5h-6.2V329h5.8c1.9,0,3,0.7,3,2.8c0.1,1.5-1.1,2.8-2.6,2.8c-0.1,0-0.3,0-0.4,0h-3.1l-1.5,2.5h5.1   c2.2,0,3.4,1.1,3.4,3.1c0.1,1.7-1.1,3.1-2.8,3.2C272.3,343.5,272.1,343.5,271.8,343.5 M275.1,335.5L275.1,335.5   c1.8-0.7,3-2.4,2.9-4.3c0-3.4-2.4-5-6-5h-9.8v20.2h9.3c5.2,0,7.4-2.5,7.4-5.6c0-2.7-1.3-4.7-3.8-5.2"></path>	<rect x="551.4" y="297.2" class="st0" width="3.2" height="2.5"></rect>	<path class="st0" d="M530.9,300.2h-8.4l1.7,2.9h5.3c5.5,0,6.7,3.2,6.7,7.2v4h-15.9v3.1h19.4v-7C539.7,304.7,537,300.2,530.9,300.2"></path>	<rect x="478.4" y="318.8" class="st0" width="3.2" height="2.5"></rect>	<rect x="483.1" y="318.8" class="st0" width="3.2" height="2.5"></rect>	<rect x="514.9" y="318.8" class="st0" width="3.2" height="2.5"></rect>	<path class="st0" d="M518.1,300.2h-3.6v14.1h-10.2v-14.1h-8.4c-6.2,0-8.9,4.5-8.9,10.1v4h-6.7c-3.1,0-4.9-2.2-5.1-5.1v-9h-3.4v9   c0.1,4.6,3.8,8.2,8.4,8.2c0.1,0,0.2,0,0.2,0h10.3v-7.1c0-4.1,1.2-7.2,6.7-7.2h3.5v14.3h17.3L518.1,300.2z"></path>	<rect x="230.3" y="318.8" class="st0" width="3.2" height="2.5"></rect>	<rect x="235" y="318.8" class="st0" width="3.2" height="2.5"></rect>	<path class="st0" d="M293.9,314.3h-10.3c0.8-1.6,1.3-3.3,1.2-5.1c0-5-3.1-9.1-8.3-9.1c-4.9,0-7.9,3.7-8.2,8.2l0,0   c-0.2,3.5-1.5,5.9-5.7,5.9h-6.2v-14.1h-8.4c-6.2,0-8.9,4.5-8.9,10.1v4h-6.7c-3.1,0-4.9-2.2-5.1-5.1v-9h-3.4v9   c0,4.6,3.8,8.2,8.4,8.2c0.1,0,0.2,0,0.3,0h10.3v-7.1c0-4.1,1.2-7.2,6.7-7.2h3.5v14.3h10.1c2.3,0.1,4.5-0.7,6.2-2.3   c1.7-1.8,2.6-4.2,2.7-6.6c0-0.1,0-0.2,0-0.2l0,0c0.3-2.6,1.7-5,4.7-5c3.4,0,4.8,3,4.8,6s-1.4,6-4.8,6c-1.2,0-2.3-0.4-3.1-1.2   l-2.9,1.7c1.5,1.7,3.7,2.7,6,2.7c1.4,0,2.7-0.3,3.9-1h17v-20.2h-3.5L293.9,314.3z"></path>	<path class="st0" d="M577,304.9h-6.6l7.8-7.8h-4.4l-10.4,10.6h13.4c1.8-0.2,3.4,1.1,3.5,2.9c0,0.2,0,0.3,0,0.5   c0,2.7-1.6,3.2-3.5,3.2h-22.2V301h-3.2v15.7c0,1.4-0.1,2.1-1.2,2.1h-2.6l1.5,2.5h1.5c2.8,0,4-1.4,4.2-4H577c5.8,0,6.9-3.7,6.9-6.2   S582.8,305,577,304.9"></path>	<path class="st0" d="M393.9,316.7c0,1.4-0.1,2.1-1.3,2.1H390l1.5,2.6h1.5c3,0,4.2-1.6,4.2-4.6v-16.6h-3.2L393.9,316.7z"></path>	<rect x="438.8" y="297.2" class="st0" width="3.2" height="2.5"></rect>	<rect x="434.1" y="297.2" class="st0" width="3.2" height="2.5"></rect>	<path class="st0" d="M450.8,314.3h-8.7v-13.1h-3.2v13.1h-9.1v-3.5c0-5.8-3.6-10.6-9.7-10.6c-3.6-0.1-6.9,1.9-8.5,5.2l2.9,1.8   c0.7-2.4,3-4.1,5.5-4c4.3,0,6.2,3.8,6.2,7.7v3.5h-23.4v-17.2h-3.6v20.2h55v-20.2h-3.5L450.8,314.3z"></path>	<rect x="456.5" y="297.2" class="st0" width="3.5" height="20.2"></rect>	<path class="st0" d="M385.3,305.9c-1-0.3-7.9-2.1-8.2-2.2v-1.5c0-2,2.1-2.6,3.7-2.6c2.5,0,4.2,1,4.4,3.6h3.5c0-4.2-3.5-6.5-7.8-6.5   c-3.6,0-7.4,1.9-7.4,5.9v3.5c2.8,0.8,9.1,2.3,10.5,2.8c1.1,0.3,1.8,1.4,1.7,2.5c0,1.5-1.2,3.1-4.3,3.1h-12.8   c-3.1,0-4.9-2.4-5.1-5.3v-9h-3.5v9c0.1,4.6,3.8,8.2,8.4,8.2c0.1,0,0.2,0,0.2,0h12.6c4,0,8-1.8,8-6.3   C389.2,308.6,387.6,306.5,385.3,305.9"></path>	<rect x="372.1" y="318.8" class="st0" width="3.2" height="2.5"></rect>	<rect x="376.8" y="318.8" class="st0" width="3.2" height="2.5"></rect>	<rect x="419.1" y="318.8" class="st0" width="3.2" height="2.5"></rect>	<path class="st0" d="M339,314.3h-23.4v-3.5c0-3.9,1.8-7.7,6.2-7.7c2.6,0,4.8,1.6,5.5,4.1l3-1.7c-1.6-3.3-4.9-5.3-8.5-5.2   c-6.1,0-9.7,4.8-9.7,10.6v3.5h-8.8v-17.2h-3.5v20.2h42.8v-20.2H339L339,314.3z"></path>	<rect x="344.7" y="297.2" class="st0" width="3.5" height="20.2"></rect>	<path class="st0" d="M612.6,300.2c-4.9,0-7.9,3.7-8.3,8.2l0,0c-0.2,3.5-1.5,5.9-5.7,5.9h-6.8v-14.1h-3.3v16.5   c0,1.4-0.1,2.2-1.3,2.2h-2.6l1.5,2.5h1.5c2.8,0,4-1.4,4.2-4h7.1c2.3,0.1,4.5-0.7,6.2-2.3c1.7-1.8,2.6-4.2,2.7-6.6   c0-0.1,0-0.2,0-0.2l0,0c0.3-2.6,1.7-5,4.7-5c3.4,0,4.8,3,4.8,6s-1.4,6-4.8,6c-1.2,0-2.3-0.4-3.1-1.2l-2.9,1.7   c1.5,1.7,3.7,2.7,6,2.7c5.2,0,8.3-4.1,8.3-9.1S617.7,300.2,612.6,300.2"></path></g></svg>