<svg xmlns="http://www.w3.org/2000/svg" width="491px" height="137px" viewBox="0 0 491 137" preserveAspectRatio="xMidYMid meet"><g fill="#000000"><path d="M160 68 l0 -44 7.5 0 7.5 0 0 44 0 44 -7.5 0 -7.5 0 0 -44z"></path><path d="M192 68 l0 -44 37 0 37 0 0 7.5 0 7.5 -30 0 -30 0 0 36.5 0 36.5 -7 0 -7 0 0 -44z"></path><path d="M278.3 110.8 c-3.1 -1.5 -4.8 -6 -3.3 -9 0.7 -1.2 14.8 -15.9 31.3 -32.5 l30.2 -30.3 -30.8 0 -30.7 0 0 -7.5 0 -7.5 38.9 0 c22.4 0 40 0.4 41.5 1 3.6 1.3 6 5.4 5.1 8.7 -0.4 1.8 -11.6 13.7 -31.3 33.5 l-30.6 30.8 30.7 0 30.7 0 0 7 0 7 -39.7 -0.1 c-25.7 0 -40.6 -0.4 -42 -1.1z"></path><path d="M370.9 110.1 c4.2 -7.8 48.7 -81.1 50.4 -82.9 2.6 -2.8 7.7 -2.9 10.1 -0.3 0.9 1 12.9 20.5 26.7 43.2 l24.9 41.4 -7.7 0.3 c-4.2 0.2 -8.2 0.1 -8.8 -0.2 -0.6 -0.2 -4 -5.2 -7.4 -11 l-6.3 -10.6 -20.4 0 -20.3 0 3.3 -5.7 3.4 -5.8 13.1 -0.3 c7.2 -0.1 13.1 -0.5 13.1 -0.8 0 -1.1 -18.5 -31.4 -19.1 -31.4 -0.4 0 -9.4 14.8 -20 33 l-19.4 32.9 -8.3 0.1 c-7.8 0 -8.2 -0.1 -7.3 -1.9z"></path><path d="M218 69.5 l0 -6.5 22 0 22 0 0 6.5 0 6.5 -22 0 -22 0 0 -6.5z"></path><path d="M469.9 38.1 c-3.4 -3.4 -3.7 -6.8 -0.9 -10.4 5.9 -7.5 17.2 -0.7 13.4 8.1 -1.2 3 -4.6 5.2 -8 5.2 -0.9 0 -2.9 -1.3 -4.5 -2.9z m8.4 0.8 c3 -1.6 3.7 -2.8 3.7 -6.6 0 -4.1 -4.2 -7.7 -8 -6.8 -5.8 1.4 -7.8 7.8 -3.5 12 2.7 2.8 4.5 3.1 7.8 1.4z"></path><path d="M473.1 32.8 c-0.1 -4.1 0.2 -4.8 1.8 -4.8 2.6 0 4.8 2.7 3.3 4.2 -0.8 0.8 -0.8 1.7 -0.1 3.2 0.9 1.9 0.9 2 -0.4 0.4 -0.8 -1 -1.9 -1.8 -2.5 -1.8 -0.6 0 -1.3 0.8 -1.5 1.8 -0.3 0.9 -0.5 -0.4 -0.6 -3z m3.4 -1.8 c0 -0.7 -0.6 -1.5 -1.2 -1.7 -0.8 -0.3 -1.3 0.4 -1.3 1.7 0 1.3 0.5 2 1.3 1.8 0.6 -0.3 1.2 -1.1 1.2 -1.8z"></path></g><g fill="#cda72c"><path d="M54 126.4 c-24 -5.1 -43.3 -26.4 -45.9 -50.7 l-0.7 -6.8 3.7 -3.4 c3.6 -3.2 9.2 -5.5 13.4 -5.5 4.9 0.1 10.4 3.9 17.1 12 8.3 10.1 12.9 13.5 20 15.1 10.7 2.4 19.6 -1.5 29 -12.7 7.8 -9.3 11.2 -12.3 15.6 -13.4 6.3 -1.7 11.4 -0.4 16.5 4.3 l4.5 4.1 -0.7 5.5 c-4.4 35.3 -37.8 59 -72.5 51.5z"></path><path d="M61.5 76.6 c-2.6 -1 -5.6 -3.4 -8.5 -6.8 -10.3 -12.1 -15.5 -16.6 -21.6 -18.4 -6.7 -1.9 -13.1 -1.4 -18.2 1.6 -1.9 1.2 -3.7 1.9 -3.9 1.6 -0.8 -0.8 1.7 -7.7 5.5 -15 7.1 -13.6 21.8 -25.1 37.2 -29.1 9.3 -2.4 27.2 -1.7 35.5 1.5 8.4 3.2 18.6 10.1 24.4 16.7 5 5.6 11.1 16.7 12.9 23.4 l1 3.6 -4.7 -2.6 c-3.7 -2.1 -5.9 -2.6 -11.1 -2.6 -9.3 0 -15.3 3.6 -24.1 14.2 -3.8 4.5 -8.2 9.1 -9.7 10.2 -3.9 2.8 -9.8 3.4 -14.7 1.7z"></path></g></svg>