<?xml version="1.0" encoding="UTF-8"?>
<svg id="layer" xmlns="http://www.w3.org/2000/svg" version="1.1" viewBox="0 0 600.1 196.5">
  <!-- Generator: Adobe Illustrator 29.8.2, SVG Export Plug-In . SVG Version: 2.1.1 Build 3)  -->
  <defs>
    <style>
      .st0 {
        fill: #1e1f24;
      }

      .st1 {
        fill: #e20436;
      }
    </style>
  </defs>
  <path class="st0" d="M135.7,56.1l1,.4c.4,0,.8-.2,1.1-.5l1.6-1.9c.6-.6.5-1.6-.1-2.1s-1.5-.5-2.1.1l-1.7,1.9c-.5.6-.4,1.6.2,2.1M140.6,60.9c.3.3.7.5,1.1.5l1-.4,4.2-3.7c.6-.5.6-1.4.1-2s-1.5-.7-2-.1l-4.1,3.7c-.9.5-.9,1.4-.3,2M144.8,66.2c.3.4.7.6,1.1.6l.8-.3,7.5-5.2c.6-.4.8-1.3.4-1.9-.4-.6-1.3-.8-1.9-.4l-7.6,5.2c-.6.5-.8,1.4-.3,2M148.3,72c.3.5.7.7,1.2.7l.6-.2,12-6.3c.7-.3.9-1.2.6-1.8-.3-.7-1.2-.9-1.8-.6l-12,6.3c-.7.4-.9,1.3-.6,1.9M151.2,78.2c.2.5.7.9,1.2.9h.5c0-.1,17.3-6.7,17.3-6.7.7-.3,1-1,.7-1.7s-1-1-1.7-.8l-17.3,6.5c-.7.4-1,1.1-.7,1.8M153.2,84.7c.2.6.7,1,1.2,1h.3l23.5-5.8c.7-.2,1.1-.9.9-1.5-.2-.7-.9-1.1-1.6-.9l-23.4,5.8c-.6,0-1,.7-.9,1.4M154.5,91.4c.1.6.6,1.1,1.2,1.1h.2l30.3-3.7c.7-.1,1.2-.7,1.1-1.4-.1-.7-.7-1.2-1.4-1.1l-30.3,3.7c-.7.1-1.2.8-1.1,1.4M193.7,99.4c.6,0,1.2-.5,1.2-1.2s-.6-1.2-1.2-1.2h-36.8c-.6,0-1.2.5-1.2,1.2s.6,1.2,1.2,1.2h36.8ZM195.5,111.1c.6,0,1-.4,1.1-1s-.4-1.2-1-1.2l-38.7-4.7c-.6-.1-1.1.4-1.3,1-.1.6.4,1.2,1,1.2l38.9,4.7h0ZM193.1,122.7h.2c.5,0,.9-.3,1.1-.8.1-.6-.2-1.1-.8-1.3l-37.2-9.2c-.6-.1-1.2.2-1.3.8-.2.6.2,1.1.7,1.3l37.3,9.2ZM189.5,133.9h.4c.4.1.8-.2.9-.6.2-.5,0-1.1-.6-1.3l-34.7-13.2c-.5-.2-1.1.1-1.3.6s0,1.1.6,1.3l34.7,13.2ZM184.6,144.6h.4c0,.1.9-.4.9-.4.2-.5,0-1.1-.4-1.3l-31.3-16.4c-.5-.3-1.1-.1-1.3.4-.3.5-.1,1.1.4,1.3l31.3,16.4ZM178.4,154.6l.6.2.7-.4c.3-.4.2-1-.2-1.3l-27.3-18.8c-.4-.3-1-.2-1.3.2-.3.4-.2,1,.3,1.3l27.2,18.8ZM171,163.8l.6.2.7-.3c.4-.4.4-1-.1-1.3l-22.7-20.1h-1.3c-.3.5-.3,1.1.1,1.4l22.7,20.1ZM162.6,172.1l.7.3.6-.2v-1.2l-17.7-20h-1.2c0-.1-.1,1.2-.1,1.2l17.7,19.9ZM153.3,179.3l.7.4.5-.2c.4-.3.4-.8.2-1.2l-12.8-18.6c-.3-.4-.8-.5-1.2-.2s-.5.8-.2,1.2l12.8,18.6ZM143.1,185.3l.7.4h.4c.4-.3.5-.8.3-1.2l-8.2-15.6c-.2-.4-.7-.6-1.1-.3-.4.2-.6.7-.4,1.1l8.3,15.6ZM132.4,190l.7.5h.2c.4-.2.6-.6.5-1l-4.2-11.2c-.1-.4-.6-.6-1-.4-.4.1-.6.6-.4,1l4.2,11.1ZM121.1,193.5l.7.5h.2l.5-.9-1.3-5.2c-.1-.4-.5-.6-.9-.5s-.6.5-.5.9l1.3,5.2ZM142.5,139.3l.9.4c.4,0,.9-.2,1.1-.5.6-.6.5-1.6-.1-2.1l-1.9-1.7c-.6-.5-1.6-.5-2.1.1-.6.6-.4,1.6.2,2.1l1.9,1.7ZM139.3,146.6c.3.3.7.5,1.1.5l1-.4c.6-.5.6-1.4.1-2l-3.7-4.1c-.5-.6-1.5-.7-2-.1-.6.5-.6,1.4-.1,2l3.6,4.1ZM135.3,154.2c.2.4.7.6,1.1.6l.8-.3c.6-.4.8-1.3.4-2l-5.2-7.6c-.5-.6-1.3-.8-2-.4-.6.5-.8,1.3-.3,1.9l5.2,7.8ZM130.3,162c.3.5.7.7,1.2.7h.6c.7-.4.9-1.3.6-1.9l-6.3-12c-.4-.7-1.1-.9-1.8-.6s-.9,1.2-.6,1.8l6.3,12ZM124.2,170c.2.5.7.8,1.2.8h.5c.7-.4,1-1.1.7-1.8l-6.6-17.3c-.2-.7-1-1-1.7-.8-.7.3-1.1,1-.8,1.7l6.7,17.4ZM116.7,178.1c.2.6.7,1,1.3,1h.3c.7-.2,1.1-.8.9-1.5l-5.8-23.5c-.1-.7-.8-1.1-1.5-.9s-1.1.9-.9,1.5l5.7,23.4ZM107.8,186.1c.1.6.6,1.1,1.2,1.1h.1c.7-.1,1.1-.7,1.1-1.4l-3.7-30.3c0-.7-.7-1.2-1.4-1.1-.7.1-1.2.7-1.1,1.4l3.8,30.3ZM97.2,193.6c0,.7.6,1.2,1.2,1.2s1.2-.5,1.2-1.2v-36.7c0-.7-.6-1.2-1.2-1.2s-1.2.5-1.2,1.2v36.7ZM86.4,196.5h.2c.5,0,1-.4,1.1-1l4.7-38.7c0-.6-.3-1.2-1-1.2-.6-.1-1.1.4-1.2,1l-4.7,38.7c0,.6.3,1.1.9,1.2M74.7,194.3h.2c.5,0,.9-.3,1-.8l9.2-37.2c.2-.6-.2-1.2-.7-1.3-.6-.1-1.1.2-1.3.8l-9.2,37.2c0,.6.2,1.2.8,1.3M63.3,190.7h.3c.4.1.9-.2,1-.6l13.2-34.7c.2-.5,0-1.1-.6-1.3-.6-.2-1.1.1-1.3.6l-13.1,34.7c-.3.5,0,1.1.5,1.3M52.4,185.8h.4c0,.1.9-.4.9-.4l16.5-31.3c.3-.5,0-1.1-.4-1.3-.5-.3-1.1-.1-1.4.4l-16.4,31.3c-.2.4,0,1,.4,1.3M42.3,179.6l.6.2.7-.4,18.8-27.3c.3-.4.2-1-.2-1.3-.4-.3-1-.2-1.3.2l-18.9,27.3c-.3.4-.2,1,.3,1.3M32.9,172.2l.6.2.6-.3,20.1-22.7c.3-.4.3-1,0-1.3s-1-.3-1.3.1l-20,22.7c-.4.4-.3,1,.1,1.3M24.4,163.7l.7.3.6-.2,20-17.8v-1.2c0,0-1.2-.1-1.2-.1l-20,17.8v1.2M17.1,154.3l.7.4h.5c0-.1,18.6-12.9,18.6-12.9l.2-1.2c-.2-.4-.8-.5-1.2-.2l-18.6,12.8c-.3.2-.4.7-.2,1.1M11,144.1l.7.4h.4c0-.1,15.6-8.3,15.6-8.3.4-.2.5-.7.3-1.1s-.7-.5-1.1-.3l-15.6,8.2c-.3.2-.5.7-.3,1.1M6.2,133.2l.7.5h.2l11.2-4.2c.4-.1.6-.6.5-1-.2-.4-.6-.6-1-.5l-11.2,4.2c-.4.2-.6.6-.4,1M2.7,121.8l.7.6h.2l5.2-1.3c.4-.1.6-.5.5-.9s-.5-.6-.9-.5l-5.2,1.3c-.4,0-.6.5-.5.8M57.4,144.5l1,.4c.4,0,.8-.2,1.1-.5l1.7-1.9c.6-.6.5-1.5,0-2.1-.6-.5-1.6-.5-2.1.1l-1.7,1.9c-.5.6-.5,1.5,0,2.1M49.9,141.2c.2.3.7.5,1,.5l1-.4,4.2-3.7c.6-.5.7-1.5,0-2-.6-.6-1.4-.7-2-.1l-4.1,3.7c-.7.5-.8,1.4-.2,2M42.1,137.1c.3.4.7.6,1.1.6l.8-.3,7.5-5.2c.6-.4.8-1.3.4-1.9s-1.3-.8-1.9-.4l-7.6,5.2c-.6.5-.7,1.4-.3,2M34,132c.2.5.7.7,1.2.7l.6-.2,12-6.3c.7-.3.9-1.2.6-1.8-.4-.7-1.2-.9-1.8-.6l-11.9,6.3c-.7.4-1,1.2-.7,1.9M25.8,125.8c.2.5.7.8,1.3.8h.4c0-.1,17.3-6.7,17.3-6.7.7-.2,1-1,.7-1.7-.2-.7-1-1-1.7-.8l-17.2,6.7c-.7.2-1,1-.8,1.7M17.6,118.2c.2.6.7,1,1.2,1h.3l23.5-5.8c.7-.2,1.1-.9.9-1.5-.2-.7-.9-1.1-1.6-.9l-23.4,5.8c-.7,0-1.1.7-.9,1.4M9.5,109c.1.6.6,1.1,1.2,1.1h.1l30.3-3.7c.7-.1,1.2-.7,1.1-1.4,0-.7-.7-1.1-1.4-1.1l-30.3,3.7c-.6.2-1.1.8-1,1.4M39.8,99.4c.6,0,1.2-.5,1.2-1.2s-.6-1.2-1.2-1.2H3c-.6,0-1.2.5-1.2,1.2s.6,1.2,1.3,1.2h36.7ZM39.8,92.3h0c.6,0,1.1-.4,1.1-1,0-.6-.4-1.2-1-1.2L1.3,85.4c-.6-.1-1.2.4-1.3,1-.1.6.4,1.2.9,1.2l38.9,4.7ZM40.3,85h.3c.5,0,.9-.3,1-.8.2-.6-.2-1.2-.8-1.3L3.6,73.7c-.5-.1-1.1.2-1.3.8-.1.6.2,1.2.8,1.3l37.2,9.2ZM41.2,77.7h.4c.4.1.8-.1.9-.6.2-.5,0-1.1-.6-1.3L7.1,62.6c-.5-.2-1.1.1-1.3.6-.2.5.1,1.1.6,1.3l34.8,13.2ZM42.6,70.1h.5c0,.1.9-.4.9-.4.3-.5,0-1.1-.4-1.3l-31.3-16.4c-.5-.3-1.1-.1-1.4.4-.2.5,0,1.1.4,1.3l31.3,16.4ZM44.6,62.2l.5.2.8-.4c.3-.4.2-1-.3-1.3l-27.2-18.8c-.4-.3-1-.2-1.3.2-.3.4-.2,1,.2,1.3l27.3,18.8ZM47.2,54.1l.6.2.7-.3c.4-.4.3-1,0-1.3l-22.7-20.1c-.4-.3-.9-.3-1.3.1-.4.4-.3,1,0,1.3l22.7,20.1ZM50.6,45.6l.7.3.6-.2v-1.2c0,0-17.7-20-17.7-20h-1.3c0-.1,0,1.1,0,1.1l17.7,20ZM54.9,36.8l.7.4.5-.2c.4-.3.5-.8.2-1.2l-12.8-18.6c-.3-.4-.8-.5-1.2-.2-.4.2-.5.8-.2,1.2l12.8,18.6ZM60.4,27.6l.7.4h.4c.4-.3.6-.8.3-1.2l-8.2-15.6c-.2-.4-.7-.6-1.1-.3-.4.2-.6.7-.3,1.1l8.2,15.6ZM67.2,18.1l.7.5h.3c.4-.2.6-.7.5-1.1l-4.2-11.1c-.2-.4-.6-.6-1-.4-.4.1-.6.6-.4,1l4.1,11.1ZM75.5,8.6l.7.6h.2c.4-.1.6-.5.6-.9l-1.3-5.2c0-.4-.4-.6-.8-.5s-.6.5-.6.9l1.2,5.1ZM54.2,61l.9.4c.4,0,.9-.2,1.1-.5.6-.6.5-1.6,0-2.1l-1.9-1.7c-.6-.5-1.6-.5-2.1.1-.6.6-.5,1.6,0,2.1l2,1.7ZM59,55.9c.3.3.7.5,1.1.5l.9-.4c.6-.5.7-1.4.2-2l-3.7-4.2c-.6-.6-1.5-.6-2-.1-.6.5-.6,1.5-.2,2l3.7,4.2ZM64.4,51.5c.2.4.7.6,1.1.6l.8-.3c.6-.4.8-1.3.4-1.9l-5.2-7.6c-.4-.6-1.3-.8-2-.4-.6.4-.8,1.3-.3,1.9l5.2,7.7ZM70.3,47.7c.2.5.7.7,1.2.7l.7-.2c.7-.3.9-1.2.6-1.8l-6.3-12c-.4-.7-1.2-.9-1.8-.6-.7.4-.9,1.2-.6,1.8l6.2,12.1ZM76.6,44.7c.2.5.7.8,1.2.8h.5c.7-.4,1.1-1.1.7-1.8l-6.5-17.3c-.2-.7-1-1-1.7-.8-.7.3-1,1-.8,1.7l6.6,17.4ZM83.3,42.4c0,.6.6,1,1.2,1h.3c.7-.2,1.1-.9.9-1.5l-5.7-23.5c-.2-.7-.9-1.1-1.6-.9-.7.2-1.1.9-.9,1.5l5.8,23.4ZM90.2,41c0,.6.6,1.1,1.2,1.1h.2c.6-.1,1.1-.7,1.1-1.4l-3.7-30.3c0-.7-.7-1.1-1.4-1.1-.7.1-1.1.7-1.1,1.4l3.7,30.3ZM97.2,39.6c0,.6.6,1.2,1.2,1.2s1.2-.5,1.2-1.2V2.9c0-.7-.6-1.2-1.2-1.2s-1.2.5-1.2,1.2v36.7ZM105.3,40.9h0c.6,0,1.1-.4,1.1-1L111.2,1.2c0-.6-.4-1.2-1-1.2-.6-.1-1.1.4-1.2,1l-4.7,38.7c0,.6.4,1.1,1,1.2M112.3,41.5h.3c.5,0,.9-.3,1-.8L122.8,3.5c.2-.6-.2-1.2-.7-1.3s-1.2.2-1.3.8l-9.2,37.2c-.1.5.2,1.1.7,1.3M119.5,42.4h.4c.4.1.8-.2,1-.6l13.2-34.7c.2-.5-.1-1.1-.6-1.3-.6-.2-1.1.1-1.4.6l-13.2,34.7c-.2.5.2,1.1.6,1.3M127,43.8h.5c0,.1.9-.4.9-.4l16.4-31.3c.3-.5.1-1.1-.4-1.3-.5-.3-1.1-.1-1.4.4l-16.4,31.3c-.3.4-.1,1,.4,1.3M134.6,45.7l.5.2.8-.4,18.8-27.3c.3-.4.2-1-.3-1.3-.4-.3-1-.2-1.3.2l-18.8,27.3c-.2.5,0,1,.3,1.3M142.6,48.3l.6.2.7-.3,20.1-22.7c.3-.4.3-1-.1-1.3-.4-.3-1-.3-1.3.1l-20,22.7c-.4.4-.4,1,0,1.3M150.9,51.7l.7.3.6-.2,20-17.7v-1.3h-1.2c0-.1-20,17.7-20,17.7v1.2M159.6,56l.7.4.5-.2,18.6-12.8.2-1.2c-.3-.4-.8-.5-1.2-.2l-18.6,12.8c-.3.3-.4.8-.2,1.2M168.7,61.3l.7.4h.4c0-.1,15.6-8.3,15.6-8.3.4-.2.6-.7.4-1.1-.2-.4-.7-.6-1.1-.3l-15.6,8.2c-.5.3-.6.7-.4,1.1M178,68l.7.5h.2l11.2-4.2c.4-.1.6-.6.4-1-.2-.4-.6-.6-1-.5l-11.2,4.2c-.2.2-.4.6-.3,1M187.5,76.3c-.1-.4.1-.8.5-.9l5.2-1.3.8.5c.2.4-.1.8-.5.9l-5.2,1.3h-.2l-.6-.5"/>
  <path class="st0" d="M249.3,99.8V17.9h16.6v36.4l33.4-36.4h22.2l-30.8,31.9,32.5,50h-21.4l-22.5-38.4-13.5,13.7v24.7h-16.5ZM333.4,17.9h16.5v81.9h-16.5V17.9ZM360.7,99.8v-14.9l43-53.1h-38.1v-13.9h59.9v12.8l-44.9,55.2h46.5v13.8h-66.4ZM520.1,99.8h-18l-7.2-18.6h-32.7l-6.8,18.6h-17.6l31.9-81.9h17.5l32.9,81.9ZM489.6,67.4l-11.2-30.4-11.1,30.4h22.3ZM531,17.9h30.2c6.8,0,12,.5,15.6,1.6,4.8,1.4,8.9,3.9,12.3,7.5,3.5,3.6,6.1,8,7.8,13.3,1.8,5.2,2.7,11.7,2.7,19.3s-.9,12.5-2.6,17.4c-2,6-5,10.8-8.7,14.5-2.9,2.8-6.8,5-11.6,6.5-3.7,1.2-8.6,1.7-14.7,1.7h-31.1V17.9h0ZM547.6,31.8v54.2h12.3c4.6,0,8-.3,10-.8,2.7-.7,4.9-1.8,6.7-3.4s3.2-4.2,4.3-7.9c1.1-3.7,1.7-8.7,1.7-15s-.6-11.2-1.7-14.6c-1.1-3.4-2.7-6-4.7-7.9s-4.6-3.2-7.7-3.9c-2.3-.5-6.8-.8-13.6-.8.1,0-7.3,0-7.3,0Z"/>
  <path class="st1" d="M273.9,144.3h-7.6c-2.8,0-4.5-.8-5.2-2.4-.8,1.7-2.5,2.4-5.1,2.4-4.4,0-6.7-2.7-6.7-8s2.2-7.8,6.7-7.8h7.1v9.3c0,2.4,1.2,3.6,3.5,3.6h7.4v2.9h0ZM259.7,131.3h-3.5c-1.4,0-2.4.5-2.9,1.4-.4.7-.7,2-.7,3.7s.2,3,.7,3.7c.6.9,1.5,1.4,2.9,1.4s2.3-.5,2.9-1.4c.4-.8.7-2,.7-3.7v-5.1h-.1ZM256.7,123.6c0,1-.9,1.8-1.8,1.8s-1.8-.8-1.8-1.8.8-1.8,1.8-1.8c.9,0,1.8.9,1.8,1.8M261.3,123.6c0,1-.8,1.8-1.8,1.8s-1.8-.8-1.8-1.8.8-1.8,1.8-1.8c1,0,1.8.9,1.8,1.8"/>
  <path class="st1" d="M287.5,144.3h-2.1c-2,0-3.7-.6-4.8-1.8-1.2,1.2-2.8,1.8-5,1.8h-7.9v-2.9h7.7c2.3,0,3.5-1.2,3.5-3.6v-8.4l3.3-1v9.4c0,2.3,1.2,3.5,3.5,3.5h1.9v3h-.1ZM280,149.2c0,1-.9,1.8-1.8,1.8s-1.8-.8-1.8-1.8.7-1.8,1.8-1.8c1,0,1.8.9,1.8,1.8M284.7,149.2c0,1-.8,1.8-1.8,1.8s-1.8-.8-1.8-1.8.8-1.8,1.8-1.8c1,0,1.8.9,1.8,1.8"/>
  <path class="st1" d="M310.8,144.3h-24v-2.9h9.2v-6c0-1.9.6-3.6,1.8-4.9,1.3-1.3,3-2,5.2-2s3.5.7,4.9,2.1l-2.5,2.2c-.9-1-1.8-1.5-2.8-1.5-2.1,0-3.3,1.5-3.3,3.5v6.5h9l2.5,3Z"/>
  <path class="st1" d="M327.4,144.3h-9c-3,0-4.6-1.8-4.6-4.5v-17l3.3-1v17.9c0,1.1.6,1.7,1.7,1.7h8.6v2.9h0Z"/>
  <path class="st1" d="M346.4,144.3h-7.5c-2,0-3.6-.6-4.9-1.8-1.2,1.2-2.8,1.8-4.9,1.8h-7.9v-2.9h7.7c2.3,0,3.5-1.2,3.5-3.6v-8.4l3.3-1v9.4c0,2.3,1.1,3.5,3.5,3.5h7.2v3h0ZM335.7,123.6c0,1-.8,1.8-1.8,1.8s-1.8-.8-1.8-1.8.9-1.8,1.8-1.8c1,0,1.8.9,1.8,1.8"/>
  <path class="st1" d="M376.6,144.3h-36.4v-2.9h9.5v-8.8l3.3-.9v7.2c.5-1.7,1.2-3.4,2.2-4.9,2.2-3.4,5.3-5.1,9.1-5.2,3.4-.1,6,1.3,7.7,4,1.2,2,1.7,4.9,1.5,8.6h3v2.9h0ZM370.3,141.4c.1-.6.1-1.1.1-1.7,0-2.2-.4-3.9-1.3-5.4-1.1-1.7-2.6-2.5-4.6-2.5s-4.7,1.2-6.8,3.6c-1.9,2.1-2.9,4.1-3,6.1,0-.1,15.6-.1,15.6-.1Z"/>
  <path class="st1" d="M390.1,138.2c0,1.8-.6,3.3-1.8,4.4-1.2,1.2-2.8,1.8-4.8,1.8h-7.6v-2.9h7.4c2.3,0,3.4-1.2,3.4-3.6v-15l3.3-1v16.3h.1Z"/>
  <polygon class="st1" points="396.3 144.3 393.1 144.3 393.1 122.8 396.3 121.8 396.3 144.3"/>
  <path class="st1" d="M424.3,144.3h-2.3c-2.7,0-4.4-.8-5.2-2.4-.8,1.7-2.5,2.4-5.1,2.4-4.5,0-6.7-2.7-6.7-8s2.2-7.8,6.7-7.8h7.1v9.3c0,2.4,1.2,3.6,3.4,3.6h2.1v2.9h0ZM415.5,131.3h-3.6c-1.3,0-2.3.5-2.9,1.4-.4.7-.7,2-.7,3.7s.3,3,.7,3.7c.6.9,1.5,1.4,2.9,1.4s2.4-.5,2.9-1.4c.4-.8.7-2,.7-3.7v-5.1h0ZM412.5,123.6c0,1-.8,1.8-1.8,1.8s-1.8-.8-1.8-1.8.8-1.8,1.8-1.8c.9,0,1.8.9,1.8,1.8M417.1,123.6c0,1-.9,1.8-1.8,1.8s-1.8-.8-1.8-1.8.8-1.8,1.8-1.8c1,0,1.8.9,1.8,1.8"/>
  <path class="st1" d="M443,144.3h-7.6c-.7,0-1.3-.1-2-.2-.6.1-1.3.2-2.1.2h-7.7v-2.9h5.2c-1.4-1.6-2.2-3.2-2.2-5s.4-4,1.3-5.4c1.3-1.7,3.1-2.5,5.5-2.5s4.3.8,5.5,2.5c.9,1.4,1.5,3.2,1.4,5.4-.1,1.7-.8,3.4-2.2,5h5v2.9h0ZM433.3,131.5c-2.3,0-3.6,1.9-3.6,4.3s.3,2.4.9,3.4c.7,1.2,1.6,2,2.8,2.3,1.2-.4,2.1-1.2,2.8-2.3.6-1,.9-2.1.9-3.4-.2-2.4-1.4-4.3-3.8-4.3M435.1,123.6c0,1-.9,1.8-1.8,1.8s-1.8-.8-1.8-1.8.8-1.8,1.8-1.8,1.8.8,1.8,1.8"/>
  <path class="st1" d="M456.5,144.3h-2.1c-2.1,0-3.7-.6-4.8-1.8-1.2,1.2-2.9,1.8-5,1.8h-2.5v-2.9h2.3c2.3,0,3.5-1.2,3.5-3.6v-8.4l3.3-1v9.4c0,2.3,1.1,3.5,3.5,3.5h1.9v3h0ZM449,149.2c0,1-.9,1.8-1.8,1.8s-1.8-.8-1.8-1.8.7-1.8,1.8-1.8c.9,0,1.8.9,1.8,1.8M453.7,149.2c0,1-.9,1.8-1.8,1.8s-1.8-.8-1.8-1.8.8-1.8,1.8-1.8c.9,0,1.8.9,1.8,1.8"/>
  <path class="st1" d="M482.6,144.3h-9c-2,0-3.6-.6-4.8-1.9-1.1,1.3-2.8,1.9-4.9,1.9h-8.2v-2.9h8c2.3,0,3.5-1.2,3.5-3.6v-15l3.3-1v16.2c0,2.3,1.2,3.4,3.4,3.4h8.8v2.9h0Z"/>
  <path class="st1" d="M500.3,144.3h-18.6v-2.9h15.3v-1.3c0-2.6-.3-4.6-.7-5.8-.8-2-2.3-2.9-4.6-2.9s-3.7.9-5.3,2.7l-2.4-2.2c2.4-2.3,4.9-3.4,7.7-3.4s6,1.3,7.3,3.8c.9,1.8,1.3,4.4,1.3,7.8v4.2h0ZM493.5,123.6c0,1-.8,1.8-1.8,1.8s-1.8-.8-1.8-1.8.8-1.8,1.8-1.8c.9,0,1.8.9,1.8,1.8"/>
  <path class="st1" d="M533.7,144.3h-7.7c-2.7,0-4.4-.8-5.2-2.4-.8,1.7-2.5,2.4-5.1,2.4-4.5,0-6.7-2.7-6.7-8s2.2-7.8,6.7-7.8h7.1v9.3c0,2.4,1.2,3.6,3.4,3.6h7.5v2.9h0ZM519.4,131.3h-3.6c-1.3,0-2.3.5-2.9,1.4-.4.7-.7,2-.7,3.7s.3,3,.7,3.7c.6.9,1.5,1.4,2.9,1.4s2.4-.5,2.9-1.4c.4-.8.7-2,.7-3.7v-5.1h0ZM516.4,123.6c0,1-.8,1.8-1.8,1.8s-1.8-.8-1.8-1.8.8-1.8,1.8-1.8c1,0,1.8.9,1.8,1.8M521.1,123.6c0,1-.9,1.8-1.8,1.8s-1.8-.8-1.8-1.8.8-1.8,1.8-1.8c.9,0,1.8.9,1.8,1.8"/>
  <path class="st1" d="M547.2,144.3h-2.1c-2.1,0-3.7-.6-4.8-1.8-1.2,1.2-2.8,1.8-5,1.8h-2.6v-2.9h2.3c2.4,0,3.5-1.2,3.5-3.6v-8.4l3.3-1v9.4c0,2.3,1.1,3.5,3.4,3.5h1.9v3h0ZM542,123.6c0,1-.9,1.8-1.8,1.8s-1.9-.8-1.9-1.8.9-1.8,1.9-1.8c.9,0,1.8.9,1.8,1.8"/>
  <path class="st1" d="M555.7,138.2c0,1.8-.6,3.3-1.8,4.4-1.2,1.2-2.8,1.7-4.8,1.7h-2.7v-2.9h2.5c2.3,0,3.5-1.2,3.5-3.6v-8.4l3.3-1v9.8h0ZM550.2,149.2c0,1-.8,1.8-1.8,1.8s-1.8-.8-1.8-1.8.9-1.8,1.8-1.8c1,0,1.8.9,1.8,1.8M554.9,149.2c0,1-.8,1.8-1.8,1.8s-1.8-.8-1.8-1.8.8-1.8,1.8-1.8c1.1,0,1.8.9,1.8,1.8"/>
  <path class="st1" d="M582.6,144.3h-24l2-2.9h8.6v-6.6c0-2.3-1.2-3.4-3.7-3.4s-3.5,1-4.7,3v-3.8c1.6-1.4,3.1-2.1,4.7-2.1s3.7.6,5,1.6c1.3,1.1,1.9,2.5,1.9,4.3v6.8h10.1v3.1h.1Z"/>
  <path class="st1" d="M600.1,136.9c0,2.1-.5,3.8-1.4,5.1-1.2,1.6-2.9,2.4-5.3,2.4s-3.7-.6-4.9-1.8c-1.1,1.2-2.8,1.8-5.1,1.8h-1.6v-2.9h1.4c2.3,0,3.4-1.2,3.4-3.5v-1.1c0-2.1.5-3.8,1.4-5.2,1.2-1.6,2.9-2.3,5.4-2.3s4.1.8,5.3,2.3c.9,1.3,1.4,3,1.4,5.2M596.8,136.9c0-3.1-1.1-4.7-3.4-4.7s-3.5,1.6-3.5,4.7,1.2,4.7,3.5,4.7c2.3-.1,3.4-1.6,3.4-4.7"/>
  <path class="st1" d="M249.3,178.2v-19.2h3.9v8.5l7.8-8.5h5.1l-7.2,7.5,7.6,11.7h-5l-5.3-9-3.1,3.2v5.8h-3.8ZM268.1,178.2v-19.2h3.8v7.5h7.6v-7.5h3.8v19.2h-3.8v-8.4h-7.6v8.4h-3.8ZM304.1,178.2h-4.2l-1.7-4.4h-7.7l-1.6,4.4h-4.1l7.5-19.2h4.1l7.7,19.2ZM297,170.6l-2.7-7.1-2.6,7.1h5.3ZM305.7,178.2v-19h3.9v15.8h9.6v3.2h-13.5ZM321.3,159h3.9v19.2h-3.9v-19.2ZM328.4,178.2v-19.2h13.1v3.2h-9.3v4.5h8v3.2h-8v8.2h-3.8ZM360,178.2h-4.2l-1.7-4.3h-7.7l-1.6,4.4h-4l7.4-19.2h4.1l7.7,19.1ZM352.9,170.6l-2.7-7.1-2.6,7.1h5.3ZM367.3,159h3.9v19.2h-3.9v-19.2ZM374.4,178.2v-19.2h3.7l7.9,12.8v-12.8h3.6v19.2h-3.9l-7.7-12.5v12.5h-3.6ZM393.1,159h7.1c1.6,0,2.8.1,3.7.4,1.1.3,2,.9,2.8,1.8.8.8,1.5,1.9,1.8,3.1.4,1.2.7,2.7.7,4.5s-.2,2.9-.6,4.1c-.5,1.4-1.2,2.5-2.1,3.4s-1.5,1.2-2.7,1.5c-.9.3-2,.4-3.4.4h-7.3v-19.2h0ZM397,162.3v12.7h2.9c1.1,0,1.9-.1,2.4-.2.6-.2,1.1-.4,1.5-.8s.8-1,1-1.8c.3-.9.4-2,.4-3.5s-.2-2.6-.4-3.4c-.2-.8-.6-1.4-1.1-1.9s-1-.7-1.8-.9c-.5-.1-1.6-.2-3.2-.2h-1.7ZM411.9,159h3.9v10.4c0,1.7,0,2.7.1,3.2.2.8.6,1.4,1.2,1.9s1.5.7,2.6.7,1.9-.2,2.5-.7c.6-.4.9-1,1-1.7s.2-1.7.2-3.3v-10.6h3.9v10.2c0,2.3-.1,3.9-.3,4.9-.2.9-.6,1.8-1.1,2.4-.6.7-1.3,1.2-2.3,1.6-.9.4-2.1.6-3.7.6s-3.2-.2-4.1-.6-1.7-1-2.3-1.7c-.5-.7-.9-1.4-1-2.1-.3-1.1-.4-2.7-.4-4.9l-.2-10.3h0ZM429.8,172l3.7-.4c.2,1.3.7,2.2,1.4,2.8.7.6,1.7.9,2.8.9s2.2-.3,2.8-.8c.6-.5.9-1.1.9-1.9s-.1-.8-.4-1.2c-.2-.3-.7-.6-1.4-.8-.5-.2-1.5-.4-3.1-.8-2-.5-3.5-1.1-4.4-1.9-1.2-1.1-1.8-2.3-1.8-3.9s.3-1.9.8-2.7c.6-.8,1.4-1.5,2.4-1.9,1.1-.4,2.3-.7,3.8-.7,2.4,0,4.2.5,5.4,1.6,1.2,1.1,1.8,2.5,1.9,4.2l-3.9.2c-.2-1-.5-1.7-1-2.1-.6-.4-1.4-.6-2.4-.6s-2,.2-2.7.7c-.4.3-.6.7-.6,1.2s.2.8.6,1.2c.5.4,1.7.8,3.6,1.3,1.8.4,3.2.9,4.2,1.4.9.5,1.6,1.1,2.1,1.9s.8,1.8.8,3.1-.3,2.1-.9,3.1-1.5,1.7-2.6,2.1c-1.1.5-2.5.7-4.2.7s-4.3-.6-5.6-1.7c-1.3-1.2-2-2.9-2.2-5M452.4,178.2v-15.9h-5.7v-3.2h15.2v3.2h-5.7v15.9h-3.8ZM463.9,178.2v-19.1h8.1c2.1,0,3.5.2,4.5.5.9.3,1.6,1,2.2,1.8.6.9.9,1.9.9,3s-.4,2.6-1.3,3.6c-.9.9-2.1,1.5-3.8,1.8.9.5,1.5,1,2.1,1.6.5.6,1.3,1.6,2.2,3.1l2.3,3.7h-4.6l-2.8-4.2c-1-1.5-1.7-2.4-2.1-2.8-.3-.4-.7-.7-1.1-.8-.4-.1-1.1-.2-2-.2h-.7v8h-3.9ZM467.8,167.1h2.9c1.8,0,3-.1,3.5-.2.4-.2.8-.4,1.1-.8.3-.4.4-.9.4-1.4s-.2-1.2-.6-1.6c-.3-.4-.8-.6-1.4-.8-.4,0-1.3-.1-2.9-.1h-3v4.9h0ZM482.6,159h3.9v19.2h-3.9v-19.2ZM506.8,178.2h-4.2l-1.7-4.4h-7.7l-1.5,4.4h-4.1l7.5-19.2h4.1l7.6,19.2ZM499.7,170.6l-2.6-7.1-2.6,7.1h5.2ZM508.5,178.2v-19h3.9v15.8h9.6v3.2h-13.5ZM529,178.2v-3.5l10.1-12.4h-9v-3.2h14v3l-10.5,12.9h10.9v3.2h-15.5ZM545.7,168.7c0-2,.3-3.6.9-4.9.4-1,1-1.9,1.8-2.6.7-.8,1.6-1.3,2.5-1.7,1.2-.5,2.6-.8,4.1-.8,2.9,0,5.1.9,6.8,2.6,1.7,1.8,2.6,4.2,2.6,7.3s-.9,5.5-2.6,7.3c-1.7,1.7-3.9,2.6-6.7,2.6s-5.1-.9-6.8-2.6c-1.8-1.7-2.6-4.1-2.6-7.2M549.6,168.6c0,2.2.5,3.8,1.5,4.9.9,1.1,2.3,1.7,3.8,1.7s2.8-.6,3.9-1.7c.9-1.1,1.5-2.8,1.5-5s-.5-3.8-1.4-4.9c-1-1.1-2.3-1.6-3.9-1.6s-2.9.5-3.8,1.6c-1.1,1.2-1.6,2.8-1.6,5M566.8,178.2v-19.2h3.7l7.9,12.8v-12.8h3.6v19.2h-3.9l-7.7-12.5v12.5h-3.6ZM585.5,178.2v-19.2h14.2v3.2h-10.3v4.3h9.6v3.2h-9.6v5.2h10.7v3.2h-14.6Z"/>
</svg>