<svg xmlns="http://www.w3.org/2000/svg" width="721px" height="234px" viewBox="0 0 721 234" preserveAspectRatio="xMidYMid meet"><g fill="#2b2277"><path d="M603.6 223.2 c-2.7 -0.9 -5.2 -2.3 -5.4 -3 -0.2 -0.8 0.9 -0.5 3.1 0.8 1.9 1.1 6.1 2.4 9.3 2.9 5 0.7 5.3 0.9 1.9 0.9 -2.2 0.1 -6.2 -0.7 -8.9 -1.6z"></path><path d="M606 221.5 c-6.1 -1.9 -12.5 -7.6 -15.7 -13.9 -2.3 -4.4 -2.7 -6.7 -3.1 -16.2 l-0.4 -11.1 4.5 -2.6 c2.5 -1.5 4.8 -2.7 5.1 -2.7 0.3 0 0.6 5.3 0.6 11.8 0 10.2 0.3 12.4 2.3 16.2 5.2 10.3 18 13.1 26.4 5.7 5.7 -5 6.3 -7.5 6.3 -26.8 0 -19.2 -0.7 -22.1 -6.7 -26.6 -4.6 -3.5 -13.4 -4.3 -18.4 -1.8 -1.9 1 -13.5 7.6 -25.8 14.8 -24.4 14.1 -29.1 16.1 -36.3 15.3 -19 -2.1 -30.3 -21.1 -22.9 -38.2 2.8 -6.4 7.5 -10.9 17 -16.4 l7.3 -4.2 4.9 2.3 c2.7 1.2 4.9 2.6 4.9 2.9 0 0.4 -4.2 3.1 -9.2 6 -14.1 8 -17 11.4 -17.1 19.9 -0.2 12.8 12.2 21.3 23.5 16.3 2.5 -1.1 15.3 -8.2 28.4 -15.8 l23.9 -13.9 7.8 -0.3 c6.8 -0.4 8.4 -0.1 13.2 2.3 3 1.4 7 4.4 8.9 6.7 5.8 6.7 6.6 10.7 6.6 31.7 0 16.5 -0.3 19.1 -2.1 23.1 -2.5 5.5 -8.1 11.5 -13.4 14.2 -5.1 2.6 -14.6 3.2 -20.5 1.3z"></path><path d="M591 214.5 c-0.6 -0.8 -1 -1.9 -0.8 -2.4 0.1 -0.5 1.1 0.2 2.1 1.5 1.9 2.6 0.8 3.4 -1.3 0.9z"></path><path d="M638.2 212 c1.4 -2.2 2.4 -1.9 1.5 0.5 -0.4 0.8 -1.1 1.5 -1.7 1.5 -0.6 0 -0.6 -0.7 0.2 -2z"></path><path d="M607 209.5 c-1.6 -0.9 -1.9 -1.4 -0.9 -1.5 0.8 0 2.4 0.7 3.5 1.5 2.4 1.8 0.7 1.9 -2.6 0z"></path><path d="M585.4 191.5 c0 -5.5 0.1 -7.6 0.3 -4.7 0.2 2.9 0.2 7.4 0 10 -0.2 2.6 -0.3 0.2 -0.3 -5.3z"></path><path d="M76 194.7 c-1.7 -0.8 -2.6 -2.2 -2.8 -4.3 -0.4 -4 1.8 -6.2 6.9 -7 2.1 -0.4 3.9 -1.1 3.9 -1.6 0 -1.6 -2.9 -2 -6 -1 -2.8 1 -3 0.9 -3 -1.2 0 -2.7 1.7 -3.6 6.5 -3.6 5.5 0 7.2 2.4 7.8 11.3 0.5 7.6 0.5 7.7 -1.9 7.7 -1.3 0 -2.4 -0.5 -2.4 -1.1 0 -0.5 -1 -0.3 -2.2 0.5 -2.7 1.9 -3.5 1.9 -6.8 0.3z"></path><path d="M116.8 194 c-4.6 -3.5 -5 -11.8 -0.8 -16 2.2 -2.2 7 -2.6 8.8 -0.8 0.9 0.9 1.2 0 1.2 -4.1 0 -5.1 0.1 -5.2 2.8 -4.9 l2.7 0.3 0.3 13.3 0.3 13.3 -3.8 -0.1 c-2.1 -0.1 -4.9 0.2 -6.3 0.5 -1.8 0.5 -3.4 0 -5.2 -1.5z"></path><path d="M201.3 194.5 c-9.1 -3.9 -5.9 -18.5 4.2 -18.5 9.9 0 13.3 14 4.5 18.5 -3.5 1.8 -4.6 1.8 -8.7 0z"></path><path d="M238.5 194.8 c-6.4 -3.6 -3.8 -10.4 4.4 -11.5 3.5 -0.5 3.9 -0.8 2.9 -2 -1.1 -1.4 -3.4 -1.4 -7 0.2 -1.5 0.6 -1.8 0.2 -1.8 -1.8 0 -2.2 0.6 -2.7 3.7 -3.3 7.9 -1.5 11.3 2.2 11.3 12.4 0 6 -0.1 6.2 -2.5 6.2 -1.4 0 -2.5 -0.5 -2.5 -1.1 0 -0.5 -1 -0.3 -2.2 0.5 -2.6 1.9 -3.6 1.9 -6.3 0.4z"></path><path d="M259.2 194.4 c-1.8 -1.3 -2.2 -2.5 -2.2 -7.3 0 -5 -0.3 -5.9 -2 -6.4 -2.5 -0.7 -2.6 -3.7 -0.1 -4.4 1.1 -0.3 2.1 -1.3 2.4 -2.4 0.7 -2.6 4.7 -2.6 4.7 0.1 0 1.3 0.7 2 2 2 1.5 0 2 0.7 2 2.5 0 1.9 -0.5 2.5 -2.1 2.5 -1.8 0 -2 0.5 -1.7 4.8 0.3 4 0.6 4.7 2.6 5 2.6 0.4 3 3.7 0.6 4.6 -2.4 0.9 -3.8 0.7 -6.2 -1z"></path><path d="M282.5 194.6 c-9 -3.9 -6 -18.6 3.8 -18.6 4.3 0 9.2 3.8 10 7.7 0.7 4 -1.6 8.9 -5.2 10.7 -3.6 1.9 -4.7 1.9 -8.6 0.2z"></path><path d="M351.5 194.8 c-6.4 -3.6 -3.8 -10.4 4.4 -11.5 3.5 -0.5 3.9 -0.8 2.9 -2 -1.1 -1.4 -3.4 -1.4 -7 0.2 -1.4 0.6 -1.8 0.2 -1.8 -1.8 0 -2.6 2 -3.7 7.1 -3.7 5.2 0 7.1 2.8 7.7 11.3 l0.5 7.7 -2.7 0 c-1.4 0 -2.6 -0.5 -2.6 -1.1 0 -0.5 -1 -0.3 -2.2 0.5 -2.6 1.9 -3.6 1.9 -6.3 0.4z"></path><path d="M93.2 185.8 c0.3 -8.8 0.4 -9.3 2.6 -9.6 1.2 -0.2 2.2 0.2 2.2 0.8 0 0.7 0.6 0.8 1.9 0 3 -1.5 6.6 -1.2 8.4 0.8 1.3 1.4 1.7 3.8 1.7 9.5 0 7.5 -0.1 7.7 -2.5 7.7 -2.4 0 -2.5 -0.2 -2.5 -6.4 0 -4.4 -0.5 -6.7 -1.5 -7.6 -2.6 -2.2 -4.4 0.5 -4.7 7.3 -0.3 6 -0.4 6.2 -3.1 6.5 l-2.8 0.3 0.3 -9.3z"></path><path d="M145 182.5 l0 -12.5 3 0 3 0 0 12.5 0 12.5 -3 0 -3 0 0 -12.5z"></path><path d="M155 185.5 c0 -9.5 0 -9.5 2.5 -9.5 1.4 0 2.5 0.5 2.5 1 0 0.7 0.6 0.7 1.9 0 3 -1.6 5.9 -1.2 8.1 1 1.6 1.6 2 3.3 2 9.5 0 7.3 -0.1 7.5 -2.5 7.5 -2.4 0 -2.5 -0.2 -2.5 -6.4 0 -11.7 -6 -11.4 -6.8 0.4 -0.4 5.5 -0.6 6 -2.8 6 -2.4 0 -2.4 -0.2 -2.4 -9.5z"></path><path d="M176 185.5 c0 -9.5 0 -9.5 2.5 -9.5 1.4 0 2.5 0.5 2.5 1 0 0.7 0.6 0.7 1.9 0 3 -1.6 5.9 -1.2 8.1 1 1.6 1.6 2 3.3 2 9.5 0 7.3 -0.1 7.5 -2.5 7.5 -2.4 0 -2.5 -0.2 -2.5 -6.4 0 -11.7 -6 -11.4 -6.8 0.4 -0.4 5.5 -0.6 6 -2.8 6 -2.4 0 -2.4 -0.2 -2.4 -9.5z"></path><path d="M219.2 186.8 c-3.8 -10.1 -3.9 -10.8 -0.8 -10.8 2.1 0 2.8 0.9 4.7 6.2 l2.3 6.1 1.9 -5.7 c1.9 -5.7 3.4 -7.3 6.1 -6.3 1.2 0.5 0.8 2.3 -1.9 9.4 -3 8.1 -3.5 8.8 -6.2 9.1 -2.9 0.3 -3.1 0 -6.1 -8z"></path><path d="M269 185.5 c0 -9.5 0 -9.5 2.5 -9.5 2.5 0 2.5 0 2.5 9.5 0 9.5 0 9.5 -2.5 9.5 -2.5 0 -2.5 0 -2.5 -9.5z"></path><path d="M299.2 185.8 c0.3 -8.8 0.4 -9.3 2.6 -9.6 1.2 -0.2 2.2 0.2 2.2 0.8 0 0.7 0.6 0.8 1.9 0 2.9 -1.5 6.6 -1.2 8.4 0.8 1.1 1.2 1.6 4 1.8 9.2 0.2 7.5 0.2 7.5 -2.4 7.8 -2.7 0.3 -2.7 0.3 -2.7 -6 0 -7.1 -1.2 -9.3 -4.2 -7.7 -1.5 0.8 -1.8 2.2 -1.8 7.4 l0 6.5 -3 0 -3.1 0 0.3 -9.2z"></path><path d="M330 182.4 l0 -12.6 6.4 0.4 c7.7 0.5 10.6 2.5 10.6 7.2 0 4.6 -2.5 7.5 -7.1 8.2 -3.9 0.6 -3.9 0.7 -3.9 5 0 4.2 -0.1 4.4 -3 4.4 l-3 0 0 -12.6z"></path><path d="M368.2 185.8 c0.3 -8.8 0.4 -9.3 2.6 -9.6 1.5 -0.2 2.2 0.2 2.2 1.3 0 1.5 0.1 1.5 1.6 0 2.2 -2.1 4.8 -1.5 5.2 1.3 0.3 1.6 -0.2 2.2 -1.5 2.2 -3.2 0 -4.3 2.1 -4.3 8.2 0 5.8 0 5.8 -3 5.8 l-3.1 0 0.3 -9.2z"></path><path d="M381.2 181.8 l0.3 -13.3 2.8 -0.3 2.7 -0.3 0 7.3 0.1 7.3 2.7 -3.3 c1.8 -2.2 3.6 -3.2 5.5 -3.2 3.2 0 3.4 1 0.6 3.6 -4.2 3.8 -4.3 5.3 -1 9.9 1.7 2.4 3.1 4.6 3.1 4.9 0 0.3 -1.3 0.6 -2.9 0.6 -2.3 0 -3.4 -0.8 -5.3 -3.7 l-2.3 -3.8 -0.3 3.8 c-0.3 3.4 -0.6 3.7 -3.3 3.7 l-3 0 0.3 -13.2z"></path><path d="M537.5 184.6 c-5.1 -1.6 -8.5 -3.4 -8.5 -4.6 0 -0.5 2.1 0.3 4.8 1.8 3.9 2.2 5.9 2.7 12.3 2.7 4.3 0 7.5 0.3 7.2 0.8 -0.7 1.1 -11.4 0.7 -15.8 -0.7z"></path><path d="M674.5 185.3 c-1.1 -0.3 -2.4 -1 -3 -1.5 -0.7 -0.8 -0.4 -0.9 1 -0.3 1.1 0.4 5.2 1.1 9 1.5 l7 0.7 -6 0 c-3.3 0.1 -6.9 -0.1 -8 -0.4z"></path><path d="M675.5 183 c-1.6 -0.5 -6.8 -3.1 -11.5 -5.7 l-8.5 -4.8 -0.3 -5.8 c-0.2 -3.1 -0.1 -5.7 0.1 -5.7 0.2 0 5.1 2.7 10.8 6 11.6 6.7 14.8 7.6 20.6 6.1 5.4 -1.5 9.2 -4.6 11.4 -9.5 2.4 -5.3 2.4 -10 -0.1 -15.2 -2.4 -4.9 -2.8 -5.2 -32 -22 -12.3 -7.1 -24 -14.4 -25.8 -16.3 -10.3 -10.3 -10.3 -27.9 0 -38.2 3.7 -3.7 28.2 -18.2 34.5 -20.5 13.2 -4.7 29.8 4.2 33.9 18.1 2.2 7.6 1.4 14.9 -2.3 21.7 -3 5.4 -6.9 8.8 -17.1 14.5 l-6.3 3.5 -4.4 -2.3 c-2.5 -1.3 -4.5 -2.7 -4.5 -3.1 0 -0.4 4.8 -3.5 10.6 -7 7 -4.1 11.2 -7.4 12.6 -9.6 6.2 -10 1 -23.2 -10.3 -26.2 -6 -1.6 -9 -0.6 -24.8 8.3 -15.2 8.7 -18.3 11.6 -19.6 18.8 -1 5.2 1.1 11.4 4.8 14.9 1.8 1.7 13.2 8.8 25.4 15.8 27.9 16 30.1 17.6 33.6 24 9.7 17.8 -1.9 39.1 -22 40.7 -3.2 0.2 -7.1 0 -8.8 -0.5z"></path><path d="M523.8 175.8 c-3.1 -4.1 -4.8 -7.3 -4.8 -9 0 -0.7 1.2 0.7 2.6 3.2 1.4 2.5 3.5 5.5 4.6 6.8 1.2 1.2 1.7 2.2 1.1 2.2 -0.6 0 -2.2 -1.5 -3.5 -3.2z"></path><path d="M706.3 172.2 c1.8 -2.7 3.4 -4.4 3.5 -4 0.5 1.2 -4.5 8.8 -5.7 8.8 -0.5 0 0.5 -2.2 2.2 -4.8z"></path><path d="M269 171.5 c0 -2 0.5 -2.5 2.5 -2.5 2 0 2.5 0.5 2.5 2.5 0 2 -0.5 2.5 -2.5 2.5 -2 0 -2.5 -0.5 -2.5 -2.5z"></path><path d="M539.8 170.4 c-1.6 -0.8 -2.8 -1.7 -2.8 -1.9 0 -1 1.6 -0.4 4 1.5 3 2.3 2.5 2.5 -1.2 0.4z"></path><path d="M551.9 170 c2.4 -1.1 4.8 -2 5.5 -2 1.9 0.1 -5.8 3.9 -7.9 3.9 -1.2 0 -0.2 -0.8 2.4 -1.9z"></path><path d="M559 167 c0 -1.1 3.8 -3.2 5 -2.8 0.5 0.2 -0.4 1.1 -2 2 -1.7 0.9 -3 1.3 -3 0.8z"></path><path d="M642.9 163.8 c-0.3 -2.2 -0.1 -3.4 0.4 -2.9 0.5 0.5 0.7 2.1 0.5 3.7 -0.3 2.7 -0.4 2.6 -0.9 -0.8z"></path><path d="M566 163 c0 -1.1 3.8 -3.2 5 -2.8 0.5 0.2 -0.4 1.1 -2 2 -1.7 0.9 -3 1.3 -3 0.8z"></path><path d="M696.4 161.5 c0.4 -1.6 1.2 -3.4 1.7 -3.9 0.5 -0.6 0.5 0.4 -0.1 2.4 -1.2 4.2 -2.5 5.5 -1.6 1.5z"></path><path d="M531.6 161.5 c-0.3 -0.9 -0.6 -2.6 -0.5 -3.8 0.1 -1.6 0.4 -1.2 1 1.2 1 3.4 0.6 5.5 -0.5 2.6z"></path><path d="M517.3 156 c0 -2.5 0.2 -3.5 0.4 -2.2 0.2 1.2 0.2 3.2 0 4.5 -0.2 1.2 -0.4 0.2 -0.4 -2.3z"></path><path d="M70.6 158.1 c-0.3 -0.4 0.1 -1.7 0.9 -2.7 1 -1.4 1.4 -4.8 1.5 -12.1 l0 -10.3 3 0 3 0 0 10.8 c0 8.1 -0.4 11.3 -1.6 13 -1.5 2.2 -5.8 3 -6.8 1.3z"></path><path d="M434.7 158.3 c-0.4 -0.3 -0.7 -1.5 -0.7 -2.6 0 -1.6 0.5 -1.9 3.1 -1.3 3.3 0.6 6.9 -0.7 6.9 -2.7 0 -0.8 -1.4 -1.1 -4.4 -0.9 -5.5 0.5 -7.6 -2 -7.6 -9.1 0 -6.4 3.4 -10.2 8.3 -9.3 1.8 0.4 4.7 0.6 6.5 0.6 l3.2 -0.1 0 9.5 c0 10.5 -1 13.8 -4.7 15.5 -2.6 1.2 -9.6 1.5 -10.6 0.4z"></path><path d="M453 157 c0 -1.3 0.7 -2 1.8 -2 4.1 0 4.2 -1.9 0.6 -11.8 -1.9 -5.2 -3.4 -9.6 -3.4 -9.8 0 -0.2 1.3 -0.4 2.8 -0.4 2.7 0 3 0.5 4.8 6.2 l1.8 6.2 2 -6.2 c1.8 -5.7 2.2 -6.2 4.8 -6.2 1.5 0 2.8 0.1 2.8 0.3 0 1.1 -8.2 21.4 -9.5 23.3 -2.1 3.2 -8.5 3.5 -8.5 0.4z"></path><path d="M573.5 158 c0.3 -0.5 1.1 -1 1.7 -1 0.5 0 2.1 -0.9 3.5 -2 1.4 -1.1 3.3 -2 4.2 -2 0.9 0 -0.6 1.4 -3.4 3 -5.2 3.1 -7.1 3.7 -6 2z"></path><path d="M639.5 154.5 c-2.4 -4.5 -7.6 -9.2 -12.9 -11.6 -2.9 -1.3 -3.5 -1.9 -2 -1.9 5 0 18.4 12.4 17.3 15.9 -0.2 0.6 -1.3 -0.5 -2.4 -2.4z"></path><path d="M620.2 155.6 c-3.4 -1.9 -4 -2.9 -1.2 -2.1 3.3 1 7 3.5 5 3.4 -0.8 -0.1 -2.5 -0.7 -3.8 -1.3z"></path><path d="M710.8 152.5 c-0.3 -2.7 -0.9 -5.9 -1.3 -6.9 -0.6 -1.3 -0.5 -1.7 0.3 -1.2 1.2 0.7 2.6 8.4 2 11.2 -0.2 1.1 -0.7 -0.3 -1 -3.1z"></path><path d="M2.8 151.3 c-1.1 -0.3 -1.8 -1.4 -1.8 -2.8 0 -2.1 0.4 -2.3 4.7 -2.2 3.7 0.2 4.8 -0.2 5.1 -1.5 0.2 -1.2 -1 -2.4 -4.1 -3.8 -5.4 -2.6 -7.6 -6.5 -5.6 -10.2 1.9 -3.6 4 -4.7 9.2 -4.8 4.4 0 4.7 0.2 4.7 2.5 0 2.3 -0.4 2.5 -3.5 2.3 -6.2 -0.4 -7.1 4 -1.2 5.8 7.5 2.2 9.1 10.6 2.6 13.9 -2.7 1.5 -6.6 1.7 -10.1 0.8z"></path><path d="M42.3 150.5 c-4.5 -3.2 -1.9 -10.5 3.8 -10.5 2.7 0 5.7 -1.6 4.7 -2.5 -0.9 -0.9 -4 -0.9 -6.5 -0.1 -2 0.6 -2.3 0.4 -2.3 -1.7 0 -2.2 0.6 -2.6 3.9 -3.2 8.1 -1.4 10.7 1.8 11 13.3 l0.1 5.3 -3.2 -0.1 c-1.8 0 -4.6 0.2 -6.3 0.5 -2 0.4 -3.8 0 -5.2 -1z"></path><path d="M84.3 150.5 c-2.8 -2 -3 -6.5 -0.5 -8.8 1 -0.9 3.4 -1.7 5.5 -1.9 5.3 -0.3 5 -3.1 -0.3 -3 -0.3 0 -1.5 0.3 -2.7 0.7 -2 0.5 -2.3 0.3 -2.3 -1.8 0 -2.1 0.6 -2.6 3.8 -3.2 4.9 -0.8 9 0.8 9.6 3.7 0.3 1.3 0.7 5.1 0.9 8.6 l0.3 6.2 -3.5 -0.1 c-2 0 -4.7 0.2 -6.1 0.6 -1.6 0.4 -3.3 0 -4.7 -1z"></path><path d="M158.4 151 c-3.3 -1.3 -5.4 -5 -5.4 -9.3 0 -3 0.7 -4.6 3 -6.9 2.7 -2.6 3.6 -3 6.8 -2.5 4.5 0.8 7.2 3.8 7.2 8.3 l0 3.3 -6 0.3 c-4.7 0.2 -5.8 0.6 -5.1 1.6 1 1.6 4.6 2 7.9 0.8 1.9 -0.6 2.2 -0.4 2.2 1.7 0 3.4 -5.5 4.8 -10.6 2.7z"></path><path d="M173.8 151.3 c-2 -0.5 -2.2 -1.2 -0.9 -3.2 0.5 -0.8 1.6 -1.1 2.5 -0.8 1.9 0.8 4.6 -0.1 4.6 -1.5 0 -0.5 -1.6 -1.6 -3.5 -2.4 -4.9 -2 -5.8 -5.9 -2.1 -9.1 4.1 -3.5 10.6 -2.9 10.6 0.9 0 1.4 -0.6 1.9 -2.2 1.8 -3.6 -0.3 -4.8 -0.1 -4.8 0.9 0 0.5 1 1.3 2.3 1.7 10.9 3.3 4.6 14.6 -6.5 11.7z"></path><path d="M192.4 150.8 c-6.4 -3 -6.2 -14.8 0.3 -17.7 3.9 -1.8 6.3 -1.3 9.4 1.8 1.9 2 2.9 4 2.9 6 l0 3.1 -6 0 c-6.2 0 -7.6 1.1 -3.9 3 1.5 0.8 2.9 0.8 5.1 0.1 4 -1.4 3.8 -1.4 3.8 0.9 0 3.6 -6.7 5.2 -11.6 2.8z"></path><path d="M209.2 150.4 c-2.7 -1.9 -2.9 -6.4 -0.4 -8.7 1 -0.9 3.4 -1.7 5.5 -1.9 5.3 -0.3 5 -3.1 -0.3 -3 -0.3 0 -1.5 0.3 -2.7 0.7 -2 0.5 -2.3 0.3 -2.3 -1.8 0 -2.1 0.6 -2.6 3.8 -3.2 4.9 -0.8 9 0.8 9.6 3.7 0.3 1.3 0.8 5.2 1.1 8.7 l0.6 6.4 -3.5 -0.6 c-2 -0.3 -3.8 -0.1 -4.1 0.4 -0.9 1.4 -4.8 1.1 -7.3 -0.7z"></path><path d="M244.2 151 c-6.2 -2.5 -6.2 -14.4 -0.1 -17.6 4.2 -2.1 8.3 -1.5 8.7 1.4 0.3 1.8 -0.1 2.2 -2.5 2.2 -3.6 0 -5.3 1.6 -5.3 5 0 3.5 1.7 5 5.7 5 2.6 0 3.3 0.4 3.3 1.9 0 3 -4.9 4 -9.8 2.1z"></path><path d="M306.1 149.4 c-2.7 -2.2 -3.1 -3.3 -3.1 -7.3 0 -3.4 0.6 -5.4 2 -6.9 5.7 -6.1 15 -2.2 15 6.3 0 2.4 -0.3 2.5 -6 2.5 -6.3 0 -7.8 1.3 -3.5 3 1.6 0.6 3.4 0.6 5.1 0 3.4 -1.3 3.4 -1.3 3.4 1 0 4.5 -8.2 5.4 -12.9 1.4z"></path><path d="M325 149.1 c-3.7 -3.6 -4.1 -9.4 -1 -13.4 3.4 -4.3 12 -4.8 12 -0.6 0 1.5 -0.7 1.9 -3.5 1.9 -2.8 0 -3.6 0.4 -4.1 2.4 -0.3 1.3 -0.4 3.5 -0.2 4.7 0.2 2 1 2.5 4.1 2.7 3.3 0.3 3.8 0.6 3.5 2.5 -0.2 1.8 -1.1 2.3 -4.1 2.5 -3 0.3 -4.3 -0.2 -6.7 -2.7z"></path><path d="M383 149.2 c-8 -8.1 0.8 -21 10.8 -15.8 8.7 4.5 6.3 17 -3.5 18.3 -3.7 0.5 -4.5 0.2 -7.3 -2.5z"></path><path d="M414.9 150.5 c-3.3 -1.8 -5.3 -6.5 -4.4 -10.3 1.5 -7.2 10.7 -10.2 15.9 -5.3 8.7 8.1 -1 21.3 -11.5 15.6z"></path><path d="M586.4 150.5 c1.1 -0.8 2.7 -1.5 3.5 -1.5 1 0.1 0.7 0.6 -0.9 1.5 -3.3 1.9 -5 1.8 -2.6 0z"></path><path d="M20.2 137.8 c0.3 -12.9 0.4 -13.3 2.6 -13.6 2 -0.3 2.2 0 2.2 4.8 0 4.6 0.2 5.1 1.8 4.5 4 -1.7 6.1 -1.6 8.1 0.4 1.8 1.8 2.1 3.3 2.1 9.6 0 7.3 -0.1 7.5 -2.5 7.5 -2.3 0 -2.4 -0.3 -2.7 -6.7 -0.3 -6.2 -0.5 -6.8 -2.5 -7.1 -2.8 -0.4 -4.3 2.9 -4.3 9.4 0 4 -0.2 4.4 -2.5 4.4 l-2.6 0 0.3 -13.2z"></path><path d="M60 142 c0 -8.9 0 -9 2.5 -9 1.4 0 2.5 0.5 2.5 1.2 0 0.6 0.8 0.4 2 -0.7 2.5 -2.2 5.2 -1.3 4.8 1.7 -0.2 1.4 -1.2 2.4 -2.8 2.8 -2.3 0.5 -2.5 1.1 -2.8 6.8 -0.3 6.1 -0.3 6.2 -3.2 6.2 l-3 0 0 -9z"></path><path d="M102.2 137.8 c0.3 -12.9 0.4 -13.3 2.6 -13.6 2 -0.3 2.2 0 2.2 4.8 0 4.6 0.2 5.1 1.8 4.5 4 -1.7 6.1 -1.6 8.1 0.4 1.8 1.8 2.1 3.3 2.1 9.6 0 7.3 -0.1 7.5 -2.5 7.5 -2.3 0 -2.4 -0.3 -2.7 -6.7 -0.3 -6.2 -0.5 -6.8 -2.5 -7.1 -2.8 -0.4 -4.3 2.9 -4.3 9.4 0 4 -0.2 4.4 -2.5 4.4 l-2.6 0 0.3 -13.2z"></path><path d="M133 138.5 l0 -12.5 4.9 0 c5.3 0 10.1 1.4 11.3 3.3 1.4 2.1 0.9 7.6 -0.8 8.5 -1.4 0.8 -1.3 1.6 1 7 l2.5 6.2 -3 0 c-2.4 0 -3.2 -0.7 -5.1 -4.7 -3.2 -6.6 -4.8 -6.7 -4.8 -0.4 0 5 -0.1 5.1 -3 5.1 l-3 0 0 -12.5z"></path><path d="M227 142 c0 -8.9 0 -9 2.5 -9 1.4 0 2.5 0.5 2.5 1.2 0 0.6 0.7 0.4 1.8 -0.5 2.6 -2.4 3.9 -2.1 4.5 0.9 0.4 2.5 0.3 2.7 -4 4 -0.9 0.2 -1.3 2.4 -1.3 6.4 l0 6 -3 0 -3 0 0 -9z"></path><path d="M256.2 137.8 c0.3 -12.9 0.4 -13.3 2.6 -13.6 2 -0.3 2.2 0 2.2 4.8 0 4.6 0.2 5.1 1.8 4.5 4 -1.7 6.1 -1.6 8.1 0.4 1.8 1.8 2.1 3.3 2.1 9.6 0 7.3 -0.1 7.5 -2.5 7.5 -2.4 0 -2.5 -0.3 -2.5 -5.4 0 -6.7 -0.7 -8.6 -3.1 -8.6 -2.4 0 -3.9 3.7 -3.9 9.6 0 4 -0.2 4.4 -2.5 4.4 l-2.6 0 0.3 -13.2z"></path><path d="M292 141 l0 -10 -3.5 0 c-3.1 0 -3.5 -0.3 -3.5 -2.5 0 -2.5 0 -2.5 9.5 -2.5 9.5 0 9.5 0 9.5 2.5 0 2.2 -0.4 2.5 -3.5 2.5 l-3.5 0 0 10 0 10 -2.5 0 -2.5 0 0 -10z"></path><path d="M339 137.4 c0 -13.5 0 -13.5 2.3 -13.2 1.8 0.2 2.3 1.1 2.7 5 0.4 3.9 0.8 4.6 2 3.8 2.5 -1.6 5 -1.1 7.5 1.5 2.2 2.1 2.5 3.3 2.5 9.5 l0 7 -3 0 -3 0 0 -7 c0 -6.1 -0.2 -7 -1.8 -7 -3.1 0 -4.2 2.2 -4.2 8.2 0 5.5 -0.1 5.8 -2.5 5.8 l-2.5 0 0 -13.6z"></path><path d="M360 142 l0 -9.1 3.3 0.1 c1.7 0.1 4.4 -0.2 5.9 -0.6 2.1 -0.5 3.3 0 5.2 1.9 2.3 2.3 2.6 3.4 2.6 9.7 l0 7 -3 0 -3 0 0 -7 c0 -6.1 -0.2 -7 -1.8 -7 -3.1 0 -4.2 2.2 -4.2 8.2 0 5.5 -0.1 5.8 -2.5 5.8 -2.5 0 -2.5 -0.1 -2.5 -9z"></path><path d="M402.2 137.8 c0.3 -12.9 0.4 -13.3 2.6 -13.6 2.2 -0.3 2.2 -0.3 2.2 13.2 l0 13.6 -2.5 0 -2.6 0 0.3 -13.2z"></path><path d="M695 148.5 c-0.7 -0.9 -1.1 -1.8 -0.8 -2 0.3 -0.3 1.1 0.1 1.8 1 0.7 0.9 1.1 1.8 0.8 2 -0.3 0.3 -1.1 -0.1 -1.8 -1z"></path><path d="M597 145 c0 -1.5 7.9 -5 11 -4.9 1.8 0 1.4 0.4 -1.8 1.4 -2.3 0.7 -5.4 2 -6.7 2.9 -1.4 1 -2.5 1.2 -2.5 0.6z"></path><path d="M681.4 138.6 c-2.9 -2.2 -1.3 -2.6 2.1 -0.5 1.7 1.1 2.3 1.9 1.4 1.9 -0.8 0 -2.4 -0.6 -3.5 -1.4z"></path><path d="M702.3 135.3 c-1.8 -1.7 -6.1 -4.7 -9.5 -6.7 -3.5 -1.9 -5.6 -3.5 -4.8 -3.6 2.1 0 16.9 9.6 17.6 11.5 1 2.5 0.1 2.2 -3.3 -1.2z"></path><path d="M527 134.2 c0 -1.3 2.7 -3.5 3.9 -3 0.5 0.1 -0.2 1.1 -1.5 2.1 -1.3 1 -2.4 1.4 -2.4 0.9z"></path><path d="M668.5 130.9 c-1.1 -1.7 -0.2 -1.8 1.9 -0.3 1.7 1.2 1.7 1.4 0.4 1.4 -0.9 0 -2 -0.5 -2.3 -1.1z"></path><path d="M73.2 127.8 c0.2 -1.7 1.1 -2.4 3.1 -2.6 2.3 -0.3 2.7 0 2.7 2.2 0 2.2 -0.4 2.6 -3.1 2.6 -2.6 0 -3 -0.3 -2.7 -2.2z"></path><path d="M534.4 128.5 c1.1 -0.8 2.5 -1.5 3.2 -1.5 0.6 0 1.7 -0.7 2.4 -1.5 0.7 -0.8 2 -1.5 2.9 -1.5 0.9 0 -0.6 1.4 -3.4 3 -5.2 3.1 -8.4 4 -5.1 1.5z"></path><path d="M661.5 126.9 c-1.1 -1.7 -0.2 -1.8 1.9 -0.3 1.7 1.2 1.7 1.4 0.4 1.4 -0.9 0 -2 -0.5 -2.3 -1.1z"></path><path d="M654.9 123.2 c-1.3 -1 -3.3 -2.2 -4.3 -2.6 -1 -0.3 -1.6 -0.9 -1.3 -1.2 0.3 -0.4 3 0.8 5.9 2.5 2.9 1.7 4.6 3.1 3.7 3.1 -0.9 0 -2.7 -0.8 -4 -1.8z"></path><path d="M672.8 117.2 c-6.5 -3.7 -11.3 -6.8 -10.8 -7 0.9 -0.3 24 12.6 24 13.4 0 1 -2.2 -0.1 -13.2 -6.4z"></path><path d="M556.3 118 c-2.4 -1 -4.3 -2.4 -4.3 -3 0 -0.6 1.1 -0.4 2.5 0.6 1.3 0.9 4.4 2.2 6.7 2.9 3.2 1 3.6 1.4 1.8 1.4 -1.4 0 -4.4 -0.8 -6.7 -1.9z"></path><path d="M560.4 117 c-5.1 -2 -29.2 -16.5 -32.2 -19.4 -16.2 -15 -8.5 -41.8 13.4 -46.7 7.4 -1.7 13.4 -0.2 24 5.9 l8.4 4.7 0 5.3 c0 2.8 -0.4 5.2 -1 5.2 -0.5 0 -5.3 -2.5 -10.6 -5.5 -11.5 -6.4 -14.1 -7.1 -20.1 -5.4 -10.8 3 -15.9 15.4 -10.5 25.4 1.7 3.3 4.4 5.3 17.9 13.2 10.9 6.5 13.6 7.7 18.4 8.1 6.9 0.5 11.8 -1.5 15.7 -6.6 l2.7 -3.5 0.5 -33.1 0.5 -33.1 2.7 -5.1 c5.4 -10.3 16.2 -16.3 27.3 -15.1 6.5 0.7 11.9 3.4 16.7 8.4 6.2 6.4 7.8 11.2 7.8 23.5 l0 10.7 -4.4 3.1 c-2.5 1.6 -4.7 3 -5 3 -0.3 0 -0.6 -5.6 -0.6 -12.5 0 -14.3 -0.9 -17.4 -6.3 -22.2 -8.4 -7.4 -21.2 -4.6 -26.4 5.7 -2.2 4.3 -2.3 5.3 -2.3 34.5 0 33.6 -0.4 36.1 -6.6 43.3 -5.2 6.1 -12.2 9.2 -20.8 9.1 -3.9 0 -8.1 -0.4 -9.2 -0.9z"></path><path d="M642.4 115.5 c-0.4 -0.8 -1.2 -1.5 -1.9 -1.5 -1.6 0 -7.5 -7.8 -7.5 -9.9 0 -0.9 1.1 0.3 2.5 2.6 1.4 2.3 4.4 5.5 6.7 7.2 2.7 2 3.6 3.1 2.5 3.1 -1 0 -2 -0.7 -2.3 -1.5z"></path><path d="M588.5 112.8 c1.5 -1.2 4.1 -4.2 5.6 -6.7 1.6 -2.5 2.9 -3.8 2.9 -3 0 3 -7.4 11.9 -9.8 11.9 -0.9 0 -0.3 -0.9 1.3 -2.2z"></path><path d="M114.9 111.4 c-1 -1.2 -0.9 -1.8 0.3 -3.1 1.9 -1.8 3.8 -1 3.8 1.7 0 2.4 -2.5 3.3 -4.1 1.4z"></path><path d="M158.4 111.6 c-0.8 -2 0.3 -3.6 2.5 -3.6 0.9 0 2.6 -0.7 3.7 -1.5 1.8 -1.4 1.7 -1.4 -1.3 -1.5 -3.8 0 -7.3 -3.3 -7.3 -6.8 0 -3.2 5.2 -8.2 8.5 -8.2 4.2 0 7.5 4.1 7.5 9.4 0 7.7 -2.8 11.5 -9.8 13 -2.4 0.6 -3.3 0.4 -3.8 -0.8z"></path><path d="M215.3 112.3 c-0.7 -0.3 -1.3 -1.3 -1.3 -2.3 0 -2 2.6 -3.5 3.5 -2 0.4 0.7 1.3 0.6 2.5 0 1.3 -0.7 2.1 -0.6 3 0.5 1.8 2.1 -0.5 4.8 -3 3.5 -0.9 -0.5 -2.1 -0.5 -2.6 -0.1 -0.5 0.5 -1.5 0.6 -2.1 0.4z"></path><path d="M252.6 111.4 c-1.6 -1.5 -1.6 -1.8 -0.2 -3.3 1.5 -1.4 1.8 -1.4 3.3 0.2 1.6 1.5 1.6 1.8 0.2 3.3 -1.5 1.4 -1.8 1.4 -3.3 -0.2z"></path><path d="M267.4 111.5 c-0.8 -1.9 0.3 -3.5 2.5 -3.5 0.9 0 2.6 -0.7 3.7 -1.5 1.8 -1.4 1.7 -1.4 -1.3 -1.5 -3.5 0 -7.3 -3.8 -7.3 -7.2 0 -2.9 5.4 -7.8 8.5 -7.8 3.6 0 7.5 4.1 7.5 8 l0 3 13.3 0 13.2 0 0 -10.2 0 -10.3 2.5 0 2.5 0 0.3 12.3 0.3 12.2 -15.9 0 c-15.8 0 -15.9 0 -18.3 2.6 -2.3 2.5 -7.6 5.4 -9.9 5.4 -0.6 0 -1.3 -0.7 -1.6 -1.5z"></path><path d="M318.4 111.5 c-0.8 -1.9 0.3 -3.5 2.5 -3.5 0.9 0 2.6 -0.7 3.7 -1.5 1.8 -1.4 1.7 -1.4 -1.3 -1.5 -3.5 0 -7.3 -3.8 -7.3 -7.2 0 -2.9 5.4 -7.8 8.5 -7.8 3.6 0 7.5 4.1 7.5 8 l0 3.1 13.3 -0.3 13.2 -0.3 0 -4.5 c0 -4.2 0.2 -4.5 2.8 -4.8 2.6 -0.3 2.7 -0.2 2.7 4.7 l0 5.1 15.4 0 c9.6 0 15.7 -0.4 16.1 -1 0.4 -0.6 -0.9 -2.5 -2.8 -4.3 l-3.5 -3.2 3.5 -6 c4.4 -7.5 4 -7.2 5.9 -5.3 1.5 1.4 1.4 2 -1 6 -2.5 4.3 -2.5 4.4 -0.6 5.6 1.1 0.6 2.3 2.6 2.8 4.4 l0.8 3.3 11.7 0.3 11.7 0.3 0 -5.1 c0 -4.6 0.2 -5 2.4 -5 2.3 0 2.5 0.5 2.8 4.8 0.3 4.5 0.4 4.7 3.5 5 l3.2 0.3 0.3 -10.3 c0.3 -10.2 0.3 -10.3 2.8 -10.3 l2.5 0 0.3 12.2 0.3 12.2 -54.8 0 -54.7 0 -2.4 2.7 c-2.3 2.5 -7.8 5.4 -10.2 5.4 -0.6 0 -1.3 -0.7 -1.6 -1.5z"></path><path d="M456.2 110.8 c0.2 -1.5 1.3 -2.4 3.5 -3 3.2 -0.8 5.8 -3.1 3.2 -2.7 -7.1 0.9 -11.4 -6 -7.4 -11.8 1.7 -2.4 6.4 -3.8 9.5 -2.8 3.1 1 5.3 6.1 4.7 11.2 -0.5 5 -2.8 8 -7.4 9.9 -4.7 2 -6.5 1.8 -6.1 -0.8z"></path><path d="M0 110.2 c0 -0.9 0.9 -2.3 2 -3 1.7 -1 2 -2.3 2 -8.8 l0 -7.5 2.8 0.3 2.7 0.3 -0.1 7.9 c-0.2 7.3 -0.4 8.2 -2.8 10.3 -3.3 2.8 -6.6 3 -6.6 0.5z"></path><path d="M656 107.5 c-1.6 -0.9 -1.9 -1.4 -0.9 -1.5 0.8 0 2.4 0.7 3.5 1.5 2.4 1.8 0.7 1.9 -2.6 0z"></path><path d="M572 106.6 c0 -0.6 6 -3.6 7.4 -3.6 0.6 0 0.2 0.6 -0.9 1.4 -2.2 1.5 -6.5 3 -6.5 2.2z"></path><path d="M533.5 104.9 c-1.1 -1.7 -0.2 -1.8 1.9 -0.3 1.7 1.2 1.7 1.4 0.4 1.4 -0.9 0 -2 -0.5 -2.3 -1.1z"></path><path d="M14 103 c-0.5 -1 -1 -6.6 -1 -12.4 0 -10.6 0 -10.6 2.5 -10.6 2.4 0 2.4 0.1 2.7 10.3 l0.3 10.2 13.9 0.3 c16.2 0.3 17.9 -0.3 12.7 -5 l-3.4 -3 2.9 -5.5 c3.6 -6.8 4.7 -7.8 6.4 -5.8 1.1 1.3 0.9 2.3 -0.9 5.6 l-2.3 4 2 2.2 c1.1 1.2 2.5 3.5 3.1 5 l1.1 2.8 13.2 -0.3 13.3 -0.3 0.1 -4.5 c0 -4.1 0.3 -4.5 2.7 -4.8 2.6 -0.3 2.7 -0.2 2.7 4.7 l0 5.1 13.5 0 13.5 0 0 -5 c0 -4.9 0.1 -5 3 -5 l3 0 0 7 0 7 -52 0 c-50.1 -0.1 -52 -0.1 -53 -2z"></path><path d="M122 103 c0 -1.7 0.7 -2 4 -2 l4 0 0 -7.5 c0 -7.3 0.1 -7.5 2.5 -7.5 2.4 0 2.5 0.2 2.5 7.5 0 6.8 0.2 7.5 2 7.5 1.9 0 2 -0.7 2 -10.5 l0 -10.5 2.5 0 2.5 0 0 12.5 0 12.5 -11 0 c-10.3 0 -11 -0.1 -11 -2z"></path><path d="M147.2 92.8 l0.3 -12.3 2.5 0 2.5 0 0.3 12.3 0.3 12.2 -3.1 0 -3.1 0 0.3 -12.2z"></path><path d="M186 103 c-0.5 -1 -1 -6.6 -1 -12.4 0 -10.6 0 -10.6 2.5 -10.6 2.4 0 2.4 0.1 2.7 10.3 l0.3 10.2 12.7 0.3 12.7 0.3 0.3 -4.8 c0.3 -4.4 0.5 -4.8 3.1 -5.1 2.6 -0.3 2.7 -0.2 2.7 4.7 l0 5.1 17 0 17 0 -0.6 -2.7 c-1 -4.2 -1.4 -4.5 -4.5 -3.9 -3.2 0.6 -4.6 -0.8 -2.9 -2.9 3.2 -3.9 12 -0.3 12 4.8 0 1.3 0.7 3.2 1.5 4.3 3.3 4.4 3.6 4.4 -36.5 4.4 -36.3 -0.1 -38 -0.1 -39 -2z"></path><path d="M445 92.5 l0 -12.5 2.5 0 2.5 0 0 12.5 0 12.5 -2.5 0 -2.5 0 0 -12.5z"></path><path d="M549.5 97.9 c-6.6 -3.8 -11.4 -6.9 -10.6 -6.9 1.4 0 24.1 12.8 24.1 13.6 0 1 -2.2 -0.1 -13.5 -6.7z"></path><path d="M650 103.5 c-0.7 -0.8 -0.8 -1.5 -0.2 -1.5 0.5 0 1.5 0.7 2.2 1.5 0.7 0.8 0.8 1.5 0.2 1.5 -0.5 0 -1.5 -0.7 -2.2 -1.5z"></path><path d="M528.5 101.9 c-1.1 -1.7 -0.2 -1.8 1.9 -0.3 1.7 1.2 1.7 1.4 0.4 1.4 -0.9 0 -2 -0.5 -2.3 -1.1z"></path><path d="M672 101.6 c0 -0.8 11.8 -7.6 13.1 -7.6 0.8 0 -1.7 1.8 -5.4 4 -6.8 4 -7.7 4.4 -7.7 3.6z"></path><path d="M701.2 99.9 c1 -0.5 2.9 -2.7 4.3 -4.7 1.4 -2 2.5 -3 2.5 -2.3 0 2.3 -4.9 8.1 -6.8 8.1 -1.6 -0.1 -1.6 -0.1 0 -1.1z"></path><path d="M523 96.5 c-0.6 -0.8 -1 -1.9 -0.8 -2.4 0.1 -0.5 1.1 0.2 2.1 1.5 1.9 2.6 0.8 3.4 -1.3 0.9z"></path><path d="M630.3 96.4 c-0.8 -2.1 0.3 -13.3 1.6 -16.8 1.8 -4.5 2.2 -2.5 0.5 2.4 -0.9 2.7 -1.4 6.8 -1.2 10.2 0.3 6 0.1 6.9 -0.9 4.2z"></path><path d="M584.8 71.2 c0.1 -14.1 0.4 -28.6 0.5 -32.2 0.2 -3.6 0.4 7.2 0.4 24 0.1 16.8 -0.1 31.3 -0.5 32.2 -0.4 1 -0.6 -9.8 -0.4 -24z"></path><path d="M689 91 c3.3 -2.6 5.2 -2.5 2.1 0 -1.3 1.1 -2.8 2 -3.5 2 -0.6 0 0 -0.9 1.4 -2z"></path><path d="M78.3 85.5 c-0.9 -2.4 0.6 -3.3 5 -3.2 3.5 0.2 4.2 0.5 4.2 2.2 0 1.7 -0.7 2 -4.3 2.2 -2.9 0.1 -4.5 -0.3 -4.9 -1.2z"></path><path d="M358.7 85.6 c-0.9 -2.2 1.9 -4.2 3.7 -2.6 1.9 1.5 1 4 -1.4 4 -1 0 -2 -0.6 -2.3 -1.4z"></path><path d="M421.6 85.5 c-0.7 -2 2.2 -4.1 3.6 -2.7 0.9 0.9 1.5 0.9 2.5 0 1.1 -0.9 1.8 -0.8 3 0.4 0.8 0.9 1.3 2.1 0.9 2.6 -0.9 1.6 -9.4 1.3 -10 -0.3z"></path><path d="M517.3 77.5 c0 -2.7 0.2 -3.8 0.4 -2.2 0.2 1.5 0.2 3.7 0 5 -0.2 1.2 -0.4 0 -0.4 -2.8z"></path><path d="M711.3 75 c0 -2.5 0.2 -3.5 0.4 -2.2 0.2 1.2 0.2 3.2 0 4.5 -0.2 1.2 -0.4 0.2 -0.4 -2.3z"></path><path d="M328.9 75.5 c-5.3 -2.9 -5.3 -11.4 -0.1 -14.6 2 -1.2 2 -1.3 -0.5 -4.5 -2.4 -3.2 -2.4 -3.3 -0.5 -5.2 2.4 -2.4 8.2 -3.5 11.6 -2.2 3 1.1 3.5 4.3 1 7.8 l-1.5 2.2 15 0 15 0 1.7 -3.5 c3.1 -6.7 8.6 -8.4 12.9 -4 1.4 1.3 2.5 3.5 2.5 4.9 l0 2.5 18.5 0.3 18.4 0.3 -0.6 -2.5 c-0.9 -3.8 -1.1 -4 -4.9 -4 -2.8 0 -3.5 -0.4 -3.2 -1.7 0.2 -1 1.8 -2.1 3.5 -2.7 4.4 -1.2 7.9 1.2 9.3 6.4 l1.1 4 12.8 0 c12.7 0 12.9 0 13.5 -2.3 0.8 -3.5 5.2 -7.7 7.9 -7.7 1.3 0 3.6 0.9 5.1 2.1 3.5 2.7 3.7 9 0.4 11.3 -2.7 1.9 -7.9 2.1 -9.6 0.4 -0.9 -0.9 -1.5 -0.9 -2.4 0 -1.7 1.7 -68.9 1.7 -70.6 0 -0.9 -0.9 -1.5 -0.9 -2.4 0 -1.5 1.5 -6.2 1.6 -8.8 0.2 -1.3 -0.7 -2.1 -0.7 -2.5 0 -0.8 1.3 -31.5 1.3 -34.8 0.1 -3.4 -1.3 -6.7 1.1 -6.7 4.9 0 3.5 1.2 4.4 5.7 4.2 2.6 -0.1 3.3 0.3 3.3 1.7 0 3.3 -5.5 4.1 -10.1 1.6z"></path><path d="M568.3 73 c-1.3 -0.5 -2.3 -1.4 -2.3 -2 0 -0.8 2.8 0.5 5.9 2.7 0.9 0.6 -1.5 0.1 -3.6 -0.7z"></path><path d="M696.1 72.2 c-0.6 -1.2 -1.1 -2.7 -1.1 -3.4 0.1 -0.7 0.8 0 1.6 1.5 0.9 1.6 1.3 3.1 1.1 3.4 -0.3 0.2 -1 -0.4 -1.6 -1.5z"></path><path d="M518 70.8 c0 -2 1.9 -7.2 2.5 -6.7 0.2 0.3 -0.2 2.3 -1 4.4 -0.8 2.2 -1.4 3.2 -1.5 2.3z"></path><path d="M637.2 71 c0.2 -0.7 1.3 -1.8 2.3 -2.4 1 -0.6 2.7 -1.9 3.7 -2.8 1 -1 2.6 -1.8 3.6 -1.8 1.5 0.1 1.4 0.2 -0.3 1.2 -1.1 0.6 -3.8 2.5 -5.9 4.2 -2.1 1.6 -3.7 2.4 -3.4 1.6z"></path><path d="M35.7 70.3 c-1.3 -1.3 -0.7 -3.3 1.1 -3.3 0.9 -0.1 2.8 -0.7 4.2 -1.5 l2.5 -1.4 -2.8 -0.1 c-1.6 0 -3.9 -1.1 -5.4 -2.6 -2 -2 -2.4 -3.1 -1.9 -5.7 0.3 -1.8 1.6 -4 2.7 -4.9 2.2 -1.8 7.5 -2.4 9.5 -1 1.6 1.1 3.4 4.8 3.4 7.1 0 2 0.5 2.1 17.1 2.1 l17.1 0 -0.6 -2.2 c-0.3 -1.3 -0.6 -2.6 -0.6 -3 0 -0.5 -1.6 -0.8 -3.5 -0.8 -2.8 0 -3.5 -0.4 -3.5 -1.9 0 -2.4 4.6 -3.6 8.3 -2.2 2 0.8 3 2.2 3.9 5.6 l1.2 4.6 14.1 -0.3 14 -0.3 0.1 -4.5 c0 -4.1 0.3 -4.5 2.5 -4.5 2.2 0 2.4 0.5 2.7 4.8 0.3 4.6 0.4 4.7 3.8 4.7 l3.4 0 0 -10 0 -10 2.5 0 2.5 0 0 10 0 10 3.5 0 3.5 0 0 -10 0 -10 2.5 0 2.5 0 0 12.4 0 12.4 -48.7 0.1 c-47.2 0.2 -48.7 0.2 -50 2.1 -2.5 3.6 -9.7 6.3 -11.6 4.3z"></path><path d="M117.4 69.5 c-0.4 -0.9 -0.2 -2.1 0.4 -2.7 1.5 -1.5 4.4 -0.1 4 1.9 -0.4 2.3 -3.6 2.9 -4.4 0.8z"></path><path d="M218.6 69.3 c-0.5 -1.2 0.1 -2.3 1.8 -3.6 2.4 -1.7 2.6 -2.5 2.6 -9.3 0 -7.2 0.1 -7.4 2.5 -7.4 2.5 0 2.5 0.1 2.5 8.1 0 7.6 -0.2 8.2 -2.9 11 -3.3 3.3 -5.6 3.7 -6.5 1.2z"></path><path d="M418.4 69.5 c-0.4 -0.9 -0.2 -2.1 0.4 -2.7 1.5 -1.5 4.4 -0.1 4 1.9 -0.4 2.3 -3.6 2.9 -4.4 0.8z"></path><path d="M560.4 68.6 c-2.9 -2.2 -1.3 -2.6 2.1 -0.5 1.7 1.1 2.3 1.9 1.4 1.9 -0.8 0 -2.4 -0.6 -3.5 -1.4z"></path><path d="M708.4 65.3 c-1.2 -2.4 -1.7 -4.3 -1.2 -4.3 1 0 4.1 6.8 3.6 7.9 -0.2 0.4 -1.2 -1.2 -2.4 -3.6z"></path><path d="M551.5 63.9 c-2.6 -1.2 -3.3 -1.8 -2 -1.8 1.1 0 3.6 0.8 5.5 1.9 4.5 2.5 1.7 2.4 -3.5 -0.1z"></path><path d="M3 62.7 c-2 -1 -2.6 -2.1 -2.8 -5.6 -0.3 -3.9 -0.2 -4.2 2 -3.9 1.3 0.2 2.3 1 2.4 1.8 0.1 0.8 0.2 2.1 0.2 2.8 0.2 0.9 2.9 1.2 10 1.2 l9.7 0 0 -4.7 c0 -4.5 0.2 -4.8 2.5 -4.8 2.4 0 2.5 0.3 2.8 7.3 l0.3 7.2 -12.3 0 c-7.9 0 -13.2 -0.5 -14.8 -1.3z"></path><path d="M169.5 63.1 c-0.3 -0.5 -2 -0.7 -3.9 -0.4 -4.1 0.6 -7.4 -1 -8.2 -4.1 -0.9 -3.6 1.2 -6.6 6.2 -8.7 2.4 -1.1 4.4 -2.5 4.4 -3 0 -0.6 1 -0.9 2.3 -0.7 2 0.3 2.2 0.9 2.5 6.6 l0.3 6.2 14.4 0 14.5 0 0 -3 c0 -4.3 3.1 -7 7.9 -7 5.2 0 7.1 2.6 7.1 9.7 l0 5.3 -23.4 0 c-13.5 0 -23.7 -0.4 -24.1 -0.9z"></path><path d="M233.6 62.4 c-1.3 -1.2 -1.6 -3.9 -1.6 -12.5 l0 -10.9 2.5 0 2.5 0 0 10 0 10 15 0 15 0 0 -3 c0 -2.5 0.4 -3 2.5 -3 2.1 0 2.5 0.5 2.5 3 0 2.5 0.4 3 2.5 3 2.3 0 2.5 -0.4 2.5 -4.1 0 -3.8 0.1 -4 2.8 -3.7 2.4 0.3 2.7 0.7 2.7 3.8 0.1 2.8 0.5 3.6 2.2 3.8 1.9 0.3 2.2 -0.2 2.5 -4.5 0.3 -4.4 0.5 -4.8 2.8 -4.8 2.3 0 2.5 0.4 2.8 4.8 0.3 4.6 0.4 4.7 3.8 4.7 l3.4 0 0 -10 0 -10 2.5 0 2.5 0 0 12.4 0 12.3 -34.9 0.1 c-30.4 0.1 -35.2 0 -36.5 -1.4z"></path><path d="M308 51.5 l0 -12.5 3 0 3 0 0 12.5 0 12.5 -3 0 -3 0 0 -12.5z"></path><path d="M540.5 63 c2.8 -1.2 3.7 -1.2 3 0 -0.3 0.6 -1.6 1 -2.8 0.9 -2.1 0 -2.1 -0.1 -0.2 -0.9z"></path><path d="M685 63 l-2.5 -0.8 2.5 -0.1 c1.4 0 3.2 0.4 4 0.9 1.3 0.9 1.3 1 0 0.9 -0.8 -0.1 -2.6 -0.5 -4 -0.9z"></path><path d="M630.3 58.5 c0 -2.2 0.2 -3 0.4 -1.7 0.2 1.2 0.2 3 0 4 -0.3 0.9 -0.5 -0.1 -0.4 -2.3z"></path><path d="M654 60 c0 -1.1 3.8 -3.2 5 -2.8 0.5 0.2 -0.4 1.1 -2 2 -1.7 0.9 -3 1.3 -3 0.8z"></path><path d="M524 58.3 c0 -1.3 2.9 -3.8 3.5 -3.1 0.3 0.3 -0.4 1.3 -1.5 2.3 -1.1 1 -2 1.3 -2 0.8z"></path><path d="M564 54.4 c-4.1 -2.4 -6.9 -4.4 -6.2 -4.4 1.9 0 14.2 7 14.2 8.1 0 1.1 0.9 1.5 -8 -3.7z"></path><path d="M698.6 53.9 c-2.1 -1.6 -3.3 -2.9 -2.5 -2.9 1.6 0 7.6 4.6 6.9 5.3 -0.3 0.2 -2.3 -0.9 -4.4 -2.4z"></path><path d="M662.4 54.5 c1.1 -0.8 2.7 -1.5 3.5 -1.5 1 0.1 0.7 0.6 -0.9 1.5 -3.3 1.9 -5 1.8 -2.6 0z"></path><path d="M529 54 c0 -0.5 2.1 -1.9 4.8 -3.1 4.9 -2.3 18.5 -3.9 19.5 -2.3 0.3 0.5 -2.9 0.9 -7.2 0.9 -6.4 0 -8.4 0.5 -12.3 2.7 -2.7 1.5 -4.8 2.3 -4.8 1.8z"></path><path d="M671.8 49.9 c1.8 -1.9 19.6 -1.9 21.4 0 1.1 1.1 0.9 1.2 -1.2 0.5 -3.2 -1.2 -15.8 -1.2 -19 0 -2.1 0.7 -2.3 0.6 -1.2 -0.5z"></path><path d="M10.7 45.3 c-1.3 -1.2 -0.7 -4.3 0.8 -4.3 0.8 0 1.2 -0.6 0.9 -1.3 -0.6 -1.7 2.1 -4.1 3.6 -3.2 0.7 0.4 1 1.5 0.7 2.5 -0.3 1.2 0.2 2 1.4 2.3 2.3 0.6 2.5 3.5 0.4 4.3 -0.8 0.4 -2.2 0.1 -2.9 -0.5 -1 -0.8 -1.6 -0.9 -2.1 -0.1 -0.7 1.2 -1.9 1.3 -2.8 0.3z"></path><path d="M205 44.5 c-1.8 -2.2 -0.4 -3.3 4.5 -3.3 3.7 0 4.5 0.3 4.5 1.8 0 2.5 -1.7 3.5 -3.5 2 -0.9 -0.7 -1.5 -0.8 -2 0 -0.9 1.4 -2 1.3 -3.5 -0.5z"></path><path d="M275.3 44.9 c-1.4 -1.4 -0.6 -3.9 1.1 -3.9 0.7 0 1.2 -1 1.2 -2.2 -0.1 -1.7 0.5 -2.3 1.9 -2.3 1.4 0 2 0.6 1.9 2.3 0 1.2 0.5 2.2 1.2 2.2 2.1 0 2.7 2.1 1.1 3.8 -1.3 1.2 -1.9 1.3 -3.1 0.3 -1 -0.8 -1.6 -0.9 -2.1 -0.1 -0.8 1.3 -1.8 1.3 -3.2 -0.1z"></path><path d="M163 43.5 c-0.6 -0.8 -0.9 -1.9 -0.5 -2.5 0.9 -1.4 4.2 -1.3 4.8 0.3 0.4 1 0.6 1 0.6 0 0.1 -1.8 3.8 -1.6 4.4 0.1 0.9 2.2 -1.9 4.2 -3.7 2.7 -1 -0.8 -1.6 -0.9 -2.1 -0.1 -0.9 1.4 -2 1.3 -3.5 -0.5z"></path><path d="M643.1 33.7 c0 -1.6 -0.6 -3.7 -1.2 -4.9 -0.6 -1.1 -0.8 -2.2 -0.5 -2.5 0.9 -1 2.7 4.9 2.3 7.6 -0.4 2.5 -0.4 2.5 -0.6 -0.2z"></path><path d="M586.1 30.3 c-0.1 -1.2 0.4 -2.5 0.9 -2.8 1.2 -0.7 1.2 0.2 0 3 -0.8 1.9 -0.9 1.9 -0.9 -0.2z"></path><path d="M594 17.1 c0 -1.5 7 -5.9 10.5 -6.6 2.9 -0.6 2.9 -0.6 -0.5 1 -1.9 0.9 -4.9 2.7 -6.7 4.1 -1.8 1.4 -3.3 2 -3.3 1.5z"></path><path d="M632.5 16 c-0.4 -0.7 -3.1 -2.3 -5.9 -3.6 -2.8 -1.3 -4.4 -2.4 -3.5 -2.4 0.8 0 3.4 0.9 5.6 2 4.1 2 6 3.7 5 4.6 -0.3 0.3 -0.8 0 -1.2 -0.6z"></path><path d="M609.8 9.3 c1.2 -0.2 3 -0.2 4 0 0.9 0.3 -0.1 0.5 -2.3 0.4 -2.2 0 -3 -0.2 -1.7 -0.4z"></path></g><g fill="#009ede"><path d="M600.7 231.6 c-7 -2.9 -11.4 -6.2 -16.1 -11.9 -5.8 -7.1 -7.9 -12.9 -8.3 -23.7 l-0.5 -9.5 4.1 -2.2 c2.2 -1.3 4.5 -2.3 5 -2.3 0.7 0 1.1 3.5 1.1 9.3 0 11.1 1.7 16.8 6.6 22.6 5.7 6.6 11.4 9.4 20.4 9.9 6.7 0.4 8.5 0.1 13.2 -2 6.4 -3 11.8 -8.2 15 -14.6 2.2 -4.4 2.3 -5.8 2.3 -24.7 0 -18.2 -0.2 -20.4 -2.1 -24.6 -6 -12.9 -20.2 -20.2 -33.1 -17 -2.6 0.7 -10 4.2 -16.3 7.9 -6.3 3.6 -18 10.3 -25.9 14.9 -12.2 7 -15.1 8.3 -18.9 8.3 -11.6 0 -19.4 -11.6 -14.8 -22.3 1.8 -4.4 4.4 -6.4 16.6 -13.3 10 -5.7 10.7 -5.9 15 -5.1 2.5 0.4 6.2 0.5 8.3 0.2 2 -0.3 3.7 -0.2 3.7 0.2 -0.1 0.5 -7.1 4.8 -15.8 9.7 -18.4 10.5 -19.2 11.1 -19.2 14.7 0 3.4 2.4 5.9 5.7 5.9 1.4 0 12.9 -6 26.7 -14 13.3 -7.7 26.2 -14.7 28.7 -15.6 2.8 -1.1 7.6 -1.8 13 -1.8 7.9 -0.1 9 0.2 16.1 3.7 12.2 6 19.9 16.5 21.8 29.8 1.3 8.4 1.2 29.9 0 37.3 -2 12.3 -10.7 23.9 -21.9 29.3 -4.6 2.2 -7.3 2.7 -15.1 3 -8.3 0.3 -10.2 0.1 -15.3 -2.1z"></path><path d="M611.3 211 c-4.5 -1 -8.1 -3.5 -10.3 -7.3 -1.7 -2.8 -2 -5.1 -2 -16.9 l0 -13.6 4.4 -2.5 c2.5 -1.4 4.7 -2.2 5 -1.9 0.3 0.3 0.6 7.2 0.6 15.2 0 11.9 0.3 15 1.5 16 2.4 2 6.7 1.5 8.7 -1 1.6 -1.9 1.8 -4.2 1.8 -17.1 0 -13.6 -0.2 -15.1 -2 -16.9 -1.1 -1.1 -2.9 -2 -4.1 -2 -1.1 0 -12.5 6.1 -25.4 13.5 -31.3 18.2 -30.9 18 -42.5 18 -8.6 0 -10.1 -0.3 -16.2 -3.2 -8.5 -4 -15.1 -10.6 -19.1 -19.1 -2.8 -6 -3.2 -7.7 -3.2 -15.7 0.1 -7 0.6 -10.3 2.4 -14.7 2.8 -7.3 10.2 -15.4 18.1 -20.1 l6 -3.6 4.5 2.5 c2.5 1.4 4.5 2.9 4.5 3.2 0 0.4 -3.2 2.5 -7.1 4.7 -13.5 7.6 -19.8 17.9 -18.6 30.6 1.3 14.2 12.2 24.6 26.7 25.6 4.1 0.3 8 0 10.5 -0.9 2.2 -0.8 15.3 -7.9 29 -15.9 23.9 -13.8 25.2 -14.4 30.5 -14.4 6.8 0 11.4 2.9 14.1 8.9 1.5 3.4 1.9 6.6 1.9 19.1 0 8.3 -0.5 16.6 -1 18.5 -1.1 4.1 -6.3 9.4 -10 10.5 -4.5 1.2 -5.5 1.3 -8.7 0.5z"></path><path d="M587.2 189.8 c-0.1 -5.3 0.1 -9.9 0.6 -10.1 0.4 -0.3 0.6 2.7 0.4 6.6 -0.4 12.2 -0.9 13.6 -1 3.5z"></path><path d="M671 193.5 c-2.5 -0.8 -7 -3 -10 -4.8 -5.4 -3.3 -5.5 -3.4 -5.8 -8.5 -0.2 -3.4 0.1 -5.2 0.8 -5.2 0.7 0 3.9 1.6 7.3 3.6 8.2 4.8 12.9 6.4 19.1 6.4 11.2 0 21.2 -6.3 26.2 -16.5 2.3 -4.8 2.6 -6.4 2.2 -13.2 -0.4 -9 -2.5 -14 -7.8 -19.3 -1.9 -1.9 -13.6 -9.3 -26 -16.4 -12.4 -7.1 -24 -14 -25.8 -15.4 -7.2 -5.3 -9.2 -13.8 -5.1 -21.1 2.1 -3.9 3.8 -5.1 21 -15 9 -5.2 11.2 -6.1 15.5 -6.1 10.6 0 17.9 9.3 15.3 19.6 -1.4 5.4 -4.6 8.4 -16.6 15.5 l-9.7 5.7 -4.8 -2.7 c-2.6 -1.4 -4.8 -2.8 -4.8 -3.1 0.1 -0.3 5.3 -3.5 11.7 -7.1 6.5 -3.6 12.6 -7.8 13.7 -9.3 1.9 -2.5 1.9 -2.9 0.5 -5.4 -2.7 -4.8 -6.1 -4.2 -20 3.9 -6.8 3.9 -12.7 7.7 -13.1 8.3 -0.4 0.6 -0.8 2.3 -0.8 3.8 0 3.5 1.6 4.7 29 20.4 24.6 14.1 29.9 18.4 34.7 28.1 2.5 5.3 2.8 6.8 2.8 16.3 0 9.9 -0.2 11 -3.3 17.2 -4.1 8.3 -12 15.8 -20 18.9 -7.2 2.8 -19.7 3.5 -26.2 1.4z"></path><path d="M666 165.3 l-11.5 -6.7 -3.7 -7.5 c-2 -4.2 -3.5 -7.7 -3.4 -7.8 0.1 -0.1 7.5 4.1 16.5 9.3 18.1 10.5 21.2 11.3 24 6.2 1.4 -2.5 1.4 -2.9 -0.4 -5.4 -1.1 -1.4 -11.7 -8.2 -23.5 -15 -32 -18.4 -34.2 -20.3 -39.8 -32.2 -2.3 -4.9 -2.7 -7 -2.7 -15.2 0 -8.5 0.3 -10.2 3.1 -16 4.5 -9.6 9.9 -14.4 27.2 -24.4 18.3 -10.6 22 -11.9 32.7 -11.4 14.4 0.7 26.3 8.6 32.8 21.7 3 6.1 3.2 7.2 3.2 17.1 0 9.5 -0.3 11 -2.8 16.3 -3.5 7.1 -10.4 14.2 -17.7 18.4 l-5.5 3.1 -4.7 -2.6 c-2.7 -1.4 -4.8 -2.8 -4.8 -3.1 0 -0.3 3.2 -2.3 7.1 -4.5 13.3 -7.2 18.1 -14.1 18.7 -26.9 0.4 -6.8 0.1 -8.4 -2.2 -13.2 -5 -10.2 -15 -16.5 -26.1 -16.5 -7.1 0 -10 1.1 -25 9.8 -16.6 9.6 -19.4 11.9 -23.1 18.4 -2.6 4.7 -2.9 6.3 -2.9 13.8 0 7.5 0.3 9.1 2.9 13.8 1.7 3 4.6 6.6 6.5 8.1 2 1.5 14 8.7 26.6 16 12.7 7.3 24.4 14.6 26.2 16.3 7.8 7.4 5.4 21.4 -4.3 25.4 -6.8 2.8 -11 1.9 -23.4 -5.3z"></path><path d="M560 128.5 c-3 -0.9 -12.4 -5.5 -20.8 -10.3 -24.2 -13.7 -30.6 -22.2 -30.6 -40.7 -0.1 -7.7 0.3 -9.8 2.7 -14.8 7.4 -16 21.4 -24.6 38.4 -23.5 6.1 0.4 8.8 1.2 15.8 4.7 l8.5 4.2 0 5.4 c0 3 -0.4 5.5 -0.9 5.5 -0.4 0 -4.6 -2.1 -9.2 -4.7 -8.2 -4.7 -8.6 -4.8 -16.9 -4.8 -7.5 0 -9.1 0.3 -13.8 3 -12.3 6.7 -17.8 20.2 -13.8 33.7 2.5 8.6 7.5 13.4 23.8 22.9 16.5 9.5 21.2 11.2 28.7 10.5 10.6 -1 19.9 -7.6 24.5 -17.5 2 -4.3 2.1 -6.8 2.6 -37.1 0.4 -28.9 0.7 -32.9 2.3 -35.3 5.4 -8.2 17.2 -9.4 24.5 -2.4 4.3 4.2 5.2 7.9 5.2 22.8 0 11.9 -0.1 12.7 -2.3 14.7 -1.3 1.2 -3.4 4.4 -4.8 7 l-2.4 4.7 -0.5 -20.4 -0.5 -20.4 -2.6 -2 c-2.4 -1.7 -3 -1.8 -5.5 -0.5 l-2.9 1.3 -0.6 32 c-0.5 30.1 -0.7 32.3 -2.8 37.8 -2.5 6.4 -8.4 14.3 -13 17.6 -9.7 7 -22.6 9.5 -33.1 6.6z"></path><path d="M551.8 99.2 c-7.6 -4.3 -14.7 -8.7 -15.9 -9.8 -5 -4.4 -6.3 -13.2 -2.8 -19.3 3 -5.3 6.5 -7.4 12.9 -7.9 5.2 -0.3 6.1 0 16.5 6 l11 6.3 0.3 5.8 c0.2 3.1 0.1 5.7 -0.2 5.7 -0.2 0 -5.7 -3.1 -12.3 -7 -12 -7.1 -15.9 -8.2 -18.7 -5.4 -2.1 2.1 -2 6.7 0.2 8.6 3.5 2.9 25 14.8 26.9 14.8 1 0 2.8 -0.6 3.9 -1.4 1.8 -1.4 1.9 -3.2 2.4 -34.3 0.5 -32.7 0.5 -32.8 3.1 -38.3 3.9 -8.2 10.9 -15.4 18.7 -19.2 6.3 -3.1 7.3 -3.3 17.2 -3.3 9.6 0 11 0.3 16.3 2.9 7.4 3.8 15 11.4 18.3 18.3 2.8 6 4.7 15.9 4.2 21.9 -0.3 3.3 -0.9 4.1 -4.9 6.5 l-4.6 2.7 -0.5 -10.7 c-0.4 -8.2 -1.1 -11.7 -2.9 -15.5 -8.9 -18.9 -34 -22.6 -47.8 -7 -6.8 7.7 -7.1 9.8 -7.1 43.8 0 27.2 -0.2 30.5 -1.9 34.2 -2.5 5.5 -7.1 8.7 -13.5 9.1 -4.8 0.4 -5.9 0 -18.8 -7.5z"></path><path d="M120.6 69.2 c0.4 -1.4 0 -2.2 -1.3 -2.5 -1.7 -0.4 -1.7 -0.5 0 -0.6 2.1 -0.1 3.4 2.6 1.9 4.1 -0.8 0.8 -0.9 0.5 -0.6 -1z"></path></g><g fill="#ffffff"><path d="M611.3 224.3 c0.9 -0.2 2.5 -0.2 3.5 0 0.9 0.3 0.1 0.5 -1.8 0.5 -1.9 0 -2.7 -0.2 -1.7 -0.5z"></path><path d="M131.2 182.3 l-0.2 -13.2 -2.7 -0.4 -2.8 -0.4 2.8 -0.2 c1.5 0 3 0.5 3.3 1.2 0.2 0.7 0.3 6.9 0.1 13.8 l-0.3 12.4 -0.2 -13.2z"></path><path d="M145.4 182.5 c0 -7.1 0.1 -9.9 0.3 -6.2 0.2 3.7 0.2 9.6 0 13 -0.2 3.4 -0.3 0.4 -0.3 -6.8z"></path><path d="M299.4 185.5 c0.1 -8.3 0.3 -9 2.1 -9.1 1.4 -0.1 1.5 0 0.3 0.3 -1.4 0.4 -1.8 1.9 -2.1 9.1 l-0.3 8.7 0 -9z"></path><path d="M364.3 189 c0 -3.6 0.2 -5 0.4 -3.2 0.2 1.7 0.2 4.7 0 6.5 -0.2 1.7 -0.4 0.3 -0.4 -3.3z"></path><path d="M368.4 185.5 c0.1 -8.3 0.3 -9 2.1 -9.1 1.4 -0.1 1.5 0 0.3 0.3 -1.4 0.4 -1.8 1.9 -2.1 9.1 l-0.3 8.7 0 -9z"></path><path d="M98.3 189.5 c0 -2.7 0.2 -3.8 0.4 -2.2 0.2 1.5 0.2 3.7 0 5 -0.2 1.2 -0.4 0 -0.4 -2.8z"></path><path d="M251.3 187.5 c0 -3.3 0.2 -4.5 0.4 -2.7 0.2 1.8 0.2 4.5 0 6 -0.2 1.5 -0.4 0 -0.4 -3.3z"></path><path d="M335.3 189.5 c0 -2.2 0.2 -3 0.4 -1.7 0.2 1.2 0.2 3 0 4 -0.3 0.9 -0.5 -0.1 -0.4 -2.3z"></path><path d="M78.7 191.3 c-1.5 -1.4 -0.6 -3.4 2 -4.4 3.7 -1.4 5.3 0.4 2.8 3.1 -1.8 2 -3.6 2.5 -4.8 1.3z"></path><path d="M120.7 190.7 c-2.7 -2 -3.1 -6 -0.8 -8.8 2.8 -3.4 5.5 -1.6 5.9 3.9 0.4 4.7 -2.2 7.1 -5.1 4.9z"></path><path d="M203.1 190.1 c-3.7 -3.7 -1.8 -10.1 2.8 -10.1 4.5 0 5.5 8 1.4 10.7 -1.9 1.3 -2.4 1.2 -4.2 -0.6z"></path><path d="M240.3 190.4 c-0.7 -1.9 0.6 -3.3 3.6 -3.6 2.9 -0.4 3.7 1.4 1.6 3.6 -2.1 2 -4.4 2.1 -5.2 0z"></path><path d="M284.1 190.1 c-1.2 -1.2 -2.1 -3.2 -2.1 -4.4 0 -2.6 2.8 -5.7 5.2 -5.7 4.2 0 5.1 8.1 1.1 10.7 -1.9 1.3 -2.4 1.2 -4.2 -0.6z"></path><path d="M353.3 190.4 c-0.7 -1.9 0.6 -3.3 3.6 -3.6 2.9 -0.4 3.7 1.4 1.6 3.6 -2.1 2 -4.4 2.1 -5.2 0z"></path><path d="M79 183.6 c0 -0.2 1.3 -0.6 2.9 -0.8 1.7 -0.2 2.8 -0.1 2.5 0.4 -0.5 0.8 -5.4 1.2 -5.4 0.4z"></path><path d="M242.3 183.3 c0.9 -0.2 2.5 -0.2 3.5 0 0.9 0.3 0.1 0.5 -1.8 0.5 -1.9 0 -2.7 -0.2 -1.7 -0.5z"></path><path d="M355.3 183.3 c0.9 -0.2 2.5 -0.2 3.5 0 0.9 0.3 0.1 0.5 -1.8 0.5 -1.9 0 -2.7 -0.2 -1.7 -0.5z"></path><path d="M544.8 183.3 c1.2 -0.2 3.2 -0.2 4.5 0 1.2 0.2 0.2 0.4 -2.3 0.4 -2.5 0 -3.5 -0.2 -2.2 -0.4z"></path><path d="M679.8 183.3 c1.2 -0.2 3.2 -0.2 4.5 0 1.2 0.2 0.2 0.4 -2.3 0.4 -2.5 0 -3.5 -0.2 -2.2 -0.4z"></path><path d="M381.3 179 c0 -2.5 0.2 -3.5 0.4 -2.2 0.2 1.2 0.2 3.2 0 4.5 -0.2 1.2 -0.4 0.2 -0.4 -2.3z"></path><path d="M335.4 180.6 c-1.8 -4.7 1.8 -8.3 5 -5.1 2 2 2 2.9 0 4.9 -1.9 2 -4.3 2.1 -5 0.2z"></path><path d="M253.4 179.5 c-0.8 -1.9 0.4 -3.5 2.4 -3.4 1.5 0.1 1.5 0.2 0 0.6 -1 0.2 -1.8 1.1 -1.8 1.8 0 0.7 0.8 1.6 1.8 1.8 1.6 0.4 1.6 0.5 -0.1 0.6 -1 0 -2 -0.6 -2.3 -1.4z"></path><path d="M395.9 178.8 c1.2 -1.6 1.1 -1.8 -1.1 -1.8 -1.3 0 -3 0.6 -3.8 1.3 -1.2 1 -1.2 0.9 -0.1 -0.5 1.4 -1.8 7.1 -2.5 7.1 -0.9 0 0.5 -0.8 1.5 -1.7 2.2 -1.6 1.3 -1.7 1.2 -0.4 -0.3z"></path><path d="M229.7 176.8 c0.2 -0.5 1.3 -0.8 2.3 -0.8 1 0 2.1 0.3 2.3 0.8 0.3 0.4 -0.8 0.7 -2.3 0.7 -1.5 0 -2.6 -0.3 -2.3 -0.7z"></path><path d="M653.2 171 c0 -1.9 0.2 -2.7 0.5 -1.7 0.2 0.9 0.2 2.5 0 3.5 -0.3 0.9 -0.5 0.1 -0.5 -1.8z"></path><path d="M711.2 154 c0 -1.9 0.2 -2.7 0.5 -1.7 0.2 0.9 0.2 2.5 0 3.5 -0.3 0.9 -0.5 0.1 -0.5 -1.8z"></path><path d="M73 143.7 l0.5 -11.2 0.3 10.4 c0.1 5.7 -0.1 10.8 -0.5 11.2 -0.4 0.5 -0.6 -4.2 -0.3 -10.4z"></path><path d="M633.4 149.8 l-2.9 -3.3 3.3 2.9 c1.7 1.7 3.2 3.1 3.2 3.3 0 0.8 -0.8 0.1 -3.6 -2.9z"></path><path d="M5.8 151.3 c1.2 -0.2 3 -0.2 4 0 0.9 0.3 -0.1 0.5 -2.3 0.4 -2.2 0 -3 -0.2 -1.7 -0.4z"></path><path d="M161.3 151.3 c0.9 -0.2 2.5 -0.2 3.5 0 0.9 0.3 0.1 0.5 -1.8 0.5 -1.9 0 -2.7 -0.2 -1.7 -0.5z"></path><path d="M176.3 151.3 c0.9 -0.2 2.5 -0.2 3.5 0 0.9 0.3 0.1 0.5 -1.8 0.5 -1.9 0 -2.7 -0.2 -1.7 -0.5z"></path><path d="M195.8 151.3 c1.2 -0.2 3 -0.2 4 0 0.9 0.3 -0.1 0.5 -2.3 0.4 -2.2 0 -3 -0.2 -1.7 -0.4z"></path><path d="M247.3 151.3 c0.9 -0.2 2.5 -0.2 3.5 0 0.9 0.3 0.1 0.5 -1.8 0.5 -1.9 0 -2.7 -0.2 -1.7 -0.5z"></path><path d="M310.8 151.3 c1.2 -0.2 3 -0.2 4 0 0.9 0.3 -0.1 0.5 -2.3 0.4 -2.2 0 -3 -0.2 -1.7 -0.4z"></path><path d="M329.8 151.3 c1.2 -0.2 3 -0.2 4 0 0.9 0.3 -0.1 0.5 -2.3 0.4 -2.2 0 -3 -0.2 -1.7 -0.4z"></path><path d="M387.3 151.3 c0.9 -0.2 2.5 -0.2 3.5 0 0.9 0.3 0.1 0.5 -1.8 0.5 -1.9 0 -2.7 -0.2 -1.7 -0.5z"></path><path d="M418.3 151.3 c0.9 -0.2 2.5 -0.2 3.5 0 0.9 0.3 0.1 0.5 -1.8 0.5 -1.9 0 -2.7 -0.2 -1.7 -0.5z"></path><path d="M56.3 145.5 c0 -3.3 0.2 -4.5 0.4 -2.7 0.2 1.8 0.2 4.5 0 6 -0.2 1.5 -0.4 0 -0.4 -3.3z"></path><path d="M138.3 146 c0 -3 0.2 -4.3 0.4 -2.7 0.2 1.5 0.2 3.9 0 5.5 -0.2 1.5 -0.4 0.2 -0.4 -2.8z"></path><path d="M355.3 144 c0 -4.1 0.2 -5.8 0.4 -3.7 0.2 2 0.2 5.4 0 7.5 -0.2 2 -0.4 0.3 -0.4 -3.8z"></path><path d="M45.2 145.8 c0.2 -1.8 1.1 -2.4 3.6 -2.6 3.5 -0.4 3.7 0 2.2 2.9 -0.6 1.1 -2.1 1.9 -3.6 1.9 -2.1 0 -2.5 -0.4 -2.2 -2.2z"></path><path d="M86.7 146.6 c-0.8 -2 1.3 -3.6 4.5 -3.6 3.2 0 3.5 1.1 1.2 3.4 -1.9 2 -5 2.1 -5.7 0.2z"></path><path d="M212.2 145.8 c0.2 -1.8 1.1 -2.4 3.6 -2.6 3.5 -0.4 4.1 0.8 1.6 3.2 -2.4 2.5 -5.6 2.1 -5.2 -0.6z"></path><path d="M386.6 146.4 c-3.1 -3 -1.1 -10.4 2.8 -10.4 1.9 0 4.6 3.3 4.6 5.6 0 2.5 -2.7 6.4 -4.5 6.4 -0.7 0 -2.1 -0.7 -2.9 -1.6z"></path><path d="M417.1 146.6 c-1.9 -2.3 -1.7 -7.7 0.4 -9.2 1.1 -0.8 2.2 -1.4 2.5 -1.4 0.3 0 1.4 0.6 2.5 1.4 3.5 2.5 1.6 10.6 -2.5 10.6 -1 0 -2.3 -0.6 -2.9 -1.4z"></path><path d="M438.2 145.8 c-0.7 -0.7 -1.2 -2.7 -1.2 -4.5 0 -5.6 6.3 -6.9 7.6 -1.6 1.3 5.1 -3.1 9.4 -6.4 6.1z"></path><path d="M158 139.2 c0 -1.4 2.3 -3.2 4.2 -3.2 0.9 0 2.2 0.9 2.8 2 1 1.8 0.8 2 -3 2 -2.2 0 -4 -0.4 -4 -0.8z"></path><path d="M192.6 138.5 c0.8 -2 4.2 -2.9 5.9 -1.5 2.5 2.1 1.7 3 -2.5 3 -3 0 -3.8 -0.3 -3.4 -1.5z"></path><path d="M308.2 138.8 c0.8 -2.3 3.5 -3.3 5.2 -1.9 2.5 2.1 1.9 3.1 -2 3.1 -2.3 0 -3.4 -0.4 -3.2 -1.2z"></path><path d="M70.7 135.7 c0.3 -1.6 0 -2.7 -0.9 -3 -0.9 -0.3 -0.9 -0.4 0.2 -0.3 1.8 0.1 2.6 3.4 1.2 4.8 -0.6 0.6 -0.8 0.1 -0.5 -1.5z"></path><path d="M138 134 c0 -2.7 0.3 -3 3 -3 3.4 0 4.9 2.2 3 4.5 -0.7 0.8 -2.3 1.5 -3.6 1.5 -2 0 -2.4 -0.5 -2.4 -3z"></path><path d="M178.3 132.3 c0.9 -0.2 2.5 -0.2 3.5 0 0.9 0.3 0.1 0.5 -1.8 0.5 -1.9 0 -2.7 -0.2 -1.7 -0.5z"></path><path d="M247.3 132.3 c0.9 -0.2 2.5 -0.2 3.5 0 0.9 0.3 0.1 0.5 -1.8 0.5 -1.9 0 -2.7 -0.2 -1.7 -0.5z"></path><path d="M135.8 126.3 c1.8 -0.2 4.5 -0.2 6 0 1.5 0.2 0 0.4 -3.3 0.4 -3.3 0 -4.5 -0.2 -2.7 -0.4z"></path><path d="M289.8 126.3 c2.9 -0.2 7.4 -0.2 10 0 2.6 0.2 0.2 0.3 -5.3 0.3 -5.5 0 -7.6 -0.1 -4.7 -0.3z"></path><path d="M158.4 111.5 c-0.7 -1.7 0.3 -3.5 1.9 -3.4 0.9 0 0.9 0.2 0 0.6 -1.9 0.7 -1.6 3.1 0.5 3.6 1.6 0.4 1.6 0.5 -0.1 0.6 -1 0 -2 -0.6 -2.3 -1.4z"></path><path d="M267.4 111.5 c-0.7 -1.7 0.3 -3.5 1.9 -3.4 0.9 0 0.9 0.2 0 0.6 -1.9 0.7 -1.6 3.1 0.5 3.6 1.6 0.4 1.6 0.5 -0.1 0.6 -1 0 -2 -0.6 -2.3 -1.4z"></path><path d="M318.4 111.5 c-0.7 -1.7 0.3 -3.5 1.9 -3.4 0.9 0 0.9 0.2 0 0.6 -1.9 0.7 -1.6 3.1 0.5 3.6 1.6 0.4 1.6 0.5 -0.1 0.6 -1 0 -2 -0.6 -2.3 -1.4z"></path><path d="M586 112.7 c0 -0.2 1.5 -1.6 3.3 -3.3 l3.2 -2.9 -2.9 3.3 c-2.8 3 -3.6 3.7 -3.6 2.9z"></path><path d="M4.3 98 c0 -4.1 0.2 -5.8 0.4 -3.7 0.2 2 0.2 5.4 0 7.5 -0.2 2 -0.4 0.3 -0.4 -3.8z"></path><path d="M118.3 98 c0 -4.1 0.2 -5.8 0.4 -3.7 0.2 2 0.2 5.4 0 7.5 -0.2 2 -0.4 0.3 -0.4 -3.8z"></path><path d="M147.5 92.8 l0 -12.3 2.5 0 2.5 0 0 12 0.1 12 -0.3 -11.7 c-0.3 -10.9 -0.5 -11.8 -2.3 -11.8 -1.8 0 -2 0.9 -2.3 12 l-0.3 12 0.1 -12.2z"></path><path d="M312.2 93.3 c-0.2 -10.6 -0.4 -12.2 -1.9 -12.6 -1.7 -0.4 -1.7 -0.5 0 -0.6 2.6 -0.2 2.8 1.3 2.4 14 l-0.3 11.4 -0.2 -12.2z"></path><path d="M445.2 92.8 l-0.2 -12.8 2.8 0.1 c2.3 0.2 2.3 0.2 0.5 0.6 -2.1 0.4 -2.3 0.9 -2.6 12.6 l-0.3 12.2 -0.2 -12.7z"></path><path d="M469.3 100 c0 -2.5 0.2 -3.5 0.4 -2.2 0.2 1.2 0.2 3.2 0 4.5 -0.2 1.2 -0.4 0.2 -0.4 -2.3z"></path><path d="M9.3 97.5 c0 -3.3 0.2 -4.5 0.4 -2.7 0.2 1.8 0.2 4.5 0 6 -0.2 1.5 -0.4 0 -0.4 -3.3z"></path><path d="M13.2 91.3 l-0.2 -11.3 2.8 0.1 c2.3 0.2 2.3 0.2 0.5 0.6 -2.1 0.4 -2.3 1 -2.6 11.1 l-0.3 10.7 -0.2 -11.2z"></path><path d="M162.7 100.8 c-2.2 -1.2 -2.2 -5.4 -0.1 -6.2 2.2 -0.8 4.4 1.1 4.4 3.9 0 2.7 -1.9 3.7 -4.3 2.3z"></path><path d="M460.8 101.3 c-2.2 -0.5 -3 -3 -1.8 -5.4 1.4 -2.4 3.6 -2.4 5 0 2.1 4 0.7 6.2 -3.2 5.4z"></path><path d="M113.3 96 c0 -3 0.2 -4.3 0.4 -2.7 0.2 1.5 0.2 3.9 0 5.5 -0.2 1.5 -0.4 0.2 -0.4 -2.8z"></path><path d="M216.3 96.5 c0 -2.7 0.2 -3.8 0.4 -2.2 0.2 1.5 0.2 3.7 0 5 -0.2 1.2 -0.4 0 -0.4 -2.8z"></path><path d="M221.3 96 c0 -3 0.2 -4.3 0.4 -2.7 0.2 1.5 0.2 3.9 0 5.5 -0.2 1.5 -0.4 0.2 -0.4 -2.8z"></path><path d="M270.7 100.3 c-1.3 -1.3 -0.7 -5.1 0.9 -5.7 2.2 -0.9 4.4 1.1 4.4 4 0 1.8 -0.5 2.4 -2.3 2.4 -1.3 0 -2.7 -0.3 -3 -0.7z"></path><path d="M321.7 100.3 c-1.3 -1.3 -0.7 -5.1 0.9 -5.7 2.2 -0.9 4.4 1.1 4.4 4 0 1.8 -0.5 2.4 -2.3 2.4 -1.3 0 -2.7 -0.3 -3 -0.7z"></path><path d="M363.3 96 c0 -3 0.2 -4.3 0.4 -2.7 0.2 1.5 0.2 3.9 0 5.5 -0.2 1.5 -0.4 0.2 -0.4 -2.8z"></path><path d="M436.4 90.5 c0.1 -8.8 0.3 -10 1.9 -10.1 1.1 -0.1 1.2 0 0.3 0.3 -1.2 0.3 -1.6 2.6 -1.9 10.1 l-0.3 9.7 0 -10z"></path><path d="M358.2 95 c0 -1.9 0.2 -2.7 0.5 -1.7 0.2 0.9 0.2 2.5 0 3.5 -0.3 0.9 -0.5 0.1 -0.5 -1.8z"></path><path d="M632.3 91 c0 -2.5 0.2 -3.5 0.4 -2.2 0.2 1.2 0.2 3.2 0 4.5 -0.2 1.2 -0.4 0.2 -0.4 -2.3z"></path><path d="M587.4 64 c0 -16.2 0.2 -22.9 0.3 -14.7 0.2 8.1 0.2 21.3 0 29.5 -0.1 8.1 -0.3 1.4 -0.3 -14.8z"></path><path d="M82 84.4 c0 -1.1 -0.6 -1.5 -2 -1.1 -1.1 0.3 -1.8 0.2 -1.5 -0.3 0.6 -0.9 8.4 -1 9 0 0.2 0.3 -0.6 0.6 -1.8 0.6 -1.3 -0.1 -2.1 0.4 -1.9 1.2 0.1 0.6 -0.2 1.2 -0.8 1.2 -0.5 0 -1 -0.7 -1 -1.6z"></path><path d="M711.3 75.5 c0 -2.2 0.2 -3 0.4 -1.7 0.2 1.2 0.2 3 0 4 -0.3 0.9 -0.5 -0.1 -0.4 -2.3z"></path><path d="M332.3 76.3 c0.9 -0.2 2.5 -0.2 3.5 0 0.9 0.3 0.1 0.5 -1.8 0.5 -1.9 0 -2.7 -0.2 -1.7 -0.5z"></path><path d="M338 74.6 c0 -0.8 -0.8 -1.7 -1.7 -1.9 -1.4 -0.4 -1.2 -0.5 0.5 -0.6 1.6 -0.1 2.2 0.5 2.2 1.9 0 1.1 -0.2 2 -0.5 2 -0.3 0 -0.5 -0.6 -0.5 -1.4z"></path><path d="M29.2 57.3 c-0.2 -6.5 -0.4 -7.3 -2.1 -7.3 -1.6 0 -2.1 0.8 -2.4 3.8 l-0.4 3.7 0.1 -4 c0.1 -3.4 0.5 -4.1 2.4 -4.3 2.9 -0.4 3.4 1.1 2.9 8.9 l-0.3 6.4 -0.2 -7.2z"></path><path d="M304.4 51.5 c0 -7.2 0.1 -9.9 0.3 -6.2 0.2 3.7 0.2 9.6 0 13 -0.2 3.4 -0.3 0.4 -0.3 -6.8z"></path><path d="M308.4 51.5 c0 -7.2 0.1 -9.9 0.3 -6.2 0.2 3.7 0.2 9.6 0 13 -0.2 3.4 -0.3 0.4 -0.3 -6.8z"></path><path d="M313.4 51.5 c0 -7.2 0.1 -9.9 0.3 -6.2 0.2 3.7 0.2 9.6 0 13 -0.2 3.4 -0.3 0.4 -0.3 -6.8z"></path><path d="M162.3 62.3 c0.9 -0.2 2.5 -0.2 3.5 0 0.9 0.3 0.1 0.5 -1.8 0.5 -1.9 0 -2.7 -0.2 -1.7 -0.5z"></path><path d="M39.2 59.1 c-0.8 -0.4 -1.2 -1.9 -1 -3.2 0.2 -1.8 0.9 -2.4 2.8 -2.4 2.1 0 2.6 0.5 2.8 3.3 0.3 2.5 0 3.2 -1.5 3.2 -1 0 -2.4 -0.4 -3.1 -0.9z"></path><path d="M54.5 59.3 c14.7 -0.7 29.5 -0.7 29.5 0 0 0.4 -8 0.6 -17.7 0.5 -9.8 -0.1 -15.1 -0.3 -11.8 -0.5z"></path><path d="M92.5 59.3 c12.1 -0.7 24.3 -0.7 23.8 0 -0.2 0.4 -6.8 0.6 -14.6 0.5 -7.8 -0.1 -11.9 -0.3 -9.2 -0.5z"></path><path d="M121.7 59.3 c-0.4 -0.3 -0.7 -2.6 -0.7 -5.1 0 -4.2 -0.1 -4.4 -2.6 -3.9 -1.6 0.3 -2.2 0.1 -1.6 -0.5 0.6 -0.6 1.8 -0.8 2.8 -0.6 1.5 0.2 2 1.4 2.2 5 0.3 4.4 0.5 4.7 3.5 5.1 l3.2 0.4 -3.1 0.1 c-1.7 0.1 -3.4 -0.1 -3.7 -0.5z"></path><path d="M172.7 59.3 c-0.4 -0.3 -0.7 -3.2 -0.7 -6.4 0 -5 -0.3 -5.8 -2 -6.2 -1.7 -0.4 -1.6 -0.4 0.2 -0.3 2.1 0.1 2.3 0.7 2.6 6.3 l0.3 6.2 15.2 0.4 15.2 0.3 -15.1 0.2 c-8.3 0.1 -15.4 -0.1 -15.7 -0.5z"></path><path d="M207 58.1 c-1.4 -2.7 -0.2 -5.3 2.4 -4.9 3 0.4 3.7 6.8 0.7 6.8 -1.1 0 -2.5 -0.9 -3.1 -1.9z"></path><path d="M275.3 59.4 c1.2 -0.4 1.7 -1.6 1.7 -4.5 0 -3.8 0.2 -4 2.8 -3.7 2.2 0.2 2.7 0.8 2.8 3.3 0.2 2.9 0.2 2.9 -0.3 0.3 -0.3 -1.9 -1 -2.8 -2.3 -2.8 -1.4 0 -2 0.9 -2.2 3.7 -0.2 2.9 -0.8 3.8 -2.3 4 -1.6 0.1 -1.6 0.1 -0.2 -0.3z"></path><path d="M285.2 59.4 c0.9 -0.3 1.9 -1.3 2.2 -2.2 0.3 -1.2 0.4 -1.2 0.3 0.3 -0.1 1.2 -1 2.1 -2.2 2.2 -1.5 0.1 -1.5 0 -0.3 -0.3z"></path><path d="M292.4 58.6 c-0.3 -0.8 -0.4 -2.3 -0.1 -3.3 0.3 -1.2 0.5 -0.9 0.6 0.9 0.1 2.3 0.6 2.7 3.9 3.1 l3.7 0.4 -3.8 0.1 c-2.5 0.1 -4 -0.3 -4.3 -1.2z"></path><path d="M343.5 59.3 c12 -0.7 26.3 -0.7 25.8 0 -0.2 0.4 -7.3 0.6 -15.6 0.5 -8.4 -0.1 -12.9 -0.3 -10.2 -0.5z"></path><path d="M374.5 59 c-0.9 -1.4 2.2 -6 4 -6 2.2 0 3.9 3.8 2.4 5.6 -1.3 1.6 -5.5 1.9 -6.4 0.4z"></path><path d="M427.7 59.3 c-0.4 -0.3 -0.7 -1.1 -0.7 -1.7 0 -0.7 0.3 -0.6 0.8 0.1 0.5 0.8 4.8 1.3 13.2 1.6 l12.5 0.3 -12.6 0.2 c-6.9 0.1 -12.9 -0.1 -13.2 -0.5z"></path><path d="M458.6 59.2 c-0.9 -1.5 1.9 -5.7 3.8 -5.7 2.3 0 4.1 2.7 3.3 4.9 -0.7 1.7 -6.1 2.3 -7.1 0.8z"></path><path d="M162.4 57.6 c-0.8 -2 0.9 -4.2 3.7 -4.9 1.7 -0.5 2 -0.1 1.7 2.6 -0.2 2.4 -0.8 3.3 -2.6 3.5 -1.3 0.2 -2.5 -0.3 -2.8 -1.2z"></path><path d="M332.7 55.9 c-1.9 -2.7 -1.4 -3.9 1.8 -3.9 3.3 0 4.1 1.8 1.7 4.2 -1.9 2 -2 2 -3.5 -0.3z"></path><path d="M544.8 50.3 c1.2 -0.2 3.2 -0.2 4.5 0 1.2 0.2 0.2 0.4 -2.3 0.4 -2.5 0 -3.5 -0.2 -2.2 -0.4z"></path><path d="M680.3 50.3 c1.5 -0.2 3.7 -0.2 5 0 1.2 0.2 0 0.4 -2.8 0.4 -2.7 0 -3.8 -0.2 -2.2 -0.4z"></path><path d="M14 42.8 c-2.5 -4.1 -2.6 -5.3 -0.2 -3 1 0.9 1.8 2.4 1.8 3.2 -0.1 2.1 3.1 2.4 3.8 0.3 0.4 -1.5 0.5 -1.5 0.3 0.2 -0.4 3.3 -3.4 3 -5.7 -0.7z"></path><path d="M207.4 44.8 c1 -0.8 1.6 -1.9 1.3 -2.5 -0.3 -0.5 0 -1 0.9 -1 1.2 0 1.2 0.3 0.1 2.1 -0.8 1.1 -2 2.2 -2.8 2.4 -0.8 0.2 -0.5 -0.2 0.5 -1z"></path><path d="M278.2 41.5 c-1.1 -2.3 -1 -2.4 0.7 -1.3 1.1 0.6 1.7 1.8 1.4 2.5 -0.7 1.8 -0.8 1.7 -2.1 -1.2z"></path></g><g fill="#95cce9"><path d="M587.5 222.8 l-4 -4.3 4.3 4 c3.9 3.6 4.7 4.5 3.9 4.5 -0.2 0 -2.1 -1.9 -4.2 -4.2z"></path><path d="M612.3 224.3 c1.5 -0.2 3.9 -0.2 5.5 0 1.5 0.2 0.2 0.4 -2.8 0.4 -3 0 -4.3 -0.2 -2.7 -0.4z"></path><path d="M585.4 191 c0 -5.2 0.1 -7.4 0.3 -4.7 0.2 2.6 0.2 6.8 0 9.5 -0.2 2.6 -0.3 0.4 -0.3 -4.8z"></path><path d="M587.2 189.3 c-0.1 -5 0.1 -9.4 0.6 -9.6 0.4 -0.3 0.6 2.5 0.4 6.1 -0.5 11.6 -0.9 13 -1 3.5z"></path><path d="M608 183.3 c-0.3 -8.4 -0.1 -14.9 0.3 -14.4 0.4 0.4 0.6 7.2 0.5 15.2 l-0.3 14.4 -0.5 -15.2z"></path><path d="M630.4 182 c0 -9.1 0.2 -12.8 0.3 -8.2 0.2 4.5 0.2 11.9 0 16.5 -0.1 4.5 -0.3 0.8 -0.3 -8.3z"></path><path d="M653.4 183 c0 -8.5 0.2 -12 0.3 -7.7 0.2 4.2 0.2 11.2 0 15.5 -0.1 4.2 -0.3 0.7 -0.3 -7.8z"></path><path d="M381.5 181.8 l0 -13.3 2.7 -0.3 c2.6 -0.3 2.6 -0.3 3 7.2 0.2 4.2 0 7.6 -0.4 7.6 -0.5 0 -0.8 -3.1 -0.8 -7 0 -6.3 -0.2 -7 -2 -7 -1.8 0 -2 0.8 -2.3 13 l-0.3 13 0.1 -13.2z"></path><path d="M684 193.9 c0 -0.7 1.1 -0.8 3 -0.4 1.9 0.4 3 0.3 3 -0.4 0 -0.6 0.7 -1.1 1.5 -1.1 2.3 0 1.8 1.7 -0.7 2.4 -3.6 0.9 -6.8 0.7 -6.8 -0.5z"></path><path d="M545.3 185.3 c0.9 -0.2 2.5 -0.2 3.5 0 0.9 0.3 0.1 0.5 -1.8 0.5 -1.9 0 -2.7 -0.2 -1.7 -0.5z"></path><path d="M655.3 180 c0 -3 0.2 -4.3 0.4 -2.7 0.2 1.5 0.2 3.9 0 5.5 -0.2 1.5 -0.4 0.2 -0.4 -2.8z"></path><path d="M548 171 c0 -0.5 0.6 -1 1.4 -1 0.8 0 1.8 0.5 2.1 1 0.3 0.6 -0.3 1 -1.4 1 -1.2 0 -2.1 -0.4 -2.1 -1z"></path><path d="M683 171 c0 -0.5 0.9 -1 2 -1 1.1 0 2 0.5 2 1 0 0.6 -0.9 1 -2 1 -1.1 0 -2 -0.4 -2 -1z"></path><path d="M508.3 156 c0 -3.6 0.2 -5 0.4 -3.2 0.2 1.7 0.2 4.7 0 6.5 -0.2 1.7 -0.4 0.3 -0.4 -3.3z"></path><path d="M711.3 156 c0 -3 0.2 -4.3 0.4 -2.7 0.2 1.5 0.2 3.9 0 5.5 -0.2 1.5 -0.4 0.2 -0.4 -2.8z"></path><path d="M612.8 153.3 c1.2 -0.2 3.2 -0.2 4.5 0 1.2 0.2 0.2 0.4 -2.3 0.4 -2.5 0 -3.5 -0.2 -2.2 -0.4z"></path><path d="M60.4 142 c0 -5.2 0.1 -7.4 0.3 -4.7 0.2 2.6 0.2 6.8 0 9.5 -0.2 2.6 -0.3 0.4 -0.3 -4.8z"></path><path d="M227.4 142 c0 -5.2 0.1 -7.4 0.3 -4.7 0.2 2.6 0.2 6.8 0 9.5 -0.2 2.6 -0.3 0.4 -0.3 -4.8z"></path><path d="M449.4 142 c0 -5.2 0.1 -7.4 0.3 -4.7 0.2 2.6 0.2 6.8 0 9.5 -0.2 2.6 -0.3 0.4 -0.3 -4.8z"></path><path d="M533 147.7 c0 -0.2 1.5 -1.6 3.3 -3.3 l3.2 -2.9 -2.9 3.3 c-2.8 3 -3.6 3.7 -3.6 2.9z"></path><path d="M640.9 141.3 l-3.4 -3.8 3.8 3.4 c3.4 3.3 4.2 4.1 3.4 4.1 -0.2 0 -1.9 -1.7 -3.8 -3.7z"></path><path d="M78.2 136 c0 -1.9 0.2 -2.7 0.5 -1.7 0.2 0.9 0.2 2.5 0 3.5 -0.3 0.9 -0.5 0.1 -0.5 -1.8z"></path><path d="M523 138.7 c0 -0.2 1.5 -1.6 3.3 -3.3 l3.2 -2.9 -2.9 3.3 c-2.8 3 -3.6 3.7 -3.6 2.9z"></path><path d="M286.8 130.3 c1.2 -0.2 3 -0.2 4 0 0.9 0.3 -0.1 0.5 -2.3 0.4 -2.2 0 -3 -0.2 -1.7 -0.4z"></path><path d="M612.3 130.3 c1.5 -0.2 3.9 -0.2 5.5 0 1.5 0.2 0.2 0.4 -2.8 0.4 -3 0 -4.3 -0.2 -2.7 -0.4z"></path><path d="M567.3 129.3 c1.5 -0.2 3.9 -0.2 5.5 0 1.5 0.2 0.2 0.4 -2.8 0.4 -3 0 -4.3 -0.2 -2.7 -0.4z"></path><path d="M541.2 124.4 c0.3 -1.7 2.1 -2.1 2.6 -0.6 0.1 0.5 -0.4 1.2 -1.3 1.6 -1.1 0.4 -1.5 0.1 -1.3 -1z"></path><path d="M596 118.5 c1.9 -1.9 3.6 -3.5 3.9 -3.5 0.3 0 -1 1.6 -2.9 3.5 -1.9 1.9 -3.6 3.5 -3.9 3.5 -0.3 0 1 -1.6 2.9 -3.5z"></path><path d="M143 93.1 c0 -11.6 -0.1 -12 -2.2 -12.4 -2 -0.4 -1.9 -0.4 0.5 -0.6 l2.7 -0.1 0 12.5 c0 6.9 -0.2 12.5 -0.5 12.5 -0.3 0 -0.5 -5.4 -0.5 -11.9z"></path><path d="M441.2 93.1 l-0.2 -12.3 -2.5 0.4 c-1.3 0.3 -2.2 0.1 -1.9 -0.3 0.8 -1.4 4.4 -1 5 0.4 0.2 0.7 0.3 6.5 0.1 12.8 l-0.3 11.4 -0.2 -12.4z"></path><path d="M525.4 97.8 l-2.9 -3.3 3.3 2.9 c1.7 1.7 3.2 3.1 3.2 3.3 0 0.8 -0.8 0.1 -3.6 -2.9z"></path><path d="M424.3 95.5 c0 -2.7 0.2 -3.8 0.4 -2.2 0.2 1.5 0.2 3.7 0 5 -0.2 1.2 -0.4 0 -0.4 -2.8z"></path><path d="M85.3 95 c0 -2.5 0.2 -3.5 0.4 -2.2 0.2 1.2 0.2 3.2 0 4.5 -0.2 1.2 -0.4 0.2 -0.4 -2.3z"></path><path d="M307.4 89.5 c0.1 -8.8 0.1 -9 2.5 -9 1.3 0 2.5 0.6 2.7 1.3 0.1 0.7 0 0.8 -0.3 0.2 -0.2 -0.5 -1.3 -1 -2.3 -1 -1.7 0 -2 1 -2.3 8.8 l-0.3 8.7 0 -9z"></path><path d="M585.4 64 c0 -16.8 0.2 -23.6 0.3 -15.2 0.2 8.3 0.2 22.1 0 30.5 -0.1 8.3 -0.3 1.5 -0.3 -15.3z"></path><path d="M630.2 91 c0 -1.9 0.2 -2.7 0.5 -1.7 0.2 0.9 0.2 2.5 0 3.5 -0.3 0.9 -0.5 0.1 -0.5 -1.8z"></path><path d="M535.4 88.8 l-2.9 -3.3 3.3 2.9 c1.7 1.7 3.2 3.1 3.2 3.3 0 0.8 -0.8 0.1 -3.6 -2.9z"></path><path d="M608.4 64 c0 -15.7 0.2 -22.1 0.3 -14.2 0.2 7.8 0.2 20.6 0 28.5 -0.1 7.8 -0.3 1.4 -0.3 -14.3z"></path><path d="M573.2 80 c-0.1 -2.6 -0.8 -5.3 -1.4 -6 -0.8 -0.9 -0.5 -0.8 0.5 0.1 1.4 1.2 1.7 2.7 1.4 6 l-0.4 4.4 -0.1 -4.5z"></path><path d="M711.3 77.5 c0 -3.3 0.2 -4.5 0.4 -2.7 0.2 1.8 0.2 4.5 0 6 -0.2 1.5 -0.4 0 -0.4 -3.3z"></path><path d="M628.2 64.5 c1.4 -1.7 1.8 -4.6 2.1 -15.5 l0.3 -13.5 0.2 13.6 c0.2 13 0.1 13.7 -2 15.5 -2.3 1.9 -2.3 1.9 -0.6 -0.1z"></path><path d="M133.4 58.7 c-0.3 -0.8 -0.3 -5.6 -0.1 -10.8 l0.3 -9.4 0.2 10.2 0.2 10.2 3.8 0.4 3.7 0.4 -3.8 0.1 c-2.3 0.1 -4 -0.3 -4.3 -1.1z"></path><path d="M267.2 56 c0 -1.9 0.2 -2.7 0.5 -1.7 0.2 0.9 0.2 2.5 0 3.5 -0.3 0.9 -0.5 0.1 -0.5 -1.8z"></path><path d="M287.4 54 c0.1 -4.1 0.3 -4.5 2.6 -4.5 2.2 0 2.5 0.4 2.6 4 l0.1 4 -0.4 -3.7 c-0.3 -2.9 -0.9 -3.8 -2.3 -3.8 -1.5 0 -2 0.9 -2.3 4.3 l-0.4 4.2 0.1 -4.5z"></path><path d="M573.3 54.5 c0 -2.7 0.2 -3.8 0.4 -2.2 0.2 1.5 0.2 3.7 0 5 -0.2 1.2 -0.4 0 -0.4 -2.8z"></path><path d="M545.3 48.3 c0.9 -0.2 2.5 -0.2 3.5 0 0.9 0.3 0.1 0.5 -1.8 0.5 -1.9 0 -2.7 -0.2 -1.7 -0.5z"></path><path d="M651.7 48 c0.6 -0.9 1.3 -4 1.6 -7 l0.3 -5.5 0.2 5.6 c0.2 4.4 -0.2 6 -1.5 7 -1.6 1.2 -1.7 1.2 -0.6 -0.1z"></path><path d="M680.8 48.3 c1.2 -0.2 3 -0.2 4 0 0.9 0.3 -0.1 0.5 -2.3 0.4 -2.2 0 -3 -0.2 -1.7 -0.4z"></path><path d="M612.8 9.3 c1.2 -0.2 3 -0.2 4 0 0.9 0.3 -0.1 0.5 -2.3 0.4 -2.2 0 -3 -0.2 -1.7 -0.4z"></path></g></svg>